<?xml version="1.0" standalone="no"?>
<!DOCTYPE svg PUBLIC "-//W3C//DTD SVG 1.1//EN" "http://www.w3.org/Graphics/SVG/1.1/DTD/svg11.dtd">
<svg xmlns="http://www.w3.org/2000/svg"><metadata>This SVG WebFont was generated by YouWorkForThem.
2021 Wahyu &amp; Sani Co. All Rights Reserved.</metadata><defs><font horiz-adv-x="1238" id="ywftsvg"><font-face ascent="1638" bbox="-1066 -462 2700 1954" cap-height="1406" descent="-410" font-family="" font-stretch="normal" font-weight="400" panose-1="0 0 5 0 0 0 0 0 0 0" underline-position="0" underline-thickness="0" unicode-range="U+0020-FB04" units-per-em="2048" x-height="1070"/><missing-glyph d="M907 -430h-790v1952h790v-1952zM661 830l20 -58h31v141h-31l-12 -42q-187 62 -249 83l254 85l7 -26h31v148h-31l-14 -42l-106 -36l-141 48l254 84l7 -25h31v149h-31l-14 -43l-358 -119v-53l186 -62l-186 -62v-52zM420 484q40 0 63.5 18t44.5 55l37 72q9 15 14.5 23.5 t18 17t26.5 8.5q52 -3 52 -58q0 -60 -43 -77l-50 -15v-31h129v31l-24 8q29 34 29 84q0 63 -28 102t-88 39q-39 0 -63.5 -18.5t-44.5 -55.5l-37 -72q-25 -47 -59 -47q-26 0 -39 18.5t-13 45.5q0 43 16 65t57 34l20 7v31h-129v-31l33 -10q-38 -35 -38 -96q0 -65 27.5 -106.5 t88.5 -41.5zM425 134v30q-34 3 -57 27.5t-23 72.5q0 40 27 63.5t61 23.5h157q36 0 62.5 -21t26.5 -61q0 -74 -45 -89l-50 -16v-30h131v30l-30 9q35 38 35 100q0 76 -48 119.5t-116 43.5h-88q-68 0 -116 -43.5t-48 -119.5q0 -61 34 -97.5t87 -41.5zM537 -172h61 q60 0 89.5 38.5t29.5 102.5q0 50 -34.5 84.5t-84.5 34.5h-61q-49 0 -84 -35t-35 -84v-22q0 -50 34.5 -84.5t84.5 -34.5zM635 -94h-134q-20 0 -33.5 13t-13.5 33q0 58 47 58h134q19 0 32.5 -13.5t13.5 -32.5v-12q0 -20 -13.5 -33t-32.5 -13zM347 -86q19 0 31.5 13t12.5 31 t-13 31t-31 13t-30.5 -13t-12.5 -31t12.5 -31t30.5 -13z" horiz-adv-x="1024"/><glyph d="M439 0h-179v919h-202v152h202v153q0 142 85 224t240 82q67 0 143 -9v-148h-124q-73 0 -119 -42t-46 -117v-143h652v-1071h-180v919h-472v-919zM1001 1263q-55 0 -90.5 31.5t-35.5 87.5q0 57 35.5 88.5t90.5 31.5q54 0 90 -32t36 -88t-36 -87.5t-90 -31.5z" glyph-name="uniF001" horiz-adv-x="1268" unicode="fi"/><glyph d="M439 0h-179v919h-202v152h202v153q0 143 86 224.5t239 81.5q65 0 143 -9v-148h-124q-73 0 -119 -43.5t-46 -115.5v-143h289v-152h-289v-919zM1090 0h-179v1522h179v-1522z" glyph-name="uniF002" horiz-adv-x="1266" unicode="fl"/><glyph d="M439 0h-179v919h-202v152h202v153q0 142 85 224t240 82q67 0 143 -9v-148h-124q-73 0 -119 -42t-46 -117v-143h489v153q0 142 85 224t240 82q67 0 143 -9v-148h-124q-73 0 -119 -42t-46 -117v-143h289v-152h-289v-919h-179v919h-489v-919z" glyph-name="uniFB00" horiz-adv-x="1438" unicode="ff"/><glyph d="M439 0h-179v919h-202v152h202v153q0 145 86.5 225.5t238.5 80.5q67 0 143 -9v-148h-124q-75 0 -120 -42.5t-45 -116.5v-143h489v153q0 145 86.5 225.5t238.5 80.5q67 0 143 -9v-148h-124q-75 0 -120 -42.5t-45 -116.5v-143h661v-1071h-180v919h-481v-919h-179v919h-489 v-919zM1678 1263q-57 0 -91.5 31.5t-34.5 87.5t35.5 88t90.5 32q57 0 91.5 -32t34.5 -88q0 -55 -36 -87t-90 -32z" glyph-name="uniFB03" horiz-adv-x="1935" unicode="ffi"/><glyph d="M439 0h-179v919h-202v152h202v153q0 142 85 224t240 82q67 0 143 -9v-148h-124q-73 0 -119 -42t-46 -117v-143h489v153q0 142 85 224t240 82q67 0 143 -9v-148h-124q-73 0 -119 -42t-46 -117v-143h289v-152h-289v-919h-179v919h-489v-919zM1757 0h-179v1523h179v-1523z " glyph-name="uniFB04" horiz-adv-x="1933" unicode="ffl"/><glyph d="M907 -430h-790v1952h790v-1952zM661 830l20 -58h31v141h-31l-12 -42q-187 62 -249 83l254 85l7 -26h31v148h-31l-14 -42l-106 -36l-141 48l254 84l7 -25h31v149h-31l-14 -43l-358 -119v-53l186 -62l-186 -62v-52zM420 484q40 0 63.5 18t44.5 55l37 72q9 15 14.5 23.5 t18 17t26.5 8.5q52 -3 52 -58q0 -60 -43 -77l-50 -15v-31h129v31l-24 8q29 34 29 84q0 63 -28 102t-88 39q-39 0 -63.5 -18.5t-44.5 -55.5l-37 -72q-25 -47 -59 -47q-26 0 -39 18.5t-13 45.5q0 43 16 65t57 34l20 7v31h-129v-31l33 -10q-38 -35 -38 -96q0 -65 27.5 -106.5 t88.5 -41.5zM425 134v30q-34 3 -57 27.5t-23 72.5q0 40 27 63.5t61 23.5h157q36 0 62.5 -21t26.5 -61q0 -74 -45 -89l-50 -16v-30h131v30l-30 9q35 38 35 100q0 76 -48 119.5t-116 43.5h-88q-68 0 -116 -43.5t-48 -119.5q0 -61 34 -97.5t87 -41.5zM537 -172h61 q60 0 89.5 38.5t29.5 102.5q0 50 -34.5 84.5t-84.5 34.5h-61q-49 0 -84 -35t-35 -84v-22q0 -50 34.5 -84.5t84.5 -34.5zM635 -94h-134q-20 0 -33.5 13t-13.5 33q0 58 47 58h134q19 0 32.5 -13.5t13.5 -32.5v-12q0 -20 -13.5 -33t-32.5 -13zM347 -86q19 0 31.5 13t12.5 31 t-13 31t-31 13t-30.5 -13t-12.5 -31t12.5 -31t30.5 -13z" glyph-name=".notdef" horiz-adv-x="1024"/><glyph glyph-name="glyph1" horiz-adv-x="0"/><glyph glyph-name="glyph2" horiz-adv-x="682"/><glyph glyph-name="space" horiz-adv-x="384" unicode=" "/><glyph glyph-name="space" horiz-adv-x="384" unicode=" "/><glyph d="M358 387h-147l-17 1051h181zM284 -32q-55 0 -90 33.5t-35 85.5t35 85.5t90 33.5t90.5 -33.5t35.5 -85.5t-35 -85.5t-91 -33.5z" glyph-name="exclam" horiz-adv-x="569" unicode="!"/><glyph d="M186 1052h-107l-5 470h116zM423 1052h-107l-5 470h116z" glyph-name="quotedbl" horiz-adv-x="502" unicode="&quot;"/><glyph d="M310 -32h-154l93 401h-146v147h182l85 375h-267v147h303l93 400h154l-93 -400h285l93 400h154l-93 -400h135v-147h-171l-85 -375h256v-147h-292l-93 -401h-154l93 401h-285zM524 891l-85 -375h285l85 375h-285z" glyph-name="numbersign" unicode="#"/><glyph d="M680 -166h-106v128q-192 17 -301 125t-120 269h178q13 -118 91 -183t199 -65q131 0 200 68.5t69 167.5q-1 83 -44.5 143t-140.5 105l-248 113q-131 59 -192.5 140.5t-61.5 213.5q0 144 101 247t274 117v128h107v-127q182 -19 280.5 -123.5t103.5 -250.5h-175 q-7 98 -72.5 162.5t-178.5 64.5q-118 0 -182.5 -62.5t-64.5 -153.5q0 -70 41 -120t131 -93l239 -109q146 -68 212 -156.5t66 -235.5q0 -155 -110 -263.5t-295 -121.5v-128z" glyph-name="dollar" horiz-adv-x="1237" unicode="$"/><glyph d="M1427 1375l-892 -1423l-91 58l893 1422zM471 634q-173 0 -284.5 111.5t-111.5 285.5t111.5 285t284.5 111q174 0 285 -111t111 -285t-111 -285.5t-285 -111.5zM471 773q110 0 181 72.5t71 185.5t-71 185.5t-181 72.5t-181 -72.5t-71 -185.5t71 -185.5t181 -72.5z M1400 -43q-173 0 -284 111.5t-111 285.5t111 285t284 111q174 0 285 -111t111 -285t-111 -285.5t-285 -111.5zM1400 96q111 0 181.5 72.5t70.5 185.5t-70.5 185.5t-181.5 72.5q-110 0 -180.5 -72.5t-70.5 -185.5t70.5 -185.5t180.5 -72.5z" glyph-name="percent" horiz-adv-x="1871" unicode="%"/><glyph d="M503 -32q-191 0 -305.5 114.5t-114.5 276.5q0 109 51 195.5t138 143.5l158 107l-108 124q-69 79 -69 200q0 131 96.5 220t250.5 89t248.5 -88.5t94.5 -220.5q0 -75 -37 -144.5t-103 -113.5l-135 -92l265 -307l238 306l118 -99l-251 -322l316 -358h-216l-206 237 q-96 -114 -136 -151q-113 -106 -256 -116q-18 -1 -37 -1zM459 1015l106 -123l136 92q73 54 73 143q0 71 -51.5 121t-124.5 50q-74 0 -125.5 -50t-51.5 -121q0 -61 38 -112zM517 130q29 0 56.5 6t47.5 12.5t43.5 23.5t36 26.5t35 35.5t30.5 36t32 41.5t30 39.5l-296 342 l-154 -106q-52 -36 -83 -91.5t-31 -116.5q0 -102 74 -175.5t179 -73.5z" glyph-name="ampersand" horiz-adv-x="1360" unicode="&amp;"/><glyph d="M185 1053h-107l-4 470h116z" glyph-name="quotesingle" horiz-adv-x="264" unicode="'"/><glyph d="M588 -242l-95 -63q-303 385 -303 1008t303 1008l95 -63q-230 -391 -230 -945q0 -288 62.5 -527t167.5 -418z" glyph-name="parenleft" horiz-adv-x="601" unicode="("/><glyph d="M108 -305l-95 63q105 178 167 417t62 528q0 556 -229 945l95 63q303 -382 303 -1008t-303 -1008z" glyph-name="parenright" horiz-adv-x="601" unicode=")"/><glyph d="M398 734h-108v254l-219 -127l-54 94l220 126l-215 136l54 92l214 -134v252h108v-252l219 126l54 -94l-220 -126l216 -135l-56 -94l-213 134v-252z" glyph-name="asterisk" horiz-adv-x="705" unicode="*"/><glyph d="M698 213h-158v398h-398v152h398v399h158v-399h397v-152h-397v-398z" glyph-name="plus" unicode="+"/><glyph d="M260 -239h-131l63 428h218z" glyph-name="comma" horiz-adv-x="569" unicode=","/><glyph d="M615 444h-508v161h508v-161z" glyph-name="hyphen" horiz-adv-x="721" unicode="-"/><glyph d="M615 444h-508v161h508v-161z" glyph-name="hyphen" horiz-adv-x="721" unicode="­"/><glyph d="M284 -32q-55 0 -90 34.5t-35 88.5t35 89t90 35t90.5 -35t35.5 -89t-35.5 -88.5t-90.5 -34.5z" glyph-name="period" horiz-adv-x="569" unicode="."/><glyph d="M780 1465l-732 -1570l-99 47l732 1569z" glyph-name="slash" horiz-adv-x="729" unicode="/"/><glyph d="M638 -32q-115 0 -211.5 43t-171.5 129.5t-117 230t-42 332.5t42 332.5t117 230t171.5 129.5t211.5 43q116 0 212.5 -43t171.5 -129.5t117 -230t42 -332.5t-42 -332.5t-117 -230t-171.5 -129.5t-212.5 -43zM638 140q74 0 137.5 32t114.5 97.5t80.5 176.5t29.5 257 t-28.5 257t-79.5 176.5t-114.5 97.5t-139.5 32t-139.5 -32t-114 -97.5t-79 -176.5t-28.5 -257t29.5 -257t80.5 -176.5t114 -97.5t137 -32z" glyph-name="zero" horiz-adv-x="1277" unicode="0"/><glyph d="M505 0h-181v1236h-309v150l330 20h160v-1406z" glyph-name="one" horiz-adv-x="703" unicode="1"/><glyph d="M1072 0h-1008v108l599 510q49 42 82.5 76t66.5 79t49.5 95t16.5 106q0 119 -81 204.5t-219 85.5t-222.5 -86.5t-84.5 -204.5v-66h-182v66q0 204 135.5 334.5t352.5 130.5q219 0 353.5 -128.5t134.5 -336.5q0 -65 -15.5 -123.5t-37.5 -101.5t-61.5 -89t-73 -76.5 t-85.5 -74.5l-401 -344h681v-164z" glyph-name="two" horiz-adv-x="1162" unicode="2"/><glyph d="M548 -32q-193 0 -330 96t-169 257l186 27q24 -95 107.5 -158t205.5 -63q136 0 229 83t93 214q0 128 -76.5 212t-218.5 84h-183v107l339 415h-634v164h863v-122l-345 -425h48q171 0 282.5 -115.5t111.5 -314.5q0 -201 -143 -331t-366 -130z" glyph-name="three" horiz-adv-x="1137" unicode="3"/><glyph d="M976 0h-182v327h-726v130l453 949h207l-440 -915h506v297h182v-297h128v-164h-128v-327z" glyph-name="four" horiz-adv-x="1138" unicode="4"/><glyph d="M593 -32q-195 0 -331 95.5t-167 257.5l185 27q25 -95 108 -158t205 -63q136 0 229 83.5t93 213.5q0 128 -75 212t-218 84h-461v686h867v-164h-686v-365h330q190 0 310 -118.5t120 -329.5q0 -201 -142.5 -331t-366.5 -130z" glyph-name="five" horiz-adv-x="1197" unicode="5"/><glyph d="M602 -32q-142 0 -256 54t-183.5 163t-69.5 257q0 152 79 282l416 682h211l-349 -558q88 54 204 54q196 0 327 -124t131 -336q0 -148 -69.5 -257t-183.5 -163t-257 -54zM602 142q139 0 231 84.5t92 219.5q-1 136 -92 220.5t-231 84.5t-230.5 -84.5t-90.5 -220.5 q0 -135 91.5 -219.5t229.5 -84.5z" glyph-name="six" horiz-adv-x="1178" unicode="6"/><glyph d="M334 0h-211l597 1241l-675 1v164h899v-131z" glyph-name="seven" horiz-adv-x="981" unicode="7"/><glyph d="M627 -32q-102 0 -193 27t-162 79t-112.5 134.5t-41.5 186.5q0 128 70 225t187 136q-93 37 -144.5 120t-51.5 182q0 175 121.5 277.5t326.5 102.5t326.5 -102.5t121.5 -277.5q0 -100 -51 -182.5t-144 -119.5q117 -39 187 -136t70 -225q0 -104 -41.5 -186.5t-113 -134.5 t-162 -79t-193.5 -27zM627 818q124 0 196 64t72 167q0 106 -74.5 168t-193.5 62t-193 -62t-74 -169q0 -103 72.5 -166.5t194.5 -63.5zM627 127q56 0 110 16.5t101 48.5t76 86t29 121q0 126 -88 198t-228 72t-227.5 -71t-87.5 -199q0 -68 29 -122t75.5 -85.5t101 -48 t109.5 -16.5z" glyph-name="eight" horiz-adv-x="1255" unicode="8"/><glyph d="M591 0h-211l349 558q-88 -54 -205 -54q-127 0 -230 53t-165.5 159.5t-62.5 248.5q0 148 69.5 257t183.5 162.5t256 53.5q143 0 257 -53.5t183.5 -162.5t69.5 -257q0 -153 -79 -283zM575 655q140 0 231.5 85t91.5 220t-92 219.5t-231 84.5t-230.5 -84.5t-91.5 -219.5 q0 -136 91.5 -220.5t230.5 -84.5z" glyph-name="nine" horiz-adv-x="1178" unicode="9"/><glyph d="M285 845q-55 0 -90.5 35t-35.5 89t35.5 88.5t90.5 34.5t90 -34.5t35 -88.5t-35 -89t-90 -35zM285 -43q-55 0 -90.5 35t-35.5 89t35.5 88.5t90.5 34.5t90 -34.5t35 -88.5t-35 -89t-90 -35z" glyph-name="colon" horiz-adv-x="569" unicode=":"/><glyph d="M285 845q-55 0 -90.5 35t-35.5 89t35.5 88.5t90.5 34.5t90 -34.5t35 -88.5t-35 -89t-90 -35zM260 -239h-131l63 428h218z" glyph-name="semicolon" horiz-adv-x="569" unicode=";"/><glyph d="M285 845q-55 0 -90.5 35t-35.5 89t35.5 88.5t90.5 34.5t90 -34.5t35 -88.5t-35 -89t-90 -35zM260 -239h-131l63 428h218z" glyph-name="semicolon" horiz-adv-x="569" unicode=";"/><glyph d="M1157 363v-161l-1077 419v143l1077 418v-160l-859 -330z" glyph-name="less" unicode="&lt;"/><glyph d="M1095 822h-953v152h953v-152zM1095 411h-953v152h953v-152z" glyph-name="equal" unicode="="/><glyph d="M1157 621l-1077 -419v161l859 329l-859 330v160l1077 -418v-143z" glyph-name="greater" unicode=">"/><glyph d="M491 387h-169q0 82 36 158.5t87 136t102.5 115t87.5 118t36 124.5q0 99 -60.5 163.5t-176.5 64.5q-110 0 -177 -77t-72 -193l-179 8q9 185 123.5 309t304.5 124q198 0 307.5 -106.5t109.5 -284.5q0 -62 -20 -121.5t-51.5 -107t-70 -93t-77 -87t-70 -81t-51.5 -83.5 t-20 -87zM408 -32q-55 0 -90 33.5t-35 85.5t35 85.5t90 33.5t90.5 -33.5t35.5 -85.5t-35 -85.5t-91 -33.5z" glyph-name="question" horiz-adv-x="919" unicode="?"/><glyph d="M1077 -462q-213 0 -397 74t-312 201.5t-201 302t-73 372.5q0 197 72.5 372.5t199 302.5t307 201t386.5 74q198 0 366 -64.5t283 -175.5t179.5 -262.5t64.5 -324.5q0 -84 -11 -159.5t-40 -149.5t-73.5 -126.5t-117 -85.5t-165.5 -33q-201 0 -220 173q-54 -85 -141.5 -129 t-187.5 -44q-175 0 -285.5 121t-110.5 310t110.5 310t285.5 121q90 0 168 -36t128 -93v105h140v-557q0 -73 31.5 -116.5t88.5 -43.5q252 0 252 433q0 138 -53 263t-148 219t-236.5 149.5t-307.5 55.5q-175 0 -327.5 -62.5t-259.5 -170.5t-168.5 -258t-61.5 -319t63.5 -319 t173.5 -258t265.5 -171t332.5 -63q208 0 386.5 82t280.5 226l92 -105q-129 -160 -327 -251t-432 -91zM1018 189q117 0 197.5 80.5t80.5 218.5t-81 218.5t-197 80.5q-123 0 -200.5 -84t-77.5 -215t77.5 -215t200.5 -84z" glyph-name="at" horiz-adv-x="2048" unicode="@"/><glyph d="M213 0h-207l564 1406h206l564 -1406h-206l-139 350h-644zM673 1186l-272 -680h544z" glyph-name="A" horiz-adv-x="1346" unicode="A"/><glyph d="M665 0h-488v1406h453q213 0 329 -97t116 -282q0 -102 -52.5 -181t-145.5 -117q109 -36 173 -126t64 -202q0 -193 -120 -297t-329 -104zM367 1237v-430h245q123 0 198.5 61.5t75.5 156.5q0 212 -274 212h-245zM367 644v-474h278q131 0 205 62.5t74 174.5q0 98 -80 167.5 t-206 69.5h-271z" glyph-name="B" horiz-adv-x="1202" unicode="B"/><glyph d="M816 -32q-207 0 -371 93.5t-256.5 261.5t-92.5 380t92.5 380t256.5 261.5t371 93.5q228 0 404 -114.5t256 -309.5l-180 -73q-60 149 -188.5 234.5t-291.5 85.5q-228 0 -376.5 -156t-148.5 -402q0 -244 148.5 -399.5t376.5 -155.5q164 0 293.5 86.5t187.5 234.5l181 -72 q-77 -194 -255 -311.5t-407 -117.5z" glyph-name="C" horiz-adv-x="1530" unicode="C"/><glyph d="M691 0h-514v1406h514q315 0 511 -194.5t196 -506.5q0 -206 -88.5 -366.5t-249.5 -249.5t-369 -89zM366 1237v-1067h318q228 0 373 150t145 385t-144.5 383.5t-373.5 148.5h-318z" glyph-name="D" horiz-adv-x="1494" unicode="D"/><glyph d="M965 0h-788v1406h788v-170h-598v-423h561v-169h-561v-474h598v-170z" glyph-name="E" horiz-adv-x="1044" unicode="E"/><glyph d="M367 0h-190v1406h788v-169h-598v-424h561v-169h-561v-644z" glyph-name="F" horiz-adv-x="1020" unicode="F"/><glyph d="M816 -32q-207 0 -371.5 93.5t-256.5 261.5t-92 380t92.5 380t256.5 261.5t371 93.5q230 0 406 -114.5t253 -310.5l-186 -52q-61 140 -187 220t-286 80q-230 0 -377.5 -155.5t-147.5 -402.5t147.5 -401t378.5 -154q211 0 346 113t142 283h-498v155h709 q0 -348 -189.5 -539.5t-510.5 -191.5z" glyph-name="G" horiz-adv-x="1589" unicode="G"/><glyph d="M366 0h-189v1406h189v-592h822v592h190v-1406h-190v644h-822v-644z" glyph-name="H" horiz-adv-x="1555" unicode="H"/><glyph d="M366 0h-189v1406h189v-1406z" glyph-name="I" horiz-adv-x="543" unicode="I"/><glyph d="M-75 -462v170q143 0 223 73.5t80 227.5v1397h189v-1409q0 -459 -492 -459z" glyph-name="J" horiz-adv-x="593" unicode="J"/><glyph d="M366 0h-189v1406h189v-605l521 605h237l-570 -655l670 -751h-256l-602 675v-675z" glyph-name="K" horiz-adv-x="1176" unicode="K"/><glyph d="M963 0h-786v1406h189v-1236h597v-170z" glyph-name="L" horiz-adv-x="955" unicode="L"/><glyph d="M284 0h-190l179 1406h200l475 -1136l476 1136h200l179 -1406h-189l-135 1094l-465 -1094h-130l-466 1094z" glyph-name="M" horiz-adv-x="1897" unicode="M"/><glyph d="M365 0h-188v1406h188l872 -1103v1103h190v-1406h-190l-872 1104v-1104z" glyph-name="N" horiz-adv-x="1604" unicode="N"/><glyph d="M817 -32q-207 0 -371.5 93.5t-257 261.5t-92.5 380t92.5 380t257 261.5t371.5 93.5t371 -93.5t256.5 -261.5t92.5 -380t-92.5 -380t-256.5 -261.5t-371 -93.5zM817 149q229 0 377 155.5t148 398.5t-148 399t-377 156q-230 0 -378 -156t-148 -399t148 -398.5t378 -155.5z " glyph-name="O" horiz-adv-x="1633" unicode="O"/><glyph d="M367 0h-190v1406h437q222 0 341 -103t119 -305q0 -104 -36 -184t-99.5 -128.5t-145.5 -73t-179 -24.5h-247v-588zM367 1237v-480h244q120 0 197 61t77 180q0 239 -274 239h-244z" glyph-name="P" horiz-adv-x="1144" unicode="P"/><glyph d="M1675 -285l-71 -156l-789 409q-207 0 -371 93.5t-256 261.5t-92 380t92.5 380t256.5 261.5t371 93.5t371.5 -93.5t256.5 -261.5t92 -380q0 -249 -129.5 -429.5t-342.5 -238.5zM816 145q230 0 377.5 157t147.5 401t-147.5 401t-377.5 157q-229 0 -377 -157t-148 -401 t148 -401t377 -157z" glyph-name="Q" horiz-adv-x="1633" unicode="Q"/><glyph d="M366 0h-189v1406h436q217 0 339 -100.5t122 -306.5q0 -146 -75.5 -241.5t-198.5 -138.5l495 -619h-242l-468 588h-219v-588zM366 1236v-479h244q121 0 198 61t77 181q0 237 -275 237h-244z" glyph-name="R" horiz-adv-x="1278" unicode="R"/><glyph d="M545 -23q-198 0 -325 102.5t-153 279.5l172 32q18 -118 106 -184.5t199 -66.5q119 0 188.5 62t69.5 154q-1 80 -38 137.5t-126 100.5l-257 132q-123 62 -188 142t-65 204q0 152 112 254.5t307 102.5q173 0 281 -92.5t127 -247.5l-172 -32q-16 97 -78 153t-158 56 q-108 0 -168 -54t-60 -136q0 -66 37 -108t127 -87l252 -130q131 -67 194 -159t63 -232q0 -169 -118.5 -276t-328.5 -107z" glyph-name="S" horiz-adv-x="1075" unicode="S"/><glyph d="M664 0h-189v1237h-485v169h1159v-169h-485v-1237z" glyph-name="T" horiz-adv-x="1139" unicode="T"/><glyph d="M758 -32q-272 0 -430.5 151t-158.5 390v897h189v-899q0 -162 109 -265.5t291 -103.5t290.5 103.5t108.5 265.5v899h190v-897q0 -239 -159 -390t-430 -151z" glyph-name="U" horiz-adv-x="1516" unicode="U"/><glyph d="M764 0h-206l-564 1406h207l460 -1181l460 1181h207z" glyph-name="V" horiz-adv-x="1322" unicode="V"/><glyph d="M736 0h-215l-520 1406h204l436 -1190l290 780l-139 410h199l404 -1179l433 1179h204l-520 -1406h-215l-280 746z" glyph-name="W" horiz-adv-x="2033" unicode="W"/><glyph d="M630 576l-392 -576l-225 1l505 740l-452 666h222l342 -501l341 501h222l-451 -666l504 -740h-225z" glyph-name="X" horiz-adv-x="1258" unicode="X"/><glyph d="M655 0h-190v577l-491 829h222l364 -643l364 643h223l-492 -829v-577z" glyph-name="Y" horiz-adv-x="1121" unicode="Y"/><glyph d="M1024 0h-942v112l665 1125h-629v169h871v-111l-664 -1125h699v-170z" glyph-name="Z" horiz-adv-x="1055" unicode="Z"/><glyph d="M531 -282h-328v1970h328v-135h-168v-1700h168v-135z" glyph-name="bracketleft" horiz-adv-x="601" unicode="["/><glyph d="M780 -58l-99 -47l-732 1570l99 46z" glyph-name="backslash" horiz-adv-x="729" unicode="\"/><glyph d="M398 -282h-328v135h168v1700h-168v135h328v-1970z" glyph-name="bracketright" horiz-adv-x="601" unicode="]"/><glyph d="M290 591h-182l429 815h164l429 -815h-182l-330 640z" glyph-name="asciicircum" unicode="^"/><glyph d="M1318 -462h-1398v103h1398v-103z" glyph-name="underscore" unicode="_"/><glyph d="M717 1249l-94 -49l-304 299l117 90z" glyph-name="grave" horiz-adv-x="1024" unicode="`"/><glyph d="M382 -32q-141 0 -217.5 69.5t-76.5 187.5q0 109 71 193.5t198 120.5l367 101v78q0 105 -56.5 164.5t-160.5 59.5q-83 0 -145 -60t-75 -163l-170 25q24 163 133 260.5t260 97.5q197 0 297 -100.5t100 -283.5v-718h-165v147h-5q-61 -85 -154.5 -132t-200.5 -47zM433 137 q110 0 200.5 82t90.5 174v107l-294 -78q-78 -20 -119 -63t-41 -102q0 -55 41.5 -87.5t121.5 -32.5z" glyph-name="a" horiz-adv-x="1068" unicode="a"/><glyph d="M740 -32q-130 0 -231 51t-162 128h-5v-147h-165v1522h179v-588q63 73 159.5 120.5t224.5 47.5q153 0 278 -72t197.5 -202t72.5 -293t-72.5 -293t-197.5 -202t-278 -72zM730 134q164 0 271.5 113t107.5 288q0 176 -107.5 289t-271.5 113t-271.5 -113t-107.5 -289 q0 -175 107.5 -288t271.5 -113z" glyph-name="b" horiz-adv-x="1372" unicode="b"/><glyph d="M646 -32q-243 0 -403 159.5t-160 407.5t160 407.5t403 159.5q175 0 313 -89t198 -238l-166 -69q-45 111 -137.5 171t-207.5 60q-163 0 -273.5 -113t-110.5 -289t110.5 -289t273.5 -113q115 0 207.5 60t137.5 171l166 -69q-60 -149 -198 -238t-313 -89z" glyph-name="c" horiz-adv-x="1204" unicode="c"/><glyph d="M632 -32q-153 0 -278 72t-197.5 202t-72.5 293t72.5 293t197.5 202t278 72q128 0 224.5 -47.5t159.5 -120.5v588h179v-1522h-165v147h-5q-61 -77 -162 -128t-231 -51zM642 134q164 0 271.5 113t107.5 288q0 176 -107.5 289t-271.5 113t-271.5 -113t-107.5 -289 q0 -175 107.5 -288t271.5 -113z" glyph-name="d" horiz-adv-x="1372" unicode="d"/><glyph d="M646 -32q-156 0 -284 70t-203.5 200.5t-75.5 296.5q0 125 42.5 231.5t117 180t176.5 114.5t218 41q224 0 368.5 -144.5t152.5 -399.5q0 -58 -4 -79h-886q7 -157 115 -257t264 -100q115 0 204 56.5t141 154.5l144 -85q-65 -130 -197.5 -205t-292.5 -75zM270 617h706 q-10 150 -102.5 242.5t-236.5 92.5q-146 0 -249 -93t-118 -242z" glyph-name="e" horiz-adv-x="1236" unicode="e"/><glyph d="M439 0h-179v919h-202v152h202v153q0 143 86 224.5t239 81.5q65 0 143 -9v-148h-124q-73 0 -119 -43.5t-46 -115.5v-143h289v-152h-289v-919z" glyph-name="f" horiz-adv-x="770" unicode="f"/><glyph d="M644 -462q-181 0 -324 72.5t-199 183.5l168 77q37 -80 135.5 -122t218.5 -42q160 0 266.5 86.5t106.5 203.5v139q-63 -73 -159.5 -120.5t-224.5 -47.5q-153 0 -278 72t-197.5 202t-72.5 293t72.5 293t197.5 202t278 72q130 0 231 -51t162 -128h5v147h165v-1077 q0 -196 -152 -325.5t-399 -129.5zM642 134q164 0 271.5 113t107.5 288q0 176 -107.5 289t-271.5 113t-271.5 -113t-107.5 -289q0 -175 107.5 -288t271.5 -113z" glyph-name="g" horiz-adv-x="1372" unicode="g"/><glyph d="M356 0h-179v1522h179v-586q49 75 132 120.5t186 45.5q176 0 290 -120t114 -302v-680h-179v684q0 111 -67.5 189.5t-182.5 78.5q-131 0 -212 -92.5t-81 -235.5v-624z" glyph-name="h" horiz-adv-x="1239" unicode="h"/><glyph d="M266 1263q-55 0 -90 32.5t-35 86.5t35 87t90 33q56 0 91 -33t35 -87t-35 -86.5t-91 -32.5zM356 0h-179v1071h179v-1071z" glyph-name="i" horiz-adv-x="533" unicode="i"/><glyph d="M266 1263q-55 0 -90.5 33t-35.5 86q0 54 35.5 87t90.5 33t90.5 -33t35.5 -87q0 -53 -35.5 -86t-90.5 -33zM-4 -462v155q80 0 130 49t50 122v1207h180v-1233q-1 -152 -94.5 -226t-265.5 -74z" glyph-name="j" horiz-adv-x="533" unicode="j"/><glyph d="M356 0h-179v1522h179v-881l402 430h211l-461 -501l519 -570h-222l-449 482v-482z" glyph-name="k" horiz-adv-x="1014" unicode="k"/><glyph d="M356 0h-179v1522h179v-1522z" glyph-name="l" horiz-adv-x="532" unicode="l"/><glyph d="M356 0h-179v1071h165v-135h4q48 74 135.5 120t191.5 46q108 0 191.5 -48.5t136.5 -135.5q53 84 150.5 134t218.5 50q176 0 290.5 -120t114.5 -302v-680h-180v684q0 105 -62 180t-175 75q-130 0 -211 -90t-81 -226v-623h-180v684q0 105 -62 180t-176 75q-130 0 -211 -90 t-81 -226v-623z" glyph-name="m" horiz-adv-x="1936" unicode="m"/><glyph d="M357 0h-180v1071h166v-135h4q49 75 130 120.5t184 45.5q177 0 296.5 -121t119.5 -301v-680h-179v684q0 104 -67.5 179.5t-181.5 75.5q-131 0 -211.5 -90t-80.5 -226v-623z" glyph-name="n" unicode="n"/><glyph d="M652 -32q-160 0 -290 71.5t-204.5 201.5t-74.5 294t74.5 294t204.5 201.5t290 71.5t289.5 -71.5t204 -201.5t74.5 -294t-74.5 -294t-204 -201.5t-289.5 -71.5zM652 133q165 0 277 113.5t112 288.5t-112 288.5t-277 113.5t-277 -113.5t-112 -288.5t112 -288.5t277 -113.5z " glyph-name="o" horiz-adv-x="1304" unicode="o"/><glyph d="M356 -430h-179v1501h165v-148h5q61 77 162 128t231 51q153 0 278 -72t197.5 -202t72.5 -293t-72.5 -293t-197.5 -202t-278 -72q-128 0 -224.5 47.5t-159.5 120.5v-566zM730 134q164 0 271.5 113t107.5 288q0 176 -107.5 289t-271.5 113t-271.5 -113t-107.5 -289 q0 -175 107.5 -288t271.5 -113z" glyph-name="p" horiz-adv-x="1372" unicode="p"/><glyph d="M1195 -430h-179v566q-63 -73 -159.5 -120.5t-224.5 -47.5q-153 0 -278 72t-197.5 202t-72.5 293t72.5 293t197.5 202t278 72q130 0 231.5 -51t161.5 -128h5v148h165v-1501zM642 134q164 0 271.5 113t107.5 288q0 176 -107.5 289t-271.5 113t-271.5 -113t-107.5 -289 q0 -175 107.5 -288t271.5 -113z" glyph-name="q" horiz-adv-x="1372" unicode="q"/><glyph d="M356 0h-179v1074h165l1 -147h4q47 73 127.5 115t185.5 42q51 0 94 -10v-152h-106q-131 0 -211.5 -89.5t-80.5 -228.5v-604z" glyph-name="r" horiz-adv-x="775" unicode="r"/><glyph d="M447 -26q-165 0 -261.5 81t-112.5 221l161 17q13 -77 70 -125t141 -48q96 0 146 43t50 110q-1 63 -29 100.5t-101 69.5l-189 87q-114 48 -167.5 113.5t-53.5 160.5q0 128 91 210.5t252 82.5q152 0 246.5 -74.5t109.5 -195.5l-161 -16q-8 63 -61.5 103.5t-128.5 40.5 q-82 0 -127.5 -37.5t-45.5 -95.5q0 -48 24.5 -78t93.5 -61l188 -87q119 -50 176 -123.5t57 -186.5q0 -138 -96.5 -225t-271.5 -87z" glyph-name="s" horiz-adv-x="880" unicode="s"/><glyph d="M568 -9q-150 0 -237.5 80.5t-87.5 225.5v622h-202v152h206v285l175 50v-335h289v-152h-289v-612q0 -72 46 -115.5t119 -43.5h124v-148q-71 -9 -143 -9z" glyph-name="t" horiz-adv-x="787" unicode="t"/><glyph d="M578 -32q-177 0 -297 121t-120 301v680h179v-684q0 -104 67.5 -179.5t182.5 -75.5q130 0 211 90t81 226v623h179v-1071h-165v135h-5q-48 -75 -129 -120.5t-184 -45.5z" glyph-name="u" unicode="u"/><glyph d="M624 0h-200l-399 1071h197l302 -857l302 857h197z" glyph-name="v" horiz-adv-x="1049" unicode="v"/><glyph d="M595 0h-171l-399 1071h193l302 -860l220 572l-96 288h173l301 -857l302 857h193l-399 -1071h-171l-224 586z" glyph-name="w" horiz-adv-x="1639" unicode="w"/><glyph d="M217 0h-218l438 582l-369 489h219l259 -345l260 345h218l-369 -489l439 -582h-218l-330 437z" glyph-name="x" horiz-adv-x="1093" unicode="x"/><glyph d="M65 -462v155q263 0 360 250l33 84l-433 1044h203l318 -819l308 819h199l-461 -1181q-73 -187 -198.5 -269.5t-328.5 -82.5z" glyph-name="y" horiz-adv-x="1078" unicode="y"/><glyph d="M959 0h-895v94l614 826h-584v151h837v-92l-613 -829h641v-150z" glyph-name="z" horiz-adv-x="998" unicode="z"/><glyph d="M521 -282h-46q-105 0 -172.5 58t-67.5 160v572q0 72 -35 100.5t-98 28.5h-22v132h22q64 1 98.5 28.5t34.5 100.5v571q0 103 67.5 161t172.5 58h46v-135h-37q-89 0 -89 -93v-565q0 -68 -31.5 -122t-86.5 -70q54 -16 86 -70.5t32 -121.5v-565q0 -93 89 -93h37v-135z" glyph-name="braceleft" horiz-adv-x="601" unicode="{"/><glyph d="M313 -462h-114v2016h114v-2016z" glyph-name="bar" horiz-adv-x="512" unicode="|"/><glyph d="M126 -282h-46v135h38q88 0 88 93v565q0 67 32 121.5t86 70.5q-54 16 -86 70.5t-32 121.5v565q0 93 -88 93h-38v135h46q106 0 173 -58t67 -161v-571q0 -72 35 -100t99 -29h21v-132h-22q-63 0 -98 -28.5t-35 -100.5v-572q0 -102 -67 -160t-173 -58z" glyph-name="braceright" horiz-adv-x="601" unicode="}"/><glyph d="M789 573q-49 0 -98 17.5t-82 38.5t-76.5 38.5t-81.5 17.5q-45 0 -85 -25.5t-61 -64.5l-88 96q83 142 232 142q48 0 97 -17.5t82.5 -38.5t76.5 -38.5t82 -17.5q45 0 85 25.5t61 64.5l88 -96q-82 -142 -232 -142z" glyph-name="asciitilde" unicode="~"/><glyph d="M285 864q-55 0 -90.5 33.5t-35.5 85.5t35 85.5t91 33.5q55 0 90 -33.5t35 -85.5t-35 -85.5t-90 -33.5zM375 -368h-181l17 1051h147z" glyph-name="exclamdown" horiz-adv-x="569" unicode="¡"/><glyph d="M698 0h-112v146q-227 22 -365.5 176.5t-138.5 381.5t139.5 382t364.5 175v145h112v-143q155 -13 273 -100t175 -224l-150 -68q-46 103 -140 166.5t-210 63.5q-169 0 -277 -111.5t-108 -285.5q0 -175 108 -286.5t277 -111.5q118 0 212 64.5t139 167.5l157 -70 q-56 -136 -175.5 -222t-280.5 -102v-144z" glyph-name="cent" unicode="¢"/><glyph d="M1169 0h-1084v154h171v424h-171v110h171v347q0 177 112.5 290t292.5 113t289 -113t109 -290h-165q0 101 -67 173.5t-166 72.5t-166.5 -72.5t-67.5 -173.5l-1 -347h469v-110h-469l-2 -424h745v-154z" glyph-name="sterling" unicode="£"/><glyph d="M392 395l-167 -168l-82 82l167 167q-72 95 -72 227t72 227l-167 167l82 81l167 -167q96 74 227 74q129 0 227 -74l167 167l81 -81l-166 -167q71 -96 71 -227t-71 -227l166 -167l-81 -82l-167 168q-99 -75 -227 -75q-130 0 -227 75zM619 458q104 0 171 68.5t67 176.5 q0 107 -67 176t-171 69t-171 -69t-67 -176q0 -108 67 -176.5t171 -68.5z" glyph-name="currency" unicode="¤"/><glyph d="M704 0h-170v366h-406v109l406 1v210l-25 40h-381v110h324l-339 570h203l303 -536l303 536h203l-339 -570h324v-110h-381l-25 -40v-211h406v-109h-406v-366z" glyph-name="yen" unicode="¥"/><glyph d="M313 675h-114v879h114v-879zM313 -462h-114v878h114v-878z" glyph-name="brokenbar" horiz-adv-x="512" unicode="¦"/><glyph d="M622 -462q-202 0 -327.5 105.5t-138.5 310.5h173q8 -121 89.5 -189t203.5 -68q120 0 196.5 72.5t76.5 169.5q0 62 -26.5 108.5t-71 76t-102.5 53t-122 44t-128 44t-122 59t-102.5 82.5t-71 120.5t-26.5 167.5q0 148 84 256q-49 78 -49 203q0 169 126 285t331 116 q198 0 326 -108t139 -308h-173q-7 121 -88.5 189t-203.5 68q-120 0 -196.5 -73t-76.5 -169q0 -62 26.5 -109t71 -76.5t102.5 -53t122 -44t128 -44t122 -59t102.5 -82.5t71 -120.5t26.5 -167.5q0 -148 -84 -256q49 -78 49 -202q0 -170 -126 -285.5t-331 -115.5zM875 244 q50 66 50 153q0 68 -22 119.5t-60.5 84t-86.5 56.5t-103 43.5t-106 37.5t-101.5 46t-83.5 63q-50 -62 -50 -153q0 -69 22 -120.5t60.5 -84t86.5 -56.5t103 -43t106 -37.5t101.5 -46t83.5 -62.5z" glyph-name="section" unicode="§"/><glyph d="M320 1269q-49 0 -80 31t-31 80t31 80t80 31t80.5 -31t31.5 -80t-31.5 -80t-80.5 -31zM703 1269q-49 0 -80 31t-31 80t31 80t80 31t80.5 -31t31.5 -80t-31.5 -80t-80.5 -31z" glyph-name="dieresis" horiz-adv-x="1024" unicode="¨"/><glyph d="M827 -32q-200 0 -369 98.5t-267.5 267.5t-98.5 369t98.5 369t267.5 267.5t369 98.5t369 -98.5t267.5 -267.5t98.5 -369t-98.5 -369t-267.5 -267.5t-369 -98.5zM827 74q128 0 244.5 49.5t201 134t134 201t49.5 244.5q0 171 -84 315.5t-229 229t-316 84.5 q-128 0 -244.5 -50t-200.5 -134t-134 -200.5t-50 -244.5q0 -171 84.5 -316t229 -229t315.5 -84zM839 327q-161 0 -265 105.5t-104 270.5t104 270.5t265 105.5q118 0 209 -59t130 -160l-98 -42q-32 73 -96 118t-145 45q-114 0 -188.5 -77.5t-74.5 -200.5t74.5 -200.5 t188.5 -77.5q82 0 146 45.5t95 119.5l99 -41q-39 -102 -130 -162t-210 -60z" glyph-name="copyright" horiz-adv-x="1671" unicode="©"/><glyph d="M258 703q-93 0 -143.5 46t-50.5 123q0 142 177 193l226 64v55q0 59 -32 92.5t-90 33.5q-50 0 -86 -35.5t-40 -90.5h-139q7 112 82 183t185 71q133 0 199.5 -66.5t66.5 -187.5v-460h-135v94q-30 -51 -92 -83t-128 -32zM295 818q65 0 112.5 36t59.5 91v95l-173 -47 q-92 -24 -92 -95q0 -37 23.5 -58.5t69.5 -21.5z" glyph-name="ordfeminine" horiz-adv-x="739" unicode="ª"/><glyph d="M568 88h-166l-265 458l265 457h166l-264 -457zM991 88h-166l-265 458l265 457h166l-263 -457z" glyph-name="guillemotleft" horiz-adv-x="1175" unicode="«"/><glyph d="M1206 480h-158v293h-1041v153h1199v-446z" glyph-name="logicalnot" unicode="¬"/><glyph d="M845 -32q-200 0 -369 98.5t-267.5 267.5t-98.5 369t98.5 369t267.5 267.5t369 98.5t369 -98.5t267.5 -267.5t98.5 -369t-98.5 -369t-267.5 -267.5t-369 -98.5zM845 74q128 0 244.5 49.5t201 134t134 201t49.5 244.5q0 171 -84 315.5t-229 229t-316 84.5 q-128 0 -244.5 -50t-200.5 -134t-134 -200.5t-50 -244.5q0 -171 84.5 -316t229 -229t315.5 -84zM726 349h-98v708h221q112 0 172 -51.5t60 -153.5q0 -71 -39.5 -114t-102.5 -59l254 -330h-123l-228 297h-116v-297zM726 968v-233h120q60 0 98 29t38 88q0 116 -136 116h-120z " glyph-name="registered" horiz-adv-x="1689" unicode="®"/><glyph d="M1032 1624h-1039v113h1039v-113z" glyph-name="macron" horiz-adv-x="1024" unicode="¯"/><glyph d="M357 993q-118 0 -199 81.5t-81 199.5t81 199t199 81t199 -81t81 -199q0 -119 -81 -200t-199 -81zM357 1112q66 0 113 47.5t47 114.5t-47 114.5t-113 47.5t-113 -47.5t-47 -114.5t47 -114.5t113 -47.5z" glyph-name="degree" horiz-adv-x="714" unicode="°"/><glyph d="M698 296h-158v389h-397v152h397v398h158v-398h397v-152h-397v-389zM1095 0h-952v116h952v-116z" glyph-name="plusminus" unicode="±"/><glyph d="M602 1054h-544v69l309 250q32 27 51.5 46.5t37 50.5t17.5 62q0 50 -38.5 86t-101.5 36q-62 0 -101 -36.5t-39 -86.5v-33h-135v33q0 108 78 175t197 67q120 0 197.5 -65.5t77.5 -176.5q0 -70 -34.5 -121t-98.5 -101l-175 -143h302v-112z" glyph-name="uni00B2" horiz-adv-x="672" unicode="²"/><glyph d="M333 1039q-104 0 -179.5 49t-90.5 135l134 16q10 -40 46.5 -66t89.5 -26q60 0 100.5 34t40.5 88t-33 88.5t-95 34.5h-110v69l158 185h-302v111h465v-84l-161 -188h19q81 0 137 -57.5t56 -154.5q0 -105 -78 -169.5t-197 -64.5z" glyph-name="uni00B3" horiz-adv-x="672" unicode="³"/><glyph d="M704 1499l-304 -299l-94 49l281 340z" glyph-name="acute" horiz-adv-x="1024" unicode="´"/><glyph d="M341 -430h-164v1500h180v-650q0 -123 66 -203.5t185 -80.5q129 0 206.5 91.5t77.5 228.5v614h180v-1070h-163v187q-81 -219 -306 -219q-176 0 -262 162v-560z" glyph-name="uni00B5" horiz-adv-x="1249" unicode="µ"/><glyph d="M341 -430h-164v1500h180v-650q0 -123 66 -203.5t185 -80.5q129 0 206.5 91.5t77.5 228.5v614h180v-1070h-163v187q-81 -219 -306 -219q-176 0 -262 162v-560z" glyph-name="uni00B5" horiz-adv-x="1249" unicode="μ"/><glyph d="M555 -430h-113v1249q-146 0 -248.5 102.5t-102.5 248.5t103 249t248 103h510v-1952h-113v1844h-284v-1844z" glyph-name="paragraph" horiz-adv-x="1097" unicode="¶"/><glyph d="M284 423q-55 0 -90 34.5t-35 88.5t35 88.5t90 34.5t90.5 -34.5t35.5 -88.5t-35.5 -88.5t-90.5 -34.5z" glyph-name="periodcentered" horiz-adv-x="569" unicode="·"/><glyph d="M284 423q-55 0 -90 34.5t-35 88.5t35 88.5t90 34.5t90.5 -34.5t35.5 -88.5t-35.5 -88.5t-90.5 -34.5z" glyph-name="periodcentered" horiz-adv-x="569" unicode="∙"/><glyph d="M479 -462q-118 0 -177 39l39 94q48 -32 115 -32q56 0 90.5 29t34.5 75q0 112 -163 112l61 145h102l-35 -84q84 -9 130 -55.5t46 -124.5q0 -90 -69.5 -144t-173.5 -54z" glyph-name="cedilla" horiz-adv-x="1024" unicode="¸"/><glyph d="M444 1054h-131v589h-186v101l203 13h114v-703z" glyph-name="uni00B9" horiz-adv-x="672" unicode="¹"/><glyph d="M409 703q-158 0 -259 103t-101 265q0 161 101 264t259 103t259 -103t101 -264q0 -162 -101 -265t-259 -103zM409 839q95 0 156 65t61 167q0 101 -61 166t-156 65t-156 -65t-61 -166q0 -102 61 -167t156 -65z" glyph-name="ordmasculine" horiz-adv-x="871" unicode="º"/><glyph d="M350 88h-166l263 458l-263 457h166l265 -457zM773 88h-165l263 458l-263 457h165l266 -457z" glyph-name="guillemotright" horiz-adv-x="1175" unicode="»"/><glyph d="M1260 1375l-893 -1423l-90 58l892 1422zM444 718h-131v589h-186v101l203 13h114v-703zM1420 1h-131v145h-369v87l230 470h148l-220 -445h211v174h131v-174h61v-112h-61v-145z" glyph-name="onequarter" horiz-adv-x="1536" unicode="¼"/><glyph d="M1260 1375l-893 -1423l-90 58l892 1422zM444 718h-131v589h-186v101l203 13h114v-703zM1466 0h-544v69l309 250q32 27 51.5 46.5t37 50.5t17.5 62q0 50 -38.5 86t-101.5 36q-62 0 -101 -36.5t-39 -86.5v-33h-135v33q0 108 78 175t197 67q120 0 197.5 -65.5t77.5 -176.5 q0 -70 -34.5 -121t-98.5 -101l-175 -143h302v-112z" glyph-name="onehalf" horiz-adv-x="1536" unicode="½"/><glyph d="M1260 1375l-893 -1423l-90 58l892 1422zM333 704q-104 0 -179.5 49t-90.5 135l134 16q10 -40 46.5 -66t89.5 -26q60 0 100.5 34t40.5 88t-33 88.5t-95 34.5h-110v69l158 185h-302v111h465v-84l-161 -188h19q81 0 137 -57.5t56 -154.5q0 -105 -78 -169.5t-197 -64.5z M1420 1h-131v145h-369v87l230 470h148l-220 -445h211v174h131v-174h61v-112h-61v-145z" glyph-name="threequarters" horiz-adv-x="1536" unicode="¾"/><glyph d="M512 864q-55 0 -90.5 33.5t-35.5 85.5t35.5 85.5t90.5 33.5t90.5 -33.5t35.5 -85.5t-35.5 -85.5t-90.5 -33.5zM486 -368q-198 0 -307 106.5t-109 284.5q0 62 20 121.5t51.5 107.5t70 93t76.5 86.5t69.5 81t51.5 83.5t20 87h170q0 -82 -36 -158.5t-87.5 -136t-103 -115 t-87.5 -118t-36 -124.5q0 -99 60.5 -163.5t176.5 -64.5q111 0 177.5 77.5t71.5 192.5l179 -8q-9 -185 -123.5 -309t-304.5 -124z" glyph-name="questiondown" horiz-adv-x="919" unicode="¿"/><glyph d="M805 1575l-94 -49l-304 299l117 90zM213 0h-207l564 1406h206l564 -1406h-206l-139 350h-644zM673 1186l-272 -680h544z" glyph-name="Agrave" horiz-adv-x="1346" unicode="À"/><glyph d="M938 1825l-304 -299l-94 49l281 340zM213 0h-207l564 1406h206l564 -1406h-206l-139 350h-644zM673 1186l-272 -680h544z" glyph-name="Aacute" horiz-adv-x="1346" unicode="Á"/><glyph d="M673 1755l-222 -229l-94 49l238 296h156l238 -296l-94 -49zM213 0h-207l564 1406h206l564 -1406h-206l-139 350h-644zM673 1186l-272 -680h544z" glyph-name="Acircumflex" horiz-adv-x="1346" unicode="Â"/><glyph d="M809 1584q-41 0 -80 17t-64.5 37t-58.5 37t-64 17q-36 0 -66.5 -24t-47.5 -61l-85 74q27 66 78.5 106t114.5 40q41 0 80 -17t64.5 -37t59 -37t64.5 -17q35 0 66 24t47 61l86 -74q-28 -67 -79.5 -106.5t-114.5 -39.5zM213 0h-207l564 1406h206l564 -1406h-206l-139 350 h-644zM673 1186l-272 -680h544z" glyph-name="Atilde" horiz-adv-x="1346" unicode="Ã"/><glyph d="M481 1616q-49 0 -80 31t-31 80t31 80t80 31t80.5 -31t31.5 -80t-31.5 -80t-80.5 -31zM864 1616q-49 0 -80 31t-31 80t31 80t80 31t80.5 -31t31.5 -80t-31.5 -80t-80.5 -31zM213 0h-207l564 1406h206l564 -1406h-206l-139 350h-644zM673 1186l-272 -680h544z" glyph-name="Adieresis" horiz-adv-x="1346" unicode="Ä"/><glyph d="M673 1505q-85 0 -144 58t-59 143t59 143t144 58t143.5 -58t58.5 -143t-58.5 -143t-143.5 -58zM673 1589q48 0 81.5 34t33.5 83t-33.5 83t-81.5 34t-81.5 -34t-33.5 -83t33.5 -83t81.5 -34zM213 0h-207l564 1406h206l564 -1406h-206l-139 350h-644zM673 1186l-272 -680 h544z" glyph-name="Aring" horiz-adv-x="1346" unicode="Å"/><glyph d="M156 0h-207l772 1406h868v-170h-598v-423h561v-169h-561v-474h598v-170h-787v349h-445zM802 1182l-380 -677h380v677z" glyph-name="AE" horiz-adv-x="1668" unicode="Æ"/><glyph d="M763 -462q-121 0 -178 39l40 94q48 -32 114 -32q55 0 90.5 28t35.5 76q0 112 -163 112l49 115q-293 22 -474 226.5t-181 506.5q0 215 93 383t257 260t370 92q235 0 407 -115.5t253 -308.5l-180 -73q-63 154 -191 237t-289 83q-231 0 -378 -156t-147 -402 q0 -245 148.5 -400t376.5 -155q164 0 292 85.5t189 235.5l181 -72q-74 -187 -241.5 -303t-384.5 -125l-23 -53q176 -20 176 -180q0 -92 -69 -145t-173 -53z" glyph-name="Ccedilla" horiz-adv-x="1530" unicode="Ç"/><glyph d="M702 1575l-94 -49l-304 299l117 90zM965 0h-788v1406h788v-170h-598v-423h561v-169h-561v-474h598v-170z" glyph-name="Egrave" horiz-adv-x="1044" unicode="È"/><glyph d="M835 1825l-304 -299l-94 49l281 340zM965 0h-788v1406h788v-170h-598v-423h561v-169h-561v-474h598v-170z" glyph-name="Eacute" horiz-adv-x="1044" unicode="É"/><glyph d="M570 1755l-222 -229l-94 49l238 296h156l238 -296l-94 -49zM965 0h-788v1406h788v-170h-598v-423h561v-169h-561v-474h598v-170z" glyph-name="Ecircumflex" horiz-adv-x="1044" unicode="Ê"/><glyph d="M378 1616q-49 0 -80 31t-31 80t31 80t80 31t80.5 -31t31.5 -80t-31.5 -80t-80.5 -31zM761 1616q-49 0 -80 31t-31 80t31 80t80 31t80.5 -31t31.5 -80t-31.5 -80t-80.5 -31zM965 0h-788v1406h788v-170h-598v-423h561v-169h-561v-474h598v-170z" glyph-name="Edieresis" horiz-adv-x="1044" unicode="Ë"/><glyph d="M405 1575l-94 -49l-304 299l117 90zM367 0h-189v1406h189v-1406z" glyph-name="Igrave" horiz-adv-x="543" unicode="Ì"/><glyph d="M536 1825l-304 -299l-93 49l281 340zM366 0h-189v1406h189v-1406z" glyph-name="Iacute" horiz-adv-x="543" unicode="Í"/><glyph d="M272 1755l-221 -229l-95 49l238 296h156l239 -296l-94 -49zM367 0h-189v1406h189v-1406z" glyph-name="Icircumflex" horiz-adv-x="543" unicode="Î"/><glyph d="M108 1616q-49 0 -80 31t-31 80t31 80t80 31t80.5 -31t31.5 -80t-31.5 -80t-80.5 -31zM437 1616q-49 0 -80.5 31t-31.5 80t31.5 80t80.5 31t80 -31t31 -80t-31 -80t-80 -31zM367 0h-189v1406h189v-1406z" glyph-name="Idieresis" horiz-adv-x="543" unicode="Ï"/><glyph d="M692 0h-514v651h-155v104h155v652h514q208 0 369 -89t249 -249t88 -366q0 -313 -195.5 -508t-510.5 -195zM367 651v-482h318q229 0 374 149.5t145 384.5t-145 385t-374 150h-318v-483h343v-104h-343z" glyph-name="Eth" horiz-adv-x="1494" unicode="Ð"/><glyph d="M938 1584q-41 0 -80 17t-64.5 37t-58.5 37t-64 17q-36 0 -66.5 -24t-47.5 -61l-85 74q27 66 78.5 106t114.5 40q41 0 80 -17t64.5 -37t59 -37t64.5 -17q35 0 66 24t47 61l86 -74q-28 -67 -79.5 -106.5t-114.5 -39.5zM365 0h-188v1406h188l872 -1103v1103h190v-1406h-190 l-872 1104v-1104z" glyph-name="Ntilde" horiz-adv-x="1604" unicode="Ñ"/><glyph d="M949 1575l-94 -49l-304 299l117 90zM817 -32q-207 0 -371.5 93.5t-257 261.5t-92.5 380t92.5 380t257 261.5t371.5 93.5t371 -93.5t256.5 -261.5t92.5 -380t-92.5 -380t-256.5 -261.5t-371 -93.5zM817 149q229 0 377 155.5t148 398.5t-148 399t-377 156q-230 0 -378 -156 t-148 -399t148 -398.5t378 -155.5z" glyph-name="Ograve" horiz-adv-x="1633" unicode="Ò"/><glyph d="M1082 1825l-304 -299l-94 49l281 340zM817 -32q-207 0 -371.5 93.5t-257 261.5t-92.5 380t92.5 380t257 261.5t371.5 93.5t371 -93.5t256.5 -261.5t92.5 -380t-92.5 -380t-256.5 -261.5t-371 -93.5zM817 149q229 0 377 155.5t148 398.5t-148 399t-377 156 q-230 0 -378 -156t-148 -399t148 -398.5t378 -155.5z" glyph-name="Oacute" horiz-adv-x="1633" unicode="Ó"/><glyph d="M817 1755l-222 -229l-94 49l238 296h156l238 -296l-94 -49zM817 -32q-207 0 -371.5 93.5t-257 261.5t-92.5 380t92.5 380t257 261.5t371.5 93.5t371 -93.5t256.5 -261.5t92.5 -380t-92.5 -380t-256.5 -261.5t-371 -93.5zM817 149q229 0 377 155.5t148 398.5t-148 399 t-377 156q-230 0 -378 -156t-148 -399t148 -398.5t378 -155.5z" glyph-name="Ocircumflex" horiz-adv-x="1633" unicode="Ô"/><glyph d="M953 1584q-41 0 -80 17t-64.5 37t-58.5 37t-64 17q-36 0 -66.5 -24t-47.5 -61l-85 74q27 66 78.5 106t114.5 40q41 0 80 -17t64.5 -37t59 -37t64.5 -17q35 0 66 24t47 61l86 -74q-28 -67 -79.5 -106.5t-114.5 -39.5zM817 -32q-207 0 -371.5 93.5t-257 261.5t-92.5 380 t92.5 380t257 261.5t371.5 93.5t371 -93.5t256.5 -261.5t92.5 -380t-92.5 -380t-256.5 -261.5t-371 -93.5zM817 149q229 0 377 155.5t148 398.5t-148 399t-377 156q-230 0 -378 -156t-148 -399t148 -398.5t378 -155.5z" glyph-name="Otilde" horiz-adv-x="1633" unicode="Õ"/><glyph d="M625 1616q-49 0 -80 31t-31 80t31 80t80 31t80.5 -31t31.5 -80t-31.5 -80t-80.5 -31zM1008 1616q-49 0 -80 31t-31 80t31 80t80 31t80.5 -31t31.5 -80t-31.5 -80t-80.5 -31zM817 -32q-207 0 -371.5 93.5t-257 261.5t-92.5 380t92.5 380t257 261.5t371.5 93.5t371 -93.5 t256.5 -261.5t92.5 -380t-92.5 -380t-256.5 -261.5t-371 -93.5zM817 149q229 0 377 155.5t148 398.5t-148 399t-377 156q-230 0 -378 -156t-148 -399t148 -398.5t378 -155.5z" glyph-name="Odieresis" horiz-adv-x="1633" unicode="Ö"/><glyph d="M626 595l-282 -282l-108 108l282 282l-282 282l108 108l281 -283l283 283l108 -108l-282 -282l282 -282l-108 -108z" glyph-name="multiply" horiz-adv-x="1253" unicode="×"/><glyph d="M424 76l-78 -108l-84 64l77 107q-115 99 -179 244.5t-64 319.5q0 212 92.5 380t256.5 261.5t371 93.5q219 0 393 -108l78 108l84 -65l-77 -106q115 -99 179 -244.5t64 -319.5q0 -212 -92.5 -380t-257 -261.5t-371.5 -93.5q-222 0 -392 108zM461 295l632 886 q-122 80 -277 80q-229 0 -377 -157.5t-148 -400.5q0 -126 44.5 -231t125.5 -177zM816 145q151 0 271 71.5t187.5 199t67.5 287.5q0 126 -44.5 231t-125.5 176l-632 -885q122 -80 276 -80z" glyph-name="Oslash" horiz-adv-x="1633" unicode="Ø"/><glyph d="M890 1575l-94 -49l-303 299l117 90zM758 -32q-272 0 -430.5 151t-158.5 390v897h189v-899q0 -162 109 -265.5t291 -103.5t290.5 103.5t108.5 265.5v899h190v-897q0 -239 -159 -390t-430 -151z" glyph-name="Ugrave" horiz-adv-x="1516" unicode="Ù"/><glyph d="M1023 1825l-304 -299l-94 49l281 340zM758 -32q-272 0 -430.5 151t-158.5 390v897h189v-899q0 -162 109 -265.5t291 -103.5t290.5 103.5t108.5 265.5v899h190v-897q0 -239 -159 -390t-430 -151z" glyph-name="Uacute" horiz-adv-x="1516" unicode="Ú"/><glyph d="M758 1755l-222 -229l-94 49l238 296h156l238 -296l-93 -49zM758 -32q-272 0 -430.5 151t-158.5 390v897h189v-899q0 -162 109 -265.5t291 -103.5t290.5 103.5t108.5 265.5v899h190v-897q0 -239 -159 -390t-430 -151z" glyph-name="Ucircumflex" horiz-adv-x="1516" unicode="Û"/><glyph d="M566 1616q-49 0 -80 31t-31 80t31 80t80 31t80.5 -31t31.5 -80t-31.5 -80t-80.5 -31zM950 1616q-49 0 -80.5 31t-31.5 80t31.5 80t80.5 31t80 -31t31 -80t-31 -80t-80 -31zM758 -32q-272 0 -430.5 151t-158.5 390v897h189v-899q0 -162 109 -265.5t291 -103.5t290.5 103.5 t108.5 265.5v899h190v-897q0 -239 -159 -390t-430 -151z" glyph-name="Udieresis" horiz-adv-x="1516" unicode="Ü"/><glyph d="M825 1825l-304 -299l-93 49l281 340zM655 0h-190v577l-491 829h222l364 -643l364 643h223l-492 -829v-577z" glyph-name="Yacute" horiz-adv-x="1121" unicode="Ý"/><glyph d="M367 0h-190v1406h190v-295h247q222 0 341 -103t119 -305q0 -104 -36 -184t-99.5 -129t-145.5 -73.5t-179 -24.5h-247v-292zM367 941v-479h244q120 0 197 61t77 180q0 238 -274 238h-244z" glyph-name="Thorn" horiz-adv-x="1154" unicode="Þ"/><glyph d="M735 -15q-113 0 -225 15v137h222q132 0 226.5 90t94.5 227q0 131 -88.5 219.5t-232.5 88.5h-172v152h66q94 0 163 71.5t69 169.5q0 107 -67 177t-169 70q-127 0 -199.5 -80.5t-72.5 -215.5v-1106h-179v1105q0 214 120 331.5t332 117.5q178 0 296 -103t118 -279 q0 -94 -45 -172t-117 -119q153 -22 254.5 -136t101.5 -291q0 -211 -136 -340t-360 -129z" glyph-name="germandbls" horiz-adv-x="1308" unicode="ß"/><glyph d="M652 1249l-94 -49l-304 299l117 90zM382 -32q-141 0 -217.5 69.5t-76.5 187.5q0 109 71 193.5t198 120.5l367 101v78q0 105 -56.5 164.5t-160.5 59.5q-83 0 -145 -60t-75 -163l-170 25q24 163 133 260.5t260 97.5q197 0 297 -100.5t100 -283.5v-718h-165v147h-5 q-61 -85 -154.5 -132t-200.5 -47zM433 137q110 0 200.5 82t90.5 174v107l-294 -78q-78 -20 -119 -63t-41 -102q0 -55 41.5 -87.5t121.5 -32.5z" glyph-name="agrave" horiz-adv-x="1068" unicode="à"/><glyph d="M785 1499l-304 -299l-94 49l281 340zM382 -32q-141 0 -217.5 69.5t-76.5 187.5q0 109 71 193.5t198 120.5l367 101v78q0 105 -56.5 164.5t-160.5 59.5q-83 0 -145 -60t-75 -163l-170 25q24 163 133 260.5t260 97.5q197 0 297 -100.5t100 -283.5v-718h-165v147h-5 q-61 -85 -154.5 -132t-200.5 -47zM433 137q110 0 200.5 82t90.5 174v107l-294 -78q-78 -20 -119 -63t-41 -102q0 -55 41.5 -87.5t121.5 -32.5z" glyph-name="aacute" horiz-adv-x="1068" unicode="á"/><glyph d="M520 1408l-222 -229l-94 49l238 296h156l238 -296l-94 -49zM382 -32q-141 0 -217.5 69.5t-76.5 187.5q0 109 71 193.5t198 120.5l367 101v78q0 105 -56.5 164.5t-160.5 59.5q-83 0 -145 -60t-75 -163l-170 25q24 163 133 260.5t260 97.5q197 0 297 -100.5t100 -283.5 v-718h-165v147h-5q-61 -85 -154.5 -132t-200.5 -47zM433 137q110 0 200.5 82t90.5 174v107l-294 -78q-78 -20 -119 -63t-41 -102q0 -55 41.5 -87.5t121.5 -32.5z" glyph-name="acircumflex" horiz-adv-x="1068" unicode="â"/><glyph d="M656 1237q-41 0 -80 17t-64.5 37t-58.5 37t-64 17q-36 0 -66.5 -24t-47.5 -61l-85 74q27 66 78.5 106t114.5 40q41 0 80 -17t64.5 -37t59 -37t64.5 -17q35 0 66 24t47 61l86 -74q-28 -67 -79.5 -106.5t-114.5 -39.5zM382 -32q-141 0 -217.5 69.5t-76.5 187.5 q0 109 71 193.5t198 120.5l367 101v78q0 105 -56.5 164.5t-160.5 59.5q-83 0 -145 -60t-75 -163l-170 25q24 163 133 260.5t260 97.5q197 0 297 -100.5t100 -283.5v-718h-165v147h-5q-61 -85 -154.5 -132t-200.5 -47zM433 137q110 0 200.5 82t90.5 174v107l-294 -78 q-78 -20 -119 -63t-41 -102q0 -55 41.5 -87.5t121.5 -32.5z" glyph-name="atilde" horiz-adv-x="1068" unicode="ã"/><glyph d="M328 1269q-49 0 -80 31t-31 80t31 80t80 31t80.5 -31t31.5 -80t-31.5 -80t-80.5 -31zM711 1269q-49 0 -80 31t-31 80t31 80t80 31t80.5 -31t31.5 -80t-31.5 -80t-80.5 -31zM382 -32q-141 0 -217.5 69.5t-76.5 187.5q0 109 71 193.5t198 120.5l367 101v78 q0 105 -56.5 164.5t-160.5 59.5q-83 0 -145 -60t-75 -163l-170 25q24 163 133 260.5t260 97.5q197 0 297 -100.5t100 -283.5v-718h-165v147h-5q-61 -85 -154.5 -132t-200.5 -47zM433 137q110 0 200.5 82t90.5 174v107l-294 -78q-78 -20 -119 -63t-41 -102q0 -55 41.5 -87.5 t121.5 -32.5z" glyph-name="adieresis" horiz-adv-x="1068" unicode="ä"/><glyph d="M520 1158q-85 0 -144 58t-59 143t59 143t144 58t143 -58t58 -143t-58 -143t-143 -58zM520 1242q47 0 81 34t34 83t-34 83t-81 34q-48 0 -82 -34t-34 -83t34 -83t82 -34zM382 -32q-141 0 -217.5 69.5t-76.5 187.5q0 109 71 193.5t198 120.5l367 101v78q0 105 -56.5 164.5 t-160.5 59.5q-83 0 -145 -60t-75 -163l-170 25q24 163 133 260.5t260 97.5q197 0 297 -100.5t100 -283.5v-718h-165v147h-5q-61 -85 -154.5 -132t-200.5 -47zM433 137q110 0 200.5 82t90.5 174v107l-294 -78q-78 -20 -119 -63t-41 -102q0 -55 41.5 -87.5t121.5 -32.5z" glyph-name="aring" horiz-adv-x="1068" unicode="å"/><glyph d="M383 -32q-141 0 -218 70t-77 187q0 109 71.5 193.5t198.5 120.5l367 101v78q0 105 -56.5 164.5t-160.5 59.5q-82 0 -145.5 -60t-75.5 -163l-170 25q26 164 134 261t260 97q124 0 211.5 -48.5t133.5 -136.5q147 185 402 185q109 0 205 -36.5t169 -104t117 -171.5t48 -232 q0 -58 -4 -79h-885v-109q37 -114 131.5 -181t220.5 -67q251 0 362 211l144 -85q-64 -129 -203 -204.5t-300 -75.5q-152 0 -274 71.5t-178 189.5q-65 -127 -167 -194t-261 -67zM908 702v-85h707q-10 148 -110.5 241.5t-246.5 93.5q-123 0 -217.5 -68t-132.5 -182zM434 137 q110 0 201 82t91 174v107l-295 -78q-79 -20 -120 -63t-41 -102q0 -54 42 -87t122 -33z" glyph-name="ae" horiz-adv-x="1875" unicode="æ"/><glyph d="M597 -462q-121 0 -177 39l40 94q46 -32 115 -32q57 0 91 29t34 75q0 112 -163 112l48 116q-223 20 -363 176.5t-140 387.5q0 166 73.5 295.5t201.5 200.5t288 71q178 0 313.5 -89.5t197.5 -237.5l-166 -69q-48 115 -140.5 173t-204.5 58q-164 0 -274 -113t-110 -289 q0 -180 111.5 -291t272.5 -111q112 0 204.5 58t140.5 173l166 -69q-61 -145 -187 -230.5t-283 -95.5l-22 -53q83 -9 130 -53.5t47 -126.5q0 -92 -70 -145t-174 -53z" glyph-name="ccedilla" horiz-adv-x="1204" unicode="ç"/><glyph d="M772 1249l-94 -49l-303 299l117 90zM646 -32q-156 0 -284 70t-203.5 200.5t-75.5 296.5q0 125 42.5 231.5t117 180t176.5 114.5t218 41q224 0 368.5 -144.5t152.5 -399.5q0 -58 -4 -79h-886q7 -157 115 -257t264 -100q115 0 204 56.5t141 154.5l144 -85 q-65 -130 -197.5 -205t-292.5 -75zM270 617h706q-10 150 -102.5 242.5t-236.5 92.5q-146 0 -249 -93t-118 -242z" glyph-name="egrave" horiz-adv-x="1236" unicode="è"/><glyph d="M905 1499l-304 -299l-94 49l281 340zM646 -32q-156 0 -284 70t-203.5 200.5t-75.5 296.5q0 125 42.5 231.5t117 180t176.5 114.5t218 41q224 0 368.5 -144.5t152.5 -399.5q0 -58 -4 -79h-886q7 -157 115 -257t264 -100q115 0 204 56.5t141 154.5l144 -85 q-65 -130 -197.5 -205t-292.5 -75zM270 617h706q-10 150 -102.5 242.5t-236.5 92.5q-146 0 -249 -93t-118 -242z" glyph-name="eacute" horiz-adv-x="1236" unicode="é"/><glyph d="M640 1408l-222 -229l-94 49l238 296h156l238 -296l-93 -49zM646 -32q-156 0 -284 70t-203.5 200.5t-75.5 296.5q0 125 42.5 231.5t117 180t176.5 114.5t218 41q224 0 368.5 -144.5t152.5 -399.5q0 -58 -4 -79h-886q7 -157 115 -257t264 -100q115 0 204 56.5t141 154.5 l144 -85q-65 -130 -197.5 -205t-292.5 -75zM270 617h706q-10 150 -102.5 242.5t-236.5 92.5q-146 0 -249 -93t-118 -242z" glyph-name="ecircumflex" horiz-adv-x="1236" unicode="ê"/><glyph d="M448 1269q-49 0 -80 31t-31 80t31 80t80 31t80.5 -31t31.5 -80t-31.5 -80t-80.5 -31zM832 1269q-49 0 -80.5 31t-31.5 80t31.5 80t80.5 31t80 -31t31 -80t-31 -80t-80 -31zM646 -32q-156 0 -284 70t-203.5 200.5t-75.5 296.5q0 125 42.5 231.5t117 180t176.5 114.5 t218 41q224 0 368.5 -144.5t152.5 -399.5q0 -58 -4 -79h-886q7 -157 115 -257t264 -100q115 0 204 56.5t141 154.5l144 -85q-65 -130 -197.5 -205t-292.5 -75zM270 617h706q-10 150 -102.5 242.5t-236.5 92.5q-146 0 -249 -93t-118 -242z" glyph-name="edieresis" horiz-adv-x="1236" unicode="ë"/><glyph d="M405 1249l-94 -49l-304 299l117 90zM357 0h-179v1071h179v-1071z" glyph-name="igrave" horiz-adv-x="533" unicode="ì"/><glyph d="M531 1499l-304 -299l-93 49l281 340zM356 0h-179v1071h179v-1071z" glyph-name="iacute" horiz-adv-x="533" unicode="í"/><glyph d="M267 1408l-221 -229l-95 49l238 296h156l239 -296l-94 -49zM357 0h-179v1071h179v-1071z" glyph-name="icircumflex" horiz-adv-x="533" unicode="î"/><glyph d="M112 1269q-49 0 -80 31t-31 80t31 80t80 31t80.5 -31t31.5 -80t-31.5 -80t-80.5 -31zM422 1269q-49 0 -80 31t-31 80t31 80t80 31t80.5 -31t31.5 -80t-31.5 -80t-80.5 -31zM357 0h-179v1071h179v-1071z" glyph-name="idieresis" horiz-adv-x="533" unicode="ï"/><glyph d="M640 -32q-242 0 -399 159.5t-157 407.5q0 122 42 226.5t114 177t171.5 113.5t211.5 41q140 0 242 -88q-91 169 -229 310l-377 -100l-27 100l332 89q-70 69 -122 113l153 46q60 -55 122 -118l304 81l26 -100l-257 -69q252 -282 369 -613q36 -99 36 -209q0 -249 -156 -408 t-399 -159zM640 139q164 0 270 111t106 285t-106 285t-270 111q-163 0 -269.5 -111.5t-106.5 -284.5t106.5 -284.5t269.5 -111.5z" glyph-name="eth" horiz-adv-x="1295" unicode="ð"/><glyph d="M763 1237q-41 0 -80 17t-64.5 37t-58.5 37t-64 17q-36 0 -66.5 -24t-46.5 -61l-86 74q28 67 79.5 106.5t114.5 39.5q41 0 80 -17t64.5 -37t58.5 -37t64 -17q36 0 66.5 24t47.5 61l85 -74q-27 -66 -78.5 -106t-115.5 -40zM357 0h-180v1071h166v-135h4q49 75 130 120.5 t184 45.5q177 0 296.5 -121t119.5 -301v-680h-179v684q0 104 -67.5 179.5t-181.5 75.5q-131 0 -211.5 -90t-80.5 -226v-623z" glyph-name="ntilde" unicode="ñ"/><glyph d="M785 1249l-94 -49l-304 299l117 90zM652 -32q-160 0 -290 71.5t-204.5 201.5t-74.5 294t74.5 294t204.5 201.5t290 71.5t289.5 -71.5t204 -201.5t74.5 -294t-74.5 -294t-204 -201.5t-289.5 -71.5zM652 133q165 0 277 113.5t112 288.5t-112 288.5t-277 113.5t-277 -113.5 t-112 -288.5t112 -288.5t277 -113.5z" glyph-name="ograve" horiz-adv-x="1304" unicode="ò"/><glyph d="M917 1499l-304 -299l-93 49l281 340zM652 -32q-160 0 -290 71.5t-204.5 201.5t-74.5 294t74.5 294t204.5 201.5t290 71.5t289.5 -71.5t204 -201.5t74.5 -294t-74.5 -294t-204 -201.5t-289.5 -71.5zM652 133q165 0 277 113.5t112 288.5t-112 288.5t-277 113.5t-277 -113.5 t-112 -288.5t112 -288.5t277 -113.5z" glyph-name="oacute" horiz-adv-x="1304" unicode="ó"/><glyph d="M652 1408l-221 -229l-95 49l238 296h156l239 -296l-94 -49zM652 -32q-160 0 -290 71.5t-204.5 201.5t-74.5 294t74.5 294t204.5 201.5t290 71.5t289.5 -71.5t204 -201.5t74.5 -294t-74.5 -294t-204 -201.5t-289.5 -71.5zM652 133q165 0 277 113.5t112 288.5t-112 288.5 t-277 113.5t-277 -113.5t-112 -288.5t112 -288.5t277 -113.5z" glyph-name="ocircumflex" horiz-adv-x="1304" unicode="ô"/><glyph d="M789 1237q-52 0 -99 27t-89 54t-80 27q-36 0 -66.5 -24t-46.5 -61l-86 74q28 67 79.5 106.5t114.5 39.5q41 0 80 -17t64.5 -37t58.5 -37t64 -17q36 0 67 24t47 61l86 -74q-27 -66 -79 -106t-115 -40zM652 -32q-160 0 -290 71.5t-204.5 201.5t-74.5 294t74.5 294 t204.5 201.5t290 71.5t289.5 -71.5t204 -201.5t74.5 -294t-74.5 -294t-204 -201.5t-289.5 -71.5zM652 133q165 0 277 113.5t112 288.5t-112 288.5t-277 113.5t-277 -113.5t-112 -288.5t112 -288.5t277 -113.5z" glyph-name="otilde" horiz-adv-x="1304" unicode="õ"/><glyph d="M461 1269q-49 0 -80.5 31t-31.5 80t31.5 80t80.5 31t80 -31t31 -80t-31 -80t-80 -31zM844 1269q-49 0 -80 31t-31 80t31 80t80 31t80.5 -31t31.5 -80t-31.5 -80t-80.5 -31zM652 -32q-160 0 -290 71.5t-204.5 201.5t-74.5 294t74.5 294t204.5 201.5t290 71.5t289.5 -71.5 t204 -201.5t74.5 -294t-74.5 -294t-204 -201.5t-289.5 -71.5zM652 133q165 0 277 113.5t112 288.5t-112 288.5t-277 113.5t-277 -113.5t-112 -288.5t112 -288.5t277 -113.5z" glyph-name="odieresis" horiz-adv-x="1304" unicode="ö"/><glyph d="M626 958q-49 0 -80 31t-31 79t31 78.5t80 30.5t80.5 -30.5t31.5 -78.5t-31.5 -79t-80.5 -31zM1073 627h-894v152h894v-152zM626 228q-49 0 -80 30.5t-31 79.5q0 48 31 79t80 31t80.5 -31t31.5 -79q0 -49 -31.5 -79.5t-80.5 -30.5z" glyph-name="divide" horiz-adv-x="1253" unicode="÷"/><glyph d="M652 -32q-169 0 -305 81l-58 -76l-86 73l54 70q-174 162 -174 419q0 123 43.5 229.5t119.5 180t181 115.5t225 42q168 0 304 -81l58 76l86 -73l-54 -70q174 -162 174 -419q0 -165 -75 -295t-204.5 -201t-288.5 -71zM365 256l485 629q-88 52 -198 52q-169 0 -279 -114.5 t-110 -287.5q0 -165 102 -279zM652 133q168 0 278.5 114.5t110.5 287.5q0 166 -103 279l-485 -629q89 -52 199 -52z" glyph-name="oslash" horiz-adv-x="1304" unicode="ø"/><glyph d="M743 1249l-94 -49l-303 299l117 90zM578 -32q-177 0 -297 121t-120 301v680h179v-684q0 -104 67.5 -179.5t182.5 -75.5q130 0 211 90t81 226v623h179v-1071h-165v135h-5q-48 -75 -129 -120.5t-184 -45.5z" glyph-name="ugrave" unicode="ù"/><glyph d="M876 1499l-304 -299l-94 49l281 340zM578 -32q-177 0 -297 121t-120 301v680h179v-684q0 -104 67.5 -179.5t182.5 -75.5q130 0 211 90t81 226v623h179v-1071h-165v135h-5q-48 -75 -129 -120.5t-184 -45.5z" glyph-name="uacute" unicode="ú"/><glyph d="M611 1408l-222 -229l-94 49l238 296h156l238 -296l-93 -49zM578 -32q-177 0 -297 121t-120 301v680h179v-684q0 -104 67.5 -179.5t182.5 -75.5q130 0 211 90t81 226v623h179v-1071h-165v135h-5q-48 -75 -129 -120.5t-184 -45.5z" glyph-name="ucircumflex" unicode="û"/><glyph d="M419 1269q-49 0 -80 31t-31 80t31 80t80 31t80.5 -31t31.5 -80t-31.5 -80t-80.5 -31zM803 1269q-49 0 -80.5 31t-31.5 80t31.5 80t80.5 31t80 -31t31 -80t-31 -80t-80 -31zM578 -32q-177 0 -297 121t-120 301v680h179v-684q0 -104 67.5 -179.5t182.5 -75.5q130 0 211 90 t81 226v623h179v-1071h-165v135h-5q-48 -75 -129 -120.5t-184 -45.5z" glyph-name="udieresis" unicode="ü"/><glyph d="M810 1499l-304 -299l-93 49l281 340zM65 -462v155q263 0 360 250l33 84l-433 1044h203l318 -819l308 819h199l-461 -1181q-73 -187 -198.5 -269.5t-328.5 -82.5z" glyph-name="yacute" horiz-adv-x="1078" unicode="ý"/><glyph d="M356 -430h-179v1952h165v-599h5q59 77 161 128t232 51q238 0 393 -160.5t155 -406.5q0 -124 -42.5 -230.5t-116 -180t-174.5 -115t-215 -41.5q-126 0 -223.5 47.5t-160.5 120.5v-566zM730 134q162 0 270.5 111.5t108.5 289.5q0 177 -108 289.5t-271 112.5 q-164 0 -271.5 -112t-107.5 -290t107.5 -289.5t271.5 -111.5z" glyph-name="thorn" horiz-adv-x="1372" unicode="þ"/><glyph d="M354 1269q-49 0 -80.5 31t-31.5 80t31.5 80t80.5 31t80 -31t31 -80t-31 -80t-80 -31zM737 1269q-49 0 -80 31t-31 80t31 80t80 31t80.5 -31t31.5 -80t-31.5 -80t-80.5 -31zM65 -462v155q263 0 360 250l33 84l-433 1044h203l318 -819l308 819h199l-461 -1181 q-73 -187 -198.5 -269.5t-328.5 -82.5z" glyph-name="ydieresis" horiz-adv-x="1078" unicode="ÿ"/><glyph d="M975 1671h-605v113h605v-113zM213 0h-207l564 1406h206l564 -1406h-206l-139 350h-644zM673 1186l-272 -680h544z" glyph-name="Amacron" horiz-adv-x="1346" unicode="Ā"/><glyph d="M822 1324h-605v113h605v-113zM382 -32q-141 0 -217.5 69.5t-76.5 187.5q0 109 71 193.5t198 120.5l367 101v78q0 105 -56.5 164.5t-160.5 59.5q-83 0 -145 -60t-75 -163l-170 25q24 163 133 260.5t260 97.5q197 0 297 -100.5t100 -283.5v-718h-165v147h-5 q-61 -85 -154.5 -132t-200.5 -47zM433 137q110 0 200.5 82t90.5 174v107l-294 -78q-78 -20 -119 -63t-41 -102q0 -55 41.5 -87.5t121.5 -32.5z" glyph-name="amacron" horiz-adv-x="1068" unicode="ā"/><glyph d="M671 1539q-129 0 -220 92.5t-91 226.5h110q0 -81 59 -137t142 -56t142.5 56t59.5 137h112q0 -134 -91.5 -226.5t-222.5 -92.5zM213 0h-207l564 1406h206l564 -1406h-206l-139 350h-644zM673 1186l-272 -680h544z" glyph-name="Abreve" horiz-adv-x="1346" unicode="Ă"/><glyph d="M518 1192q-129 0 -220.5 92.5t-91.5 226.5h111q0 -81 59 -137t142 -56t142 56t59 137h113q0 -134 -91.5 -226.5t-222.5 -92.5zM382 -32q-141 0 -217.5 69.5t-76.5 187.5q0 109 71 193.5t198 120.5l367 101v78q0 105 -56.5 164.5t-160.5 59.5q-83 0 -145 -60t-75 -163 l-170 25q24 163 133 260.5t260 97.5q197 0 297 -100.5t100 -283.5v-718h-165v147h-5q-61 -85 -154.5 -132t-200.5 -47zM433 137q110 0 200.5 82t90.5 174v107l-294 -78q-78 -20 -119 -63t-41 -102q0 -55 41.5 -87.5t121.5 -32.5z" glyph-name="abreve" horiz-adv-x="1068" unicode="ă"/><glyph d="M1192 -462q-87 0 -133 40.5t-46 104.5q0 79 63 148l140 169h-82l-139 350h-644l-138 -350h-207l564 1406h206l564 -1406h-19l-143 -206q-26 -38 -26 -75q0 -31 20.5 -51.5t57.5 -20.5q50 0 90 31l32 -100q-65 -40 -160 -40zM673 1186l-272 -680h544z" glyph-name="Aogonek" horiz-adv-x="1346" unicode="Ą"/><glyph d="M763 -462q-90 0 -134.5 41.5t-44.5 103.5q0 79 64 148l139 169h-45v147h-5q-63 -86 -156.5 -132.5t-198.5 -46.5q-145 0 -219.5 70.5t-74.5 186.5q0 107 69.5 191.5t199.5 122.5l367 101v78q0 103 -55 163.5t-162 60.5q-81 0 -143 -58t-77 -165l-170 25q28 170 136.5 264 t256.5 94q202 0 299.5 -102.5t97.5 -281.5v-718h-14l-143 -206q-27 -32 -27 -75q0 -31 20 -51.5t58 -20.5q57 0 91 31l31 -100q-73 -40 -160 -40zM433 137q112 0 201.5 82t89.5 174v107l-294 -78q-79 -21 -119.5 -64t-40.5 -101q0 -54 40.5 -87t122.5 -33z" glyph-name="aogonek" horiz-adv-x="1068" unicode="ą"/><glyph d="M1095 1825l-304 -299l-94 49l281 340zM816 -32q-207 0 -371 93.5t-256.5 261.5t-92.5 380t92.5 380t256.5 261.5t371 93.5q228 0 404 -114.5t256 -309.5l-180 -73q-60 149 -188.5 234.5t-291.5 85.5q-228 0 -376.5 -156t-148.5 -402q0 -244 148.5 -399.5t376.5 -155.5 q164 0 293.5 86.5t187.5 234.5l181 -72q-77 -194 -255 -311.5t-407 -117.5z" glyph-name="Cacute" horiz-adv-x="1530" unicode="Ć"/><glyph d="M924 1499l-304 -299l-94 49l281 340zM645 -32q-243 0 -403 159.5t-160 407.5t160 407.5t403 159.5q175 0 313 -89t198 -238l-166 -69q-45 111 -137.5 171t-207.5 60q-163 0 -273.5 -113t-110.5 -289t110.5 -289t273.5 -113q115 0 207.5 60t137.5 171l166 -69 q-60 -149 -198 -238t-313 -89z" glyph-name="cacute" horiz-adv-x="1204" unicode="ć"/><glyph d="M830 1755l-222 -229l-94 49l238 296h156l238 -296l-94 -49zM816 -32q-207 0 -371 93.5t-256.5 261.5t-92.5 380t92.5 380t256.5 261.5t371 93.5q228 0 404 -114.5t256 -309.5l-180 -73q-60 149 -188.5 234.5t-291.5 85.5q-228 0 -376.5 -156t-148.5 -402 q0 -244 148.5 -399.5t376.5 -155.5q164 0 293.5 86.5t187.5 234.5l181 -72q-77 -194 -255 -311.5t-407 -117.5z" glyph-name="Ccircumflex" horiz-adv-x="1530" unicode="Ĉ"/><glyph d="M659 1408l-222 -229l-94 49l238 296h156l238 -296l-93 -49zM645 -32q-243 0 -403 159.5t-160 407.5t160 407.5t403 159.5q175 0 313 -89t198 -238l-166 -69q-45 111 -137.5 171t-207.5 60q-163 0 -273.5 -113t-110.5 -289t110.5 -289t273.5 -113q115 0 207.5 60 t137.5 171l166 -69q-60 -149 -198 -238t-313 -89z" glyph-name="ccircumflex" horiz-adv-x="1204" unicode="ĉ"/><glyph d="M830 1616q-52 0 -84.5 31t-32.5 80t32.5 80t84.5 31q51 0 84 -31t33 -80t-33 -80t-84 -31zM816 -32q-207 0 -371 93.5t-256.5 261.5t-92.5 380t92.5 380t256.5 261.5t371 93.5q228 0 404 -114.5t256 -309.5l-180 -73q-60 149 -188.5 234.5t-291.5 85.5 q-228 0 -376.5 -156t-148.5 -402q0 -244 148.5 -399.5t376.5 -155.5q164 0 293.5 86.5t187.5 234.5l181 -72q-77 -194 -255 -311.5t-407 -117.5z" glyph-name="Cdotaccent" horiz-adv-x="1530" unicode="Ċ"/><glyph d="M659 1269q-51 0 -84 31t-33 80t33 80t84 31q52 0 84.5 -31t32.5 -80t-32.5 -80t-84.5 -31zM645 -32q-243 0 -403 159.5t-160 407.5t160 407.5t403 159.5q175 0 313 -89t198 -238l-166 -69q-45 111 -137.5 171t-207.5 60q-163 0 -273.5 -113t-110.5 -289t110.5 -289 t273.5 -113q115 0 207.5 60t137.5 171l166 -69q-60 -149 -198 -238t-313 -89z" glyph-name="cdotaccent" horiz-adv-x="1204" unicode="ċ"/><glyph d="M908 1526h-156l-238 296l94 49l222 -230l222 230l94 -49zM816 -32q-207 0 -371 93.5t-256.5 261.5t-92.5 380t92.5 380t256.5 261.5t371 93.5q228 0 404 -114.5t256 -309.5l-180 -73q-60 149 -188.5 234.5t-291.5 85.5q-228 0 -376.5 -156t-148.5 -402 q0 -244 148.5 -399.5t376.5 -155.5q164 0 293.5 86.5t187.5 234.5l181 -72q-77 -194 -255 -311.5t-407 -117.5z" glyph-name="Ccaron" horiz-adv-x="1530" unicode="Č"/><glyph d="M724 1179h-156l-238 296l94 49l222 -230l222 230l94 -49zM645 -32q-243 0 -403 159.5t-160 407.5t160 407.5t403 159.5q175 0 313 -89t198 -238l-166 -69q-45 111 -137.5 171t-207.5 60q-163 0 -273.5 -113t-110.5 -289t110.5 -289t273.5 -113q115 0 207.5 60t137.5 171 l166 -69q-60 -149 -198 -238t-313 -89z" glyph-name="ccaron" horiz-adv-x="1204" unicode="č"/><glyph d="M787 1526h-156l-238 296l94 49l222 -230l222 230l94 -49zM691 0h-514v1406h514q315 0 511 -194.5t196 -506.5q0 -206 -88.5 -366.5t-249.5 -249.5t-369 -89zM366 1237v-1067h318q228 0 373 150t145 385t-144.5 383.5t-373.5 148.5h-318z" glyph-name="Dcaron" horiz-adv-x="1494" unicode="Ď"/><glyph d="M632 -32q-153 0 -278 72t-197.5 202t-72.5 293t72.5 293t197.5 202t278 72q128 0 224.5 -47.5t159.5 -120.5v588h179v-1522h-165v147h-5q-61 -77 -162 -128t-231 -51zM1364 1245h-102l47 277h168zM642 134q164 0 271.5 113t107.5 288q0 176 -107.5 289t-271.5 113 t-271.5 -113t-107.5 -289q0 -175 107.5 -288t271.5 -113z" glyph-name="dcaron" horiz-adv-x="1372" unicode="ď"/><glyph d="M692 0h-514v651h-155v104h155v652h514q208 0 369 -89t249 -249t88 -366q0 -313 -195.5 -508t-510.5 -195zM367 651v-482h318q229 0 374 149.5t145 384.5t-145 385t-374 150h-318v-483h343v-104h-343z" glyph-name="Dcroat" horiz-adv-x="1494" unicode="Đ"/><glyph d="M632 -32q-238 0 -393 160.5t-155 406.5q0 124 42.5 230.5t116 180t174.5 115t215 41.5q127 0 224 -47.5t160 -120.5v303h-454v103h454v182h179v-182h137v-103h-137v-1237h-165v147h-5q-57 -75 -158.5 -127t-234.5 -52zM642 134q164 0 271.5 111.5t107.5 289.5t-107.5 290 t-271.5 112q-163 0 -271 -112.5t-108 -289.5q0 -178 108.5 -289.5t270.5 -111.5z" glyph-name="dcroat" horiz-adv-x="1372" unicode="đ"/><glyph d="M872 1671h-605v113h605v-113zM965 0h-788v1406h788v-170h-598v-423h561v-169h-561v-474h598v-170z" glyph-name="Emacron" horiz-adv-x="1044" unicode="Ē"/><glyph d="M956 1324h-606v113h606v-113zM646 -32q-156 0 -284 70t-203.5 200.5t-75.5 296.5q0 125 42.5 231.5t117 180t176.5 114.5t218 41q224 0 368.5 -144.5t152.5 -399.5q0 -58 -4 -79h-886q7 -157 115 -257t264 -100q115 0 204 56.5t141 154.5l144 -85q-65 -130 -197.5 -205 t-292.5 -75zM270 617h706q-10 150 -102.5 242.5t-236.5 92.5q-146 0 -249 -93t-118 -242z" glyph-name="emacron" horiz-adv-x="1236" unicode="ē"/><glyph d="M568 1539q-129 0 -220.5 92.5t-91.5 226.5h111q0 -81 59 -137t142 -56t142 56t59 137h113q0 -134 -91.5 -226.5t-222.5 -92.5zM965 0h-788v1406h788v-170h-598v-423h561v-169h-561v-474h598v-170z" glyph-name="Ebreve" horiz-adv-x="1044" unicode="Ĕ"/><glyph d="M652 1192q-130 0 -221 92.5t-91 226.5h111q0 -81 59 -137t142 -56q82 0 141.5 56t59.5 137h113q0 -134 -91.5 -226.5t-222.5 -92.5zM646 -32q-156 0 -284 70t-203.5 200.5t-75.5 296.5q0 125 42.5 231.5t117 180t176.5 114.5t218 41q224 0 368.5 -144.5t152.5 -399.5 q0 -58 -4 -79h-886q7 -157 115 -257t264 -100q115 0 204 56.5t141 154.5l144 -85q-65 -130 -197.5 -205t-292.5 -75zM270 617h706q-10 150 -102.5 242.5t-236.5 92.5q-146 0 -249 -93t-118 -242z" glyph-name="ebreve" horiz-adv-x="1236" unicode="ĕ"/><glyph d="M570 1616q-52 0 -84.5 31t-32.5 80t32.5 80t84.5 31q51 0 84 -31t33 -80t-33 -80t-84 -31zM965 0h-788v1406h788v-170h-598v-423h561v-169h-561v-474h598v-170z" glyph-name="Edotaccent" horiz-adv-x="1044" unicode="Ė"/><glyph d="M653 1269q-51 0 -84 31t-33 80t33 80t84 31q52 0 85 -31t33 -80t-33 -80t-85 -31zM646 -32q-156 0 -284 70t-203.5 200.5t-75.5 296.5q0 125 42.5 231.5t117 180t176.5 114.5t218 41q224 0 368.5 -144.5t152.5 -399.5q0 -58 -4 -79h-886q7 -157 115 -257t264 -100 q115 0 204 56.5t141 154.5l144 -85q-65 -130 -197.5 -205t-292.5 -75zM270 617h706q-10 150 -102.5 242.5t-236.5 92.5q-146 0 -249 -93t-118 -242z" glyph-name="edotaccent" horiz-adv-x="1236" unicode="ė"/><glyph d="M834 -462q-90 0 -134.5 41.5t-44.5 103.5q0 71 64 148l140 169h-682v1406h788v-169h-598v-424h561v-169h-561v-475h598v-169l-144 -206q-27 -39 -27 -75q0 -31 20 -51.5t58 -20.5q57 0 91 31l31 -100q-70 -40 -160 -40z" glyph-name="Eogonek" horiz-adv-x="1044" unicode="Ę"/><glyph d="M840 -462q-90 0 -134.5 41.5t-44.5 103.5q0 41 16 74t48 74l135 175q-100 -38 -214 -38q-243 0 -403 158.5t-160 408.5q0 168 73.5 298t199.5 199.5t281 69.5q106 0 198.5 -34t165 -99.5t115 -171t42.5 -239.5q0 -54 -4 -79h-886q10 -163 118 -260t261 -97 q119 0 206.5 56.5t138.5 154.5l144 -85q-26 -50 -63 -95l-247 -359q-26 -36 -26 -75q0 -31 20.5 -51.5t57.5 -20.5q57 0 91 31l31 -100q-70 -40 -160 -40zM270 617h706q-12 150 -101.5 242.5t-237.5 92.5q-144 0 -246.5 -90t-120.5 -245z" glyph-name="eogonek" horiz-adv-x="1236" unicode="ę"/><glyph d="M648 1526h-156l-238 296l94 49l222 -230l222 230l94 -49zM965 0h-788v1406h788v-170h-598v-423h561v-169h-561v-474h598v-170z" glyph-name="Ecaron" horiz-adv-x="1044" unicode="Ě"/><glyph d="M731 1179h-156l-238 296l95 49l221 -230l223 230l94 -49zM646 -32q-156 0 -284 70t-203.5 200.5t-75.5 296.5q0 125 42.5 231.5t117 180t176.5 114.5t218 41q224 0 368.5 -144.5t152.5 -399.5q0 -58 -4 -79h-886q7 -157 115 -257t264 -100q115 0 204 56.5t141 154.5 l144 -85q-65 -130 -197.5 -205t-292.5 -75zM270 617h706q-10 150 -102.5 242.5t-236.5 92.5q-146 0 -249 -93t-118 -242z" glyph-name="ecaron" horiz-adv-x="1236" unicode="ě"/><glyph d="M807 1755l-222 -229l-94 49l238 296h156l238 -296l-94 -49zM816 -32q-207 0 -371.5 93.5t-256.5 261.5t-92 380t92.5 380t256.5 261.5t371 93.5q230 0 406 -114.5t253 -310.5l-186 -52q-61 140 -187 220t-286 80q-230 0 -377.5 -155.5t-147.5 -402.5t147.5 -401 t378.5 -154q211 0 346 113t142 283h-498v155h709q0 -348 -189.5 -539.5t-510.5 -191.5z" glyph-name="Gcircumflex" horiz-adv-x="1589" unicode="Ĝ"/><glyph d="M638 1408l-221 -229l-95 49l238 296h156l239 -296l-94 -49zM644 -462q-181 0 -324 72.5t-199 183.5l168 77q37 -80 135.5 -122t218.5 -42q160 0 266.5 86.5t106.5 203.5v139q-63 -73 -159.5 -120.5t-224.5 -47.5q-153 0 -278 72t-197.5 202t-72.5 293t72.5 293t197.5 202 t278 72q130 0 231 -51t162 -128h5v147h165v-1077q0 -196 -152 -325.5t-399 -129.5zM642 134q164 0 271.5 113t107.5 288q0 176 -107.5 289t-271.5 113t-271.5 -113t-107.5 -289q0 -175 107.5 -288t271.5 -113z" glyph-name="gcircumflex" horiz-adv-x="1372" unicode="ĝ"/><glyph d="M805 1539q-129 0 -220.5 92.5t-91.5 226.5h111q0 -81 59 -137t142 -56t142 56t59 137h113q0 -134 -91.5 -226.5t-222.5 -92.5zM816 -32q-207 0 -371.5 93.5t-256.5 261.5t-92 380t92.5 380t256.5 261.5t371 93.5q230 0 406 -114.5t253 -310.5l-186 -52q-61 140 -187 220 t-286 80q-230 0 -377.5 -155.5t-147.5 -402.5t147.5 -401t378.5 -154q211 0 346 113t142 283h-498v155h709q0 -348 -189.5 -539.5t-510.5 -191.5z" glyph-name="Gbreve" horiz-adv-x="1589" unicode="Ğ"/><glyph d="M637 1192q-130 0 -221 92.5t-91 226.5h111q0 -81 59 -137t142 -56q82 0 141.5 56t59.5 137h113q0 -134 -91.5 -226.5t-222.5 -92.5zM644 -462q-181 0 -324 72.5t-199 183.5l168 77q37 -80 135.5 -122t218.5 -42q160 0 266.5 86.5t106.5 203.5v139q-63 -73 -159.5 -120.5 t-224.5 -47.5q-153 0 -278 72t-197.5 202t-72.5 293t72.5 293t197.5 202t278 72q130 0 231 -51t162 -128h5v147h165v-1077q0 -196 -152 -325.5t-399 -129.5zM642 134q164 0 271.5 113t107.5 288q0 176 -107.5 289t-271.5 113t-271.5 -113t-107.5 -289q0 -175 107.5 -288 t271.5 -113z" glyph-name="gbreve" horiz-adv-x="1372" unicode="ğ"/><glyph d="M807 1616q-52 0 -84.5 31t-32.5 80t32.5 80t84.5 31q51 0 84 -31t33 -80t-33 -80t-84 -31zM816 -32q-207 0 -371.5 93.5t-256.5 261.5t-92 380t92.5 380t256.5 261.5t371 93.5q230 0 406 -114.5t253 -310.5l-186 -52q-61 140 -187 220t-286 80q-230 0 -377.5 -155.5 t-147.5 -402.5t147.5 -401t378.5 -154q211 0 346 113t142 283h-498v155h709q0 -348 -189.5 -539.5t-510.5 -191.5z" glyph-name="Gdotaccent" horiz-adv-x="1589" unicode="Ġ"/><glyph d="M638 1269q-51 0 -84 31t-33 80t33 80t84 31q52 0 85 -31t33 -80t-33 -80t-85 -31zM644 -462q-181 0 -324 72.5t-199 183.5l168 77q37 -80 135.5 -122t218.5 -42q160 0 266.5 86.5t106.5 203.5v139q-63 -73 -159.5 -120.5t-224.5 -47.5q-153 0 -278 72t-197.5 202 t-72.5 293t72.5 293t197.5 202t278 72q130 0 231 -51t162 -128h5v147h165v-1077q0 -196 -152 -325.5t-399 -129.5zM642 134q164 0 271.5 113t107.5 288q0 176 -107.5 289t-271.5 113t-271.5 -113t-107.5 -289q0 -175 107.5 -288t271.5 -113z" glyph-name="gdotaccent" horiz-adv-x="1372" unicode="ġ"/><glyph d="M816 -32q-207 0 -371.5 93.5t-256.5 261.5t-92 380t92.5 380t256.5 261.5t371 93.5q230 0 406 -114.5t253 -310.5l-186 -52q-61 140 -187 220t-286 80q-230 0 -377.5 -155.5t-147.5 -402.5t147.5 -401t378.5 -154q211 0 346 113t142 283h-498v155h709 q0 -348 -189.5 -539.5t-510.5 -191.5zM812 -462h-101l46 277h168z" glyph-name="Gcommaaccent" horiz-adv-x="1589" unicode="Ģ"/><glyph d="M701 1183h-168l113 277h101zM646 -462q-181 0 -324 72.5t-199 183.5l168 77q37 -80 135.5 -122t218.5 -42q160 0 266.5 86.5t106.5 203.5v139q-63 -73 -159.5 -120.5t-224.5 -47.5q-153 0 -278 72t-197.5 202t-72.5 293t72.5 293t197.5 202t278 72q130 0 231 -51 t162 -128h5v147h165v-1077q0 -196 -152 -325.5t-399 -129.5zM644 134q164 0 271.5 113t107.5 288q0 176 -107.5 289t-271.5 113t-271.5 -113t-107.5 -289q0 -175 107.5 -288t271.5 -113z" glyph-name="gcommaaccent" horiz-adv-x="1374" unicode="ģ"/><glyph d="M777 1755l-222 -229l-94 49l238 296h156l238 -296l-93 -49zM366 0h-189v1406h189v-592h822v592h190v-1406h-190v644h-822v-644z" glyph-name="Hcircumflex" horiz-adv-x="1555" unicode="Ĥ"/><glyph d="M267 1838l-221 -229l-95 49l238 296h156l239 -296l-94 -49zM356 0h-179v1522h179v-586q49 75 132 120.5t186 45.5q176 0 290 -120t114 -302v-680h-179v684q0 111 -67.5 189.5t-182.5 78.5q-131 0 -212 -92.5t-81 -235.5v-624z" glyph-name="hcircumflex" horiz-adv-x="1239" unicode="ĥ"/><glyph d="M366 0h-189v1219h-104v103h104v84h189v-84h822v84h190v-84h103v-103h-103v-1219h-190v644h-822v-644zM366 1219v-405h822v405h-822z" glyph-name="Hbar" horiz-adv-x="1554" unicode="Ħ"/><glyph d="M356 0h-179v1242h-137v103h137v177h179v-177h454v-103h-454v-306q48 75 129.5 120.5t188.5 45.5q180 0 292 -120t112 -302v-680h-179v684q0 112 -67 190t-183 78q-134 0 -212.5 -92.5t-80.5 -235.5v-624z" glyph-name="hbar" horiz-adv-x="1239" unicode="ħ"/><glyph d="M409 1584q-52 0 -99 27t-89 54t-80 27q-36 0 -66.5 -24t-46.5 -61l-86 74q28 67 79.5 106.5t114.5 39.5q41 0 80 -17t64.5 -37t58.5 -37t64 -17q36 0 67 24t47 61l86 -74q-27 -66 -79 -106t-115 -40zM367 0h-189v1406h189v-1406z" glyph-name="Itilde" horiz-adv-x="543" unicode="Ĩ"/><glyph d="M409 1237q-52 0 -99 27t-89 54t-80 27q-36 0 -66.5 -24t-46.5 -61l-86 74q28 67 79.5 106.5t114.5 39.5q41 0 80 -17t64.5 -37t58.5 -37t64 -17q36 0 67 24t47 61l86 -74q-27 -66 -79 -106t-115 -40zM357 0h-179v1071h179v-1071z" glyph-name="itilde" horiz-adv-x="533" unicode="ĩ"/><glyph d="M525 1671h-507v113h507v-113zM366 0h-189v1406h189v-1406z" glyph-name="Imacron" horiz-adv-x="543" unicode="Ī"/><glyph d="M525 1324h-507v113h507v-113zM356 0h-179v1071h179v-1071z" glyph-name="imacron" horiz-adv-x="533" unicode="ī"/><glyph d="M271 1539q-130 0 -221 92.5t-91 226.5h111q0 -81 59 -137t142 -56q82 0 141.5 56t59.5 137h113q0 -134 -91.5 -226.5t-222.5 -92.5zM367 0h-189v1406h189v-1406z" glyph-name="Ibreve" horiz-adv-x="543" unicode="Ĭ"/><glyph d="M266 1192q-130 0 -221 92.5t-91 226.5h111q0 -81 59 -137t142 -56q82 0 141.5 56t59.5 137h113q0 -134 -91.5 -226.5t-222.5 -92.5zM357 0h-179v1071h179v-1071z" glyph-name="ibreve" horiz-adv-x="533" unicode="ĭ"/><glyph d="M222 -462q-87 0 -133 40.5t-46 104.5q0 79 63 148l140 169h-69v1406h189v-1406h-15l-143 -206q-26 -38 -26 -75q0 -31 20.5 -51.5t57.5 -20.5q50 0 91 31l31 -100q-64 -40 -160 -40z" glyph-name="Iogonek" horiz-adv-x="543" unicode="Į"/><glyph d="M266 1263q-55 0 -90 32.5t-35 86.5q0 55 35 87.5t90 32.5q56 0 91 -32.5t35 -87.5q0 -54 -35 -86.5t-91 -32.5zM214 -462q-87 0 -132.5 40.5t-45.5 104.5q0 79 63 148l140 169h-62v1071h179v-1071h-12l-143 -206q-27 -37 -27 -75q0 -31 21 -51.5t58 -20.5q50 0 90 31 l31 -100q-64 -40 -160 -40z" glyph-name="iogonek" horiz-adv-x="533" unicode="į"/><glyph d="M271 1616q-51 0 -84 31t-33 80t33 80t84 31q52 0 85 -31t33 -80t-33 -80t-85 -31zM366 0h-189v1406h189v-1406z" glyph-name="Idotaccent" horiz-adv-x="543" unicode="İ"/><glyph d="M356 0h-179v1071h179v-1071z" glyph-name="dotlessi" horiz-adv-x="533" unicode="ı"/><glyph d="M322 1755l-221 -229l-95 49l238 296h156l239 -296l-94 -49zM-75 -462v170q143 0 223 73.5t80 227.5v1397h189v-1409q0 -459 -492 -459z" glyph-name="Jcircumflex" horiz-adv-x="593" unicode="Ĵ"/><glyph d="M266 1408l-222 -229l-94 49l238 296h156l238 -296l-93 -49zM-4 -462v155q80 0 130 49t50 122v1207h180v-1233q-1 -152 -94.5 -226t-265.5 -74z" glyph-name="jcircumflex" horiz-adv-x="533" unicode="ĵ"/><glyph d="M366 0h-189v1406h189v-605l521 605h237l-570 -655l670 -751h-256l-602 675v-675zM650 -462h-101l46 277h168z" glyph-name="Kcommaaccent" horiz-adv-x="1176" unicode="Ķ"/><glyph d="M356 0h-179v1522h179v-881l402 430h211l-461 -501l519 -570h-222l-449 482v-482zM579 -462h-101l46 277h168z" glyph-name="kcommaaccent" horiz-adv-x="1014" unicode="ķ"/><glyph d="M356 0h-179v1071h179v-430l402 430h211l-461 -501l519 -570h-222l-449 482v-482z" glyph-name="kgreenlandic" horiz-adv-x="1014" unicode="ĸ"/><glyph d="M536 1825l-304 -299l-93 49l281 340zM963 0h-786v1406h189v-1236h597v-170z" glyph-name="Lacute" horiz-adv-x="955" unicode="Ĺ"/><glyph d="M521 1878l-305 -281l-93 42l281 314zM356 0h-179v1522h179v-1522z" glyph-name="lacute" horiz-adv-x="532" unicode="ĺ"/><glyph d="M963 0h-786v1406h189v-1236h597v-170zM576 -462h-101l46 277h168z" glyph-name="Lcommaaccent" horiz-adv-x="955" unicode="Ļ"/><glyph d="M356 0h-179v1522h179v-1522zM254 -462h-101l46 277h168z" glyph-name="lcommaaccent" horiz-adv-x="532" unicode="ļ"/><glyph d="M963 0h-786v1406h189v-1236h597v-170zM749 1129h-102l47 277h167z" glyph-name="Lcaron" horiz-adv-x="955" unicode="Ľ"/><glyph d="M524 1245h-102l47 278h168zM356 0h-179v1522h179v-1522z" glyph-name="lcaron" horiz-adv-x="532" unicode="ľ"/><glyph d="M963 0h-786v1406h189v-1236h597v-170zM752 601q-46 0 -75 28.5t-29 73.5t29 74t75 29t75 -29t29 -74t-29 -73.5t-75 -28.5z" glyph-name="Ldot" horiz-adv-x="955" unicode="Ŀ"/><glyph d="M356 0h-179v1522h179v-1522zM592 669q-46 0 -75 29t-29 74q0 44 29 73t75 29t75 -29t29 -73q0 -45 -29 -74t-75 -29z" glyph-name="ldot" horiz-adv-x="668" unicode="ŀ"/><glyph d="M964 0h-786v564l-136 -78l-51 90l187 108l-1 722h190v-613l342 197l52 -90l-394 -227v-503h597v-170z" glyph-name="Lslash" horiz-adv-x="955" unicode="Ł"/><glyph d="M435 0h-180v649l-237 -137l-52 89l289 168v753h180v-650l237 138l52 -90l-289 -167v-753z" glyph-name="lslash" horiz-adv-x="690" unicode="ł"/><glyph d="M1067 1825l-304 -299l-94 49l281 340zM365 0h-188v1406h188l872 -1103v1103h190v-1406h-190l-872 1104v-1104z" glyph-name="Nacute" horiz-adv-x="1604" unicode="Ń"/><glyph d="M892 1499l-304 -299l-94 49l281 340zM357 0h-180v1071h166v-135h4q49 75 130 120.5t184 45.5q177 0 296.5 -121t119.5 -301v-680h-179v684q0 104 -67.5 179.5t-181.5 75.5q-131 0 -211.5 -90t-80.5 -226v-623z" glyph-name="nacute" unicode="ń"/><glyph d="M365 0h-188v1406h188l872 -1103v1103h190v-1406h-190l-872 1104v-1104zM807 -462h-101l46 277h168z" glyph-name="Ncommaaccent" horiz-adv-x="1604" unicode="Ņ"/><glyph d="M357 0h-180v1071h166v-135h4q49 75 130 120.5t184 45.5q177 0 296.5 -121t119.5 -301v-680h-179v684q0 104 -67.5 179.5t-181.5 75.5q-131 0 -211.5 -90t-80.5 -226v-623zM621 -462h-101l46 277h168z" glyph-name="ncommaaccent" unicode="ņ"/><glyph d="M880 1526h-156l-238 296l94 49l222 -230l222 230l94 -49zM365 0h-188v1406h188l872 -1103v1103h190v-1406h-190l-872 1104v-1104z" glyph-name="Ncaron" horiz-adv-x="1604" unicode="Ň"/><glyph d="M705 1179h-156l-238 296l94 49l222 -230l223 230l93 -49zM357 0h-180v1071h166v-135h4q49 75 130 120.5t184 45.5q177 0 296.5 -121t119.5 -301v-680h-179v684q0 104 -67.5 179.5t-181.5 75.5q-131 0 -211.5 -90t-80.5 -226v-623z" glyph-name="ncaron" unicode="ň"/><glyph d="M143 1172h-102l47 277h168zM356 0h-179v1071h165v-135h5q48 75 129 120.5t184 45.5q177 0 297 -121t120 -301v-680h-179v684q0 104 -67.5 179.5t-182.5 75.5q-130 0 -211 -90t-81 -226v-623z" glyph-name="napostrophe" unicode="ŉ"/><glyph d="M1066 -462v155q82 0 131.5 49t49.5 122v137l-882 1103v-1104h-188v1406h188l872 -1092v1092h190v-1568q-1 -153 -94.5 -226.5t-266.5 -73.5z" glyph-name="Eng" horiz-adv-x="1604" unicode="Ŋ"/><glyph d="M717 -462v155q84 0 132.5 50t48.5 121v820q0 104 -66.5 179.5t-182.5 75.5q-131 0 -211.5 -89.5t-80.5 -226.5v-623h-180v1071h166v-135h4q49 76 128.5 121t185.5 45q179 0 297.5 -121t118.5 -301v-842q-4 -300 -360 -300z" glyph-name="eng" unicode="ŋ"/><glyph d="M1119 1671h-605v113h605v-113zM817 -32q-207 0 -371.5 93.5t-257 261.5t-92.5 380t92.5 380t257 261.5t371.5 93.5t371 -93.5t256.5 -261.5t92.5 -380t-92.5 -380t-256.5 -261.5t-371 -93.5zM817 149q229 0 377 155.5t148 398.5t-148 399t-377 156q-230 0 -378 -156 t-148 -399t148 -398.5t378 -155.5z" glyph-name="Omacron" horiz-adv-x="1633" unicode="Ō"/><glyph d="M955 1324h-606v113h606v-113zM652 -32q-160 0 -290 71.5t-204.5 201.5t-74.5 294t74.5 294t204.5 201.5t290 71.5t289.5 -71.5t204 -201.5t74.5 -294t-74.5 -294t-204 -201.5t-289.5 -71.5zM652 133q165 0 277 113.5t112 288.5t-112 288.5t-277 113.5t-277 -113.5 t-112 -288.5t112 -288.5t277 -113.5z" glyph-name="omacron" horiz-adv-x="1304" unicode="ō"/><glyph d="M815 1539q-129 0 -220.5 92.5t-91.5 226.5h111q0 -81 59 -137t142 -56t142 56t59 137h113q0 -134 -91.5 -226.5t-222.5 -92.5zM817 -32q-207 0 -371.5 93.5t-257 261.5t-92.5 380t92.5 380t257 261.5t371.5 93.5t371 -93.5t256.5 -261.5t92.5 -380t-92.5 -380 t-256.5 -261.5t-371 -93.5zM817 149q229 0 377 155.5t148 398.5t-148 399t-377 156q-230 0 -378 -156t-148 -399t148 -398.5t378 -155.5z" glyph-name="Obreve" horiz-adv-x="1633" unicode="Ŏ"/><glyph d="M651 1192q-130 0 -221 92.5t-91 226.5h111q0 -81 59 -137t142 -56q82 0 141.5 56t59.5 137h113q0 -134 -91.5 -226.5t-222.5 -92.5zM652 -32q-160 0 -290 71.5t-204.5 201.5t-74.5 294t74.5 294t204.5 201.5t290 71.5t289.5 -71.5t204 -201.5t74.5 -294t-74.5 -294 t-204 -201.5t-289.5 -71.5zM652 133q165 0 277 113.5t112 288.5t-112 288.5t-277 113.5t-277 -113.5t-112 -288.5t112 -288.5t277 -113.5z" glyph-name="obreve" horiz-adv-x="1304" unicode="ŏ"/><glyph d="M937 1804l-303 -299l-81 62l268 326zM1278 1801l-303 -299l-81 62l268 326zM817 -32q-207 0 -371.5 93.5t-257 261.5t-92.5 380t92.5 380t257 261.5t371.5 93.5t371 -93.5t256.5 -261.5t92.5 -380t-92.5 -380t-256.5 -261.5t-371 -93.5zM817 149q229 0 377 155.5 t148 398.5t-148 399t-377 156q-230 0 -378 -156t-148 -399t148 -398.5t378 -155.5z" glyph-name="Ohungarumlaut" horiz-adv-x="1633" unicode="Ő"/><glyph d="M765 1481l-303 -299l-81 62l267 326zM1106 1478l-304 -299l-81 62l269 326zM652 -32q-160 0 -290 71.5t-204.5 201.5t-74.5 294t74.5 294t204.5 201.5t290 71.5t289.5 -71.5t204 -201.5t74.5 -294t-74.5 -294t-204 -201.5t-289.5 -71.5zM652 133q165 0 277 113.5 t112 288.5t-112 288.5t-277 113.5t-277 -113.5t-112 -288.5t112 -288.5t277 -113.5z" glyph-name="ohungarumlaut" horiz-adv-x="1304" unicode="ő"/><glyph d="M816 -32q-207 0 -371 93.5t-256.5 261.5t-92.5 380t92.5 380t256.5 261.5t371 93.5q119 0 226 -32h786v-169h-597v-424h561v-169h-561v-475h597v-169h-786q-107 -32 -226 -32zM819 149q133 0 223 52v1004q-96 53 -223 53q-229 0 -378.5 -156t-149.5 -399 q0 -242 149.5 -398t378.5 -156z" glyph-name="OE" horiz-adv-x="1907" unicode="Œ"/><glyph d="M639 -32q-160 0 -286.5 72t-198 201.5t-71.5 293.5t71.5 293.5t198 201.5t286.5 72q151 0 272 -69t194 -196q73 128 190 196.5t266 68.5q224 0 372.5 -145t156.5 -399q0 -58 -4 -79h-885q6 -158 110 -257.5t260 -99.5q115 0 203.5 56.5t140.5 154.5l144 -85 q-65 -130 -197.5 -205t-292.5 -75q-149 0 -270 69t-194 196q-73 -127 -194 -196t-272 -69zM1202 617h706q-10 149 -106.5 242t-241.5 93t-243.5 -92.5t-114.5 -242.5zM639 139q164 0 270 111t106 285q0 169 -104 282.5t-272 113.5q-164 0 -270.5 -111.5t-106.5 -284.5 t106.5 -284.5t270.5 -111.5z" glyph-name="oe" horiz-adv-x="2168" unicode="œ"/><glyph d="M887 1825l-304 -299l-94 49l281 340zM366 0h-189v1406h436q217 0 339 -100.5t122 -306.5q0 -146 -75.5 -241.5t-198.5 -138.5l495 -619h-242l-468 588h-219v-588zM366 1236v-479h244q121 0 198 61t77 181q0 237 -275 237h-244z" glyph-name="Racute" horiz-adv-x="1278" unicode="Ŕ"/><glyph d="M733 1499l-304 -299l-93 49l281 340zM356 0h-179v1074h165l1 -147h4q47 73 127.5 115t185.5 42q51 0 94 -10v-152h-106q-131 0 -211.5 -89.5t-80.5 -228.5v-604z" glyph-name="racute" horiz-adv-x="775" unicode="ŕ"/><glyph d="M366 0h-189v1406h436q217 0 339 -100.5t122 -306.5q0 -146 -75.5 -241.5t-198.5 -138.5l495 -619h-242l-468 588h-219v-588zM366 1236v-479h244q121 0 198 61t77 181q0 237 -275 237h-244zM706 -462h-101l46 277h168z" glyph-name="Rcommaaccent" horiz-adv-x="1278" unicode="Ŗ"/><glyph d="M356 0h-179v1074h165l1 -147h4q47 73 127.5 115t185.5 42q51 0 94 -10v-152h-106q-131 0 -211.5 -89.5t-80.5 -228.5v-604zM263 -462h-101l46 277h168z" glyph-name="rcommaaccent" horiz-adv-x="775" unicode="ŗ"/><glyph d="M700 1526h-156l-238 296l94 49l222 -230l223 230l93 -49zM366 0h-189v1406h436q217 0 339 -100.5t122 -306.5q0 -146 -75.5 -241.5t-198.5 -138.5l495 -619h-242l-468 588h-219v-588zM366 1236v-479h244q121 0 198 61t77 181q0 237 -275 237h-244z" glyph-name="Rcaron" horiz-adv-x="1278" unicode="Ř"/><glyph d="M546 1179h-156l-238 296l95 49l221 -230l223 230l94 -49zM356 0h-179v1074h165l1 -147h4q47 73 127.5 115t185.5 42q51 0 94 -10v-152h-106q-131 0 -211.5 -89.5t-80.5 -228.5v-604z" glyph-name="rcaron" horiz-adv-x="775" unicode="ř"/><glyph d="M791 1825l-304 -299l-93 49l281 340zM545 -23q-198 0 -325 102.5t-153 279.5l172 32q18 -118 106 -184.5t199 -66.5q119 0 188.5 62t69.5 154q-1 80 -38 137.5t-126 100.5l-257 132q-123 62 -188 142t-65 204q0 152 112 254.5t307 102.5q173 0 281 -92.5t127 -247.5 l-172 -32q-16 97 -78 153t-158 56q-108 0 -168 -54t-60 -136q0 -66 37 -108t127 -87l252 -130q131 -67 194 -159t63 -232q0 -169 -118.5 -276t-328.5 -107z" glyph-name="Sacute" horiz-adv-x="1075" unicode="Ś"/><glyph d="M707 1499l-304 -299l-94 49l281 340zM447 -26q-165 0 -261.5 81t-112.5 221l161 17q13 -77 70 -125t141 -48q96 0 146 43t50 110q-1 63 -29 100.5t-101 69.5l-189 87q-114 48 -167.5 113.5t-53.5 160.5q0 128 91 210.5t252 82.5q152 0 246.5 -74.5t109.5 -195.5l-161 -16 q-8 63 -61.5 103.5t-128.5 40.5q-82 0 -127.5 -37.5t-45.5 -95.5q0 -48 24.5 -78t93.5 -61l188 -87q119 -50 176 -123.5t57 -186.5q0 -138 -96.5 -225t-271.5 -87z" glyph-name="sacute" horiz-adv-x="880" unicode="ś"/><glyph d="M536 1755l-221 -229l-95 49l238 296h156l239 -296l-94 -49zM545 -23q-198 0 -325 102.5t-153 279.5l172 32q18 -118 106 -184.5t199 -66.5q119 0 188.5 62t69.5 154q-1 80 -38 137.5t-126 100.5l-257 132q-123 62 -188 142t-65 204q0 152 112 254.5t307 102.5 q173 0 281 -92.5t127 -247.5l-172 -32q-16 97 -78 153t-158 56q-108 0 -168 -54t-60 -136q0 -66 37 -108t127 -87l252 -130q131 -67 194 -159t63 -232q0 -169 -118.5 -276t-328.5 -107z" glyph-name="Scircumflex" horiz-adv-x="1075" unicode="Ŝ"/><glyph d="M455 1408l-222 -229l-94 49l238 296h156l239 -296l-94 -49zM447 -26q-165 0 -261.5 81t-112.5 221l161 17q13 -77 70 -125t141 -48q96 0 146 43t50 110q-1 63 -29 100.5t-101 69.5l-189 87q-114 48 -167.5 113.5t-53.5 160.5q0 128 91 210.5t252 82.5q152 0 246.5 -74.5 t109.5 -195.5l-161 -16q-8 63 -61.5 103.5t-128.5 40.5q-82 0 -127.5 -37.5t-45.5 -95.5q0 -48 24.5 -78t93.5 -61l188 -87q119 -50 176 -123.5t57 -186.5q0 -138 -96.5 -225t-271.5 -87z" glyph-name="scircumflex" horiz-adv-x="880" unicode="ŝ"/><glyph d="M494 -462q-121 0 -178 39l40 94q49 -32 114 -32q58 0 91.5 29t33.5 75q0 112 -163 112l53 124q-170 15 -281 114.5t-137 265.5l172 32q21 -122 108.5 -186.5t196.5 -64.5q120 0 189 61.5t69 154.5q0 81 -39 138.5t-125 99.5l-257 132q-125 62 -189 142t-64 204 q0 152 111.5 254.5t307.5 102.5q178 0 283 -93t125 -247l-172 -32q-17 96 -77.5 152.5t-158.5 56.5q-109 0 -168.5 -53.5t-59.5 -136.5q0 -64 36.5 -108t127.5 -87l252 -130q132 -67 194.5 -160t62.5 -231q0 -160 -107 -266t-299 -116l-26 -62q176 -20 176 -180 q0 -93 -71 -145.5t-171 -52.5z" glyph-name="Scedilla" horiz-adv-x="1075" unicode="Ş"/><glyph d="M413 -462q-121 0 -178 39l40 94q49 -32 114 -32q58 0 91.5 29t33.5 75q0 112 -162 112l54 129q-144 10 -230.5 85t-102.5 207l161 17q13 -77 68 -125t143 -48q98 0 147 43t49 110q0 61 -29.5 100t-100.5 70l-189 87q-115 53 -168 117.5t-53 156.5q0 128 90.5 210.5 t252.5 82.5q156 0 248.5 -75t107.5 -195l-161 -16q-10 63 -62.5 103.5t-127.5 40.5q-84 0 -128.5 -37.5t-44.5 -95.5q0 -49 26.5 -79.5t91.5 -59.5l188 -87q121 -56 177 -128.5t56 -181.5q0 -124 -78 -206t-228 -95l-29 -69q176 -20 176 -180q0 -94 -70.5 -146t-172.5 -52z " glyph-name="scedilla" horiz-adv-x="880" unicode="ş"/><glyph d="M604 1526h-156l-238 296l95 49l221 -230l223 230l94 -49zM545 -23q-198 0 -325 102.5t-153 279.5l172 32q18 -118 106 -184.5t199 -66.5q119 0 188.5 62t69.5 154q-1 80 -38 137.5t-126 100.5l-257 132q-123 62 -188 142t-65 204q0 152 112 254.5t307 102.5 q173 0 281 -92.5t127 -247.5l-172 -32q-16 97 -78 153t-158 56q-108 0 -168 -54t-60 -136q0 -66 37 -108t127 -87l252 -130q131 -67 194 -159t63 -232q0 -169 -118.5 -276t-328.5 -107z" glyph-name="Scaron" horiz-adv-x="1075" unicode="Š"/><glyph d="M533 1179h-156l-238 296l94 49l222 -230l223 230l94 -49zM447 -26q-165 0 -261.5 81t-112.5 221l161 17q13 -77 70 -125t141 -48q96 0 146 43t50 110q-1 63 -29 100.5t-101 69.5l-189 87q-114 48 -167.5 113.5t-53.5 160.5q0 128 91 210.5t252 82.5q152 0 246.5 -74.5 t109.5 -195.5l-161 -16q-8 63 -61.5 103.5t-128.5 40.5q-82 0 -127.5 -37.5t-45.5 -95.5q0 -48 24.5 -78t93.5 -61l188 -87q119 -50 176 -123.5t57 -186.5q0 -138 -96.5 -225t-271.5 -87z" glyph-name="scaron" horiz-adv-x="880" unicode="š"/><glyph d="M530 -462q-117 0 -177 39l39 94q47 -32 115 -32q56 0 90.5 28.5t34.5 75.5q0 112 -163 112l61 145h-55v1237h-485v169h1159v-169h-485v-1237h-32l-35 -84q83 -9 129.5 -54.5t46.5 -125.5q0 -91 -70 -144.5t-173 -53.5z" glyph-name="Tcommaaccent" horiz-adv-x="1139" unicode="Ţ"/><glyph d="M370 -462q-121 0 -178 39l40 94q49 -32 114 -32q57 0 91 29t34 75q0 112 -163 112l75 179q-140 79 -140 263v622h-202v152h206v285l175 50v-335h289v-152h-289v-612q1 -74 47 -116.5t118 -42.5h124v-148q-72 -9 -143 -9q-54 0 -97 10l-35 -85q176 -20 176 -180 q0 -92 -69 -145t-173 -53z" glyph-name="tcommaaccent" horiz-adv-x="787" unicode="ţ"/><glyph d="M648 1526h-156l-238 296l94 49l222 -230l222 230l94 -49zM664 0h-189v1237h-485v169h1159v-169h-485v-1237z" glyph-name="Tcaron" horiz-adv-x="1139" unicode="Ť"/><glyph d="M695 1261h-102l47 277h168zM568 -9q-150 0 -237.5 80.5t-87.5 225.5v622h-202v152h206v285l175 50v-335h289v-152h-289v-612q0 -72 46 -115.5t119 -43.5h124v-148q-71 -9 -143 -9z" glyph-name="tcaron" horiz-adv-x="787" unicode="ť"/><glyph d="M664 0h-189v609h-290v103h290v525h-485v169h1159v-169h-485v-525h290v-103h-290v-609z" glyph-name="Tbar" horiz-adv-x="1139" unicode="Ŧ"/><glyph d="M568 -9q-146 0 -235.5 79t-89.5 227v208h-152v103h152v311h-202v152h206v285l175 50v-335h289v-152h-289v-311h239v-103h-239v-198q1 -74 47 -116.5t118 -42.5h124v-148q-72 -9 -143 -9z" glyph-name="tbar" horiz-adv-x="787" unicode="ŧ"/><glyph d="M894 1584q-41 0 -80 17t-64.5 37t-58.5 37t-64 17q-36 0 -66.5 -24t-46.5 -61l-86 74q28 67 79.5 106.5t114.5 39.5q41 0 80 -17t64.5 -37t58.5 -37t64 -17q36 0 66.5 24t47.5 61l85 -74q-27 -66 -78.5 -106t-115.5 -40zM758 -32q-272 0 -430.5 151t-158.5 390v897h189 v-899q0 -162 109 -265.5t291 -103.5t290.5 103.5t108.5 265.5v899h190v-897q0 -239 -159 -390t-430 -151z" glyph-name="Utilde" horiz-adv-x="1516" unicode="Ũ"/><glyph d="M747 1237q-41 0 -80 17t-64.5 37t-58.5 37t-64 17q-36 0 -66.5 -24t-46.5 -61l-86 74q28 67 79.5 106.5t114.5 39.5q41 0 80 -17t64.5 -37t58.5 -37t64 -17q36 0 66.5 24t47.5 61l85 -74q-27 -66 -78.5 -106t-115.5 -40zM578 -32q-177 0 -297 121t-120 301v680h179v-684 q0 -104 67.5 -179.5t182.5 -75.5q130 0 211 90t81 226v623h179v-1071h-165v135h-5q-48 -75 -129 -120.5t-184 -45.5z" glyph-name="utilde" unicode="ũ"/><glyph d="M1060 1671h-605v113h605v-113zM758 -32q-272 0 -430.5 151t-158.5 390v897h189v-899q0 -162 109 -265.5t291 -103.5t290.5 103.5t108.5 265.5v899h190v-897q0 -239 -159 -390t-430 -151z" glyph-name="Umacron" horiz-adv-x="1516" unicode="Ū"/><glyph d="M913 1324h-605v113h605v-113zM578 -32q-177 0 -297 121t-120 301v680h179v-684q0 -104 67.5 -179.5t182.5 -75.5q130 0 211 90t81 226v623h179v-1071h-165v135h-5q-48 -75 -129 -120.5t-184 -45.5z" glyph-name="umacron" unicode="ū"/><glyph d="M757 1539q-130 0 -221 92.5t-91 226.5h110q0 -81 59.5 -137t142.5 -56q82 0 141.5 56t59.5 137h113q0 -134 -91.5 -226.5t-222.5 -92.5zM758 -32q-272 0 -430.5 151t-158.5 390v897h189v-899q0 -162 109 -265.5t291 -103.5t290.5 103.5t108.5 265.5v899h190v-897 q0 -239 -159 -390t-430 -151z" glyph-name="Ubreve" horiz-adv-x="1516" unicode="Ŭ"/><glyph d="M610 1192q-130 0 -221 92.5t-91 226.5h110q0 -81 59.5 -137t142.5 -56q82 0 141.5 56t59.5 137h113q0 -134 -91.5 -226.5t-222.5 -92.5zM578 -32q-177 0 -297 121t-120 301v680h179v-684q0 -104 67.5 -179.5t182.5 -75.5q130 0 211 90t81 226v623h179v-1071h-165v135h-5 q-48 -75 -129 -120.5t-184 -45.5z" glyph-name="ubreve" unicode="ŭ"/><glyph d="M758 1505q-84 0 -143 58t-59 143t58.5 143t143.5 58t143.5 -58t58.5 -143t-58.5 -143t-143.5 -58zM758 1589q48 0 81.5 34t33.5 83t-33.5 83t-81.5 34t-81.5 -34t-33.5 -83t33.5 -83t81.5 -34zM758 -32q-272 0 -430.5 151t-158.5 390v897h189v-899q0 -162 109 -265.5 t291 -103.5t290.5 103.5t108.5 265.5v899h190v-897q0 -239 -159 -390t-430 -151z" glyph-name="Uring" horiz-adv-x="1516" unicode="Ů"/><glyph d="M611 1158q-84 0 -143 58t-59 143t58.5 143t143.5 58t143.5 -58t58.5 -143t-58.5 -143t-143.5 -58zM611 1242q48 0 81.5 34t33.5 83t-33.5 83t-81.5 34t-81.5 -34t-33.5 -83t33.5 -83t81.5 -34zM578 -32q-177 0 -297 121t-120 301v680h179v-684q0 -104 67.5 -179.5 t182.5 -75.5q130 0 211 90t81 226v623h179v-1071h-165v135h-5q-48 -75 -129 -120.5t-184 -45.5z" glyph-name="uring" unicode="ů"/><glyph d="M874 1804l-303 -299l-81 62l267 326zM1215 1801l-304 -299l-81 62l269 326zM758 -32q-272 0 -430.5 151t-158.5 390v897h189v-899q0 -162 109 -265.5t291 -103.5t290.5 103.5t108.5 265.5v899h190v-897q0 -239 -159 -390t-430 -151z" glyph-name="Uhungarumlaut" horiz-adv-x="1516" unicode="Ű"/><glyph d="M720 1481l-303 -299l-81 62l268 326zM1061 1478l-303 -299l-81 62l268 326zM578 -32q-177 0 -297 121t-120 301v680h179v-684q0 -104 67.5 -179.5t182.5 -75.5q130 0 211 90t81 226v623h179v-1071h-165v135h-5q-48 -75 -129 -120.5t-184 -45.5z" glyph-name="uhungarumlaut" unicode="ű"/><glyph d="M927 -462q-87 0 -133 40.5t-46 104.5q0 83 64 145l158 172q-98 -32 -212 -32q-273 0 -431 151t-158 390v897h189v-899q0 -164 108.5 -266.5t291.5 -102.5t291 104t108 265v899h190v-897q0 -129 -51.5 -234t-144.5 -174l-237 -310q-27 -34 -27 -72q0 -31 20.5 -51.5 t57.5 -20.5q50 0 90 31l32 -100q-65 -40 -160 -40z" glyph-name="Uogonek" horiz-adv-x="1516" unicode="Ų"/><glyph d="M917 -462q-90 0 -135 41.5t-45 103.5q0 71 64 148l139 168h-44l-1 135h-4q-47 -75 -127 -120.5t-186 -45.5q-180 0 -298.5 121.5t-118.5 300.5v680h179v-684q0 -104 66.5 -179.5t183.5 -75.5q130 0 210 89.5t82 226.5v624h179v-1072h-16l-142 -205q-27 -40 -27 -75 q0 -31 21 -51.5t58 -20.5q56 0 90 31l32 -100q-73 -40 -160 -40z" glyph-name="uogonek" unicode="ų"/><glyph d="M1016 1755l-221 -229l-95 49l238 296h156l239 -296l-94 -49zM736 0h-215l-520 1406h204l436 -1190l290 780l-139 410h199l404 -1179l433 1179h204l-520 -1406h-215l-280 746z" glyph-name="Wcircumflex" horiz-adv-x="2033" unicode="Ŵ"/><glyph d="M819 1408l-222 -229l-94 49l238 296h156l238 -296l-93 -49zM595 0h-171l-399 1071h193l302 -860l220 572l-96 288h173l301 -857l302 857h193l-399 -1071h-171l-224 586z" glyph-name="wcircumflex" horiz-adv-x="1639" unicode="ŵ"/><glyph d="M560 1755l-221 -229l-95 49l238 296h156l239 -296l-94 -49zM655 0h-190v577l-491 829h222l364 -643l364 643h223l-492 -829v-577z" glyph-name="Ycircumflex" horiz-adv-x="1121" unicode="Ŷ"/><glyph d="M545 1408l-221 -229l-95 49l238 296h156l239 -296l-94 -49zM65 -462v155q263 0 360 250l33 84l-433 1044h203l318 -819l308 819h199l-461 -1181q-73 -187 -198.5 -269.5t-328.5 -82.5z" glyph-name="ycircumflex" horiz-adv-x="1078" unicode="ŷ"/><glyph d="M369 1616q-49 0 -80.5 31t-31.5 80t31.5 80t80.5 31t80 -31t31 -80t-31 -80t-80 -31zM752 1616q-49 0 -80 31t-31 80t31 80t80 31t80.5 -31t31.5 -80t-31.5 -80t-80.5 -31zM655 0h-190v577l-491 829h222l364 -643l364 643h223l-492 -829v-577z" glyph-name="Ydieresis" horiz-adv-x="1121" unicode="Ÿ"/><glyph d="M819 1825l-304 -299l-94 49l281 340zM1024 0h-942v112l665 1125h-629v169h871v-111l-664 -1125h699v-170z" glyph-name="Zacute" horiz-adv-x="1055" unicode="Ź"/><glyph d="M777 1499l-304 -299l-94 49l281 340zM959 0h-895v94l614 826h-584v151h837v-92l-613 -829h641v-150z" glyph-name="zacute" horiz-adv-x="998" unicode="ź"/><glyph d="M554 1616q-52 0 -84.5 31t-32.5 80t32.5 80t84.5 31q51 0 84 -31t33 -80t-33 -80t-84 -31zM1024 0h-942v112l665 1125h-629v169h871v-111l-664 -1125h699v-170z" glyph-name="Zdotaccent" horiz-adv-x="1055" unicode="Ż"/><glyph d="M512 1269q-52 0 -84.5 31t-32.5 80t32.5 80t84.5 31q51 0 84 -31t33 -80t-33 -80t-84 -31zM959 0h-895v94l614 826h-584v151h837v-92l-613 -829h641v-150z" glyph-name="zdotaccent" horiz-adv-x="998" unicode="ż"/><glyph d="M632 1526h-156l-238 296l94 49l222 -230l222 230l94 -49zM1024 0h-942v112l665 1125h-629v169h871v-111l-664 -1125h699v-170z" glyph-name="Zcaron" horiz-adv-x="1055" unicode="Ž"/><glyph d="M590 1179h-156l-238 296l94 49l222 -230l222 230l94 -49zM959 0h-895v94l614 826h-584v151h837v-92l-613 -829h641v-150z" glyph-name="zcaron" horiz-adv-x="998" unicode="ž"/><glyph d="M545 -23q-198 0 -325 102.5t-153 279.5l172 32q18 -118 106 -184.5t199 -66.5q119 0 188.5 62t69.5 154q-1 80 -38 137.5t-126 100.5l-257 132q-123 62 -188 142t-65 204q0 152 112 254.5t307 102.5q173 0 281 -92.5t127 -247.5l-172 -32q-16 97 -78 153t-158 56 q-108 0 -168 -54t-60 -136q0 -66 37 -108t127 -87l252 -130q131 -67 194 -159t63 -232q0 -169 -118.5 -276t-328.5 -107zM532 -462h-101l46 277h168z" glyph-name="Scommaaccent" horiz-adv-x="1075" unicode="Ș"/><glyph d="M447 -26q-165 0 -261.5 81t-112.5 221l161 17q13 -77 70 -125t141 -48q96 0 146 43t50 110q-1 63 -29 100.5t-101 69.5l-189 87q-114 48 -167.5 113.5t-53.5 160.5q0 128 91 210.5t252 82.5q152 0 246.5 -74.5t109.5 -195.5l-161 -16q-8 63 -61.5 103.5t-128.5 40.5 q-82 0 -127.5 -37.5t-45.5 -95.5q0 -48 24.5 -78t93.5 -61l188 -87q119 -50 176 -123.5t57 -186.5q0 -138 -96.5 -225t-271.5 -87zM449 -462h-101l46 277h168z" glyph-name="scommaaccent" horiz-adv-x="880" unicode="ș"/><glyph d="M664 0h-189v1237h-485v169h1159v-169h-485v-1237zM568 -462h-101l46 277h168z" glyph-name="uni021A" horiz-adv-x="1139" unicode="Ț"/><glyph d="M568 -9q-150 0 -237.5 80.5t-87.5 225.5v622h-202v152h206v285l175 50v-335h289v-152h-289v-612q0 -72 46 -115.5t119 -43.5h124v-148q-71 -9 -143 -9zM413 -462h-101l46 277h168z" glyph-name="uni021B" horiz-adv-x="787" unicode="ț"/><glyph d="M863 1671h-606v113h606v-113zM655 0h-190v577l-491 829h222l364 -643l364 643h223l-492 -829v-577z" glyph-name="uni0232" horiz-adv-x="1121" unicode="Ȳ"/><glyph d="M848 1324h-606v113h606v-113zM65 -462v155q263 0 360 250l33 84l-433 1044h203l318 -819l308 819h199l-461 -1181q-73 -187 -198.5 -269.5t-328.5 -82.5z" glyph-name="uni0233" horiz-adv-x="1078" unicode="ȳ"/><glyph d="M-4 -462v155q80 0 130 49t50 122v1207h180v-1233q-1 -152 -94.5 -226t-265.5 -74z" glyph-name="uni0237" horiz-adv-x="533" unicode="ȷ"/><glyph d="M309 1183h-168l113 277h101z" glyph-name="uni02BB" horiz-adv-x="484" unicode="ʻ"/><glyph d="M246 1172h-102l47 277h168z" glyph-name="afii57929" horiz-adv-x="485" unicode="ʼ"/><glyph d="M512 1408l-222 -229l-94 49l238 296h156l238 -296l-94 -49z" glyph-name="circumflex" horiz-adv-x="1024" unicode="ˆ"/><glyph d="M590 1179h-156l-238 296l94 49l222 -230l222 230l94 -49z" glyph-name="caron" horiz-adv-x="1024" unicode="ˇ"/><glyph d="M814 1324h-605v113h605v-113z" glyph-name="uni02C9" horiz-adv-x="1024" unicode="ˉ"/><glyph d="M704 1499l-304 -299l-94 49l281 340z" glyph-name="uni02CA" horiz-adv-x="1024" unicode="ˊ"/><glyph d="M717 1249l-94 -49l-304 299l117 90z" glyph-name="uni02CB" horiz-adv-x="1024" unicode="ˋ"/><glyph d="M1032 -333h-1039v112h1039v-112z" glyph-name="uni02CD" horiz-adv-x="1024" unicode="ˍ"/><glyph d="M511 1192q-130 0 -221 92.5t-91 226.5h110q0 -81 59.5 -137t142.5 -56q82 0 141.5 56t59.5 137h113q0 -134 -91.5 -226.5t-222.5 -92.5z" glyph-name="breve" horiz-adv-x="1024" unicode="˘"/><glyph d="M512 1269q-52 0 -84.5 31t-32.5 80t32.5 80t84.5 31q51 0 84 -31t33 -80t-33 -80t-84 -31z" glyph-name="dotaccent" horiz-adv-x="1024" unicode="˙"/><glyph d="M512 1158q-84 0 -143 58t-59 143t58.5 143t143.5 58t143.5 -58t58.5 -143t-58.5 -143t-143.5 -58zM512 1242q48 0 81.5 34t33.5 83t-33.5 83t-81.5 34t-81.5 -34t-33.5 -83t33.5 -83t81.5 -34z" glyph-name="ring" horiz-adv-x="1024" unicode="˚"/><glyph d="M521 -462q-85 0 -131.5 40.5t-46.5 104.5q0 77 63 148l140 169h105l-143 -206q-27 -40 -27 -75q0 -32 21.5 -52t57.5 -20q49 0 90 31l31 -100q-60 -40 -160 -40z" glyph-name="ogonek" horiz-adv-x="1024" unicode="˛"/><glyph d="M648 1237q-41 0 -80 17t-64.5 37t-58.5 37t-64 17q-36 0 -66.5 -24t-47.5 -61l-85 74q27 66 78.5 106t114.5 40q41 0 80 -17t64.5 -37t59 -37t64.5 -17q35 0 66 24t47 61l86 -74q-28 -67 -79.5 -106.5t-114.5 -39.5z" glyph-name="tilde" horiz-adv-x="1024" unicode="˜"/><glyph d="M536 1481l-304 -299l-81 62l268 326zM877 1478l-304 -299l-81 62l268 326z" glyph-name="hungarumlaut" horiz-adv-x="1024" unicode="˝"/><glyph d="M648 -369q-41 0 -80 17t-64.5 37t-58.5 37t-64 17q-36 0 -66.5 -24t-47.5 -61l-85 74q27 66 78.5 106t114.5 40q41 0 80 -17t64.5 -37t59 -37t64.5 -17q35 0 66 24t47 61l86 -74q-27 -67 -78.5 -106.5t-115.5 -39.5z" glyph-name="uni02F7" horiz-adv-x="1024" unicode="˷"/><glyph d="M-339 1249l-94 -49l-304 299l117 90z" glyph-name="gravecomb" horiz-adv-x="0" unicode="̀"/><glyph d="M-322 1499l-304 -299l-94 49l281 340z" glyph-name="acutecomb" horiz-adv-x="0" unicode="́"/><glyph d="M-505 1408l-222 -229l-94 49l238 296h156l238 -296l-94 -49z" glyph-name="uni0302" horiz-adv-x="0" unicode="̂"/><glyph d="M-340 1237q-41 0 -80 17t-64.5 37t-58.5 37t-64 17q-36 0 -66.5 -24t-47.5 -61l-85 74q27 66 78.5 106t114.5 40q41 0 80 -17t64.5 -37t59 -37t64.5 -17q35 0 66 24t47 61l86 -74q-28 -67 -79.5 -106.5t-114.5 -39.5z" glyph-name="tildecomb" horiz-adv-x="0" unicode="̃"/><glyph d="M-154 1324h-605v113h605v-113z" glyph-name="uni0304" horiz-adv-x="0" unicode="̄"/><glyph d="M2617 1486h-1398v103h1398v-103z" glyph-name="uni0305" horiz-adv-x="0" unicode="̅"/><glyph d="M-468 1192q-130 0 -221 92.5t-91 226.5h110q0 -81 59.5 -137t142.5 -56q82 0 141.5 56t59.5 137h113q0 -134 -91.5 -226.5t-222.5 -92.5z" glyph-name="uni0306" horiz-adv-x="0" unicode="̆"/><glyph d="M-549 1269q-52 0 -84.5 31t-32.5 80t32.5 80t84.5 31q51 0 84 -31t33 -80t-33 -80t-84 -31z" glyph-name="uni0307" horiz-adv-x="0" unicode="̇"/><glyph d="M-742 1269q-49 0 -80 31t-31 80t31 80t80 31t80.5 -31t31.5 -80t-31.5 -80t-80.5 -31zM-359 1269q-49 0 -80 31t-31 80t31 80t80 31t80.5 -31t31.5 -80t-31.5 -80t-80.5 -31z" glyph-name="uni0308" horiz-adv-x="0" unicode="̈"/><glyph d="M-487 1158q-84 0 -143 58t-59 143t58.5 143t143.5 58t143.5 -58t58.5 -143t-58.5 -143t-143.5 -58zM-487 1242q48 0 81.5 34t33.5 83t-33.5 83t-81.5 34t-81.5 -34t-33.5 -83t33.5 -83t81.5 -34z" glyph-name="uni030A" horiz-adv-x="0" unicode="̊"/><glyph d="M-443 1481l-304 -299l-81 62l268 326zM-102 1478l-304 -299l-81 62l268 326z" glyph-name="uni030B" horiz-adv-x="0" unicode="̋"/><glyph d="M-427 1179h-156l-238 296l94 49l222 -230l222 230l94 -49z" glyph-name="uni030C" horiz-adv-x="0" unicode="̌"/><glyph d="M-753 1496q-46 0 -75.5 31t-29.5 80t29.5 80t75.5 31q47 0 76.5 -31t29.5 -80t-29.5 -80t-76.5 -31zM-754 1177q-130 0 -221 92.5t-91 226.5h111q0 -81 59 -137t142 -56q82 0 141.5 56t59.5 137h113q0 -134 -91.5 -226.5t-222.5 -92.5z" glyph-name="uni0310" horiz-adv-x="0" unicode="̐"/><glyph d="M-71 1227h-102l47 278h168z" glyph-name="uni0315" horiz-adv-x="0" unicode="̕"/><glyph d="M-478 -360q-50 0 -81.5 30t-31.5 76q0 47 31.5 77t81.5 30t81.5 -30t31.5 -77q0 -46 -31.5 -76t-81.5 -30z" glyph-name="dotbelowcomb" horiz-adv-x="0" unicode="̣"/><glyph d="M-672 -358q-49 0 -80 31t-31 80t31 80t80 31t80.5 -31t31.5 -80t-31.5 -80t-80.5 -31zM-289 -358q-49 0 -80 31t-31 80t31 80t80 31t80.5 -31t31.5 -80t-31 -80t-81 -31z" glyph-name="uni0324" horiz-adv-x="0" unicode="̤"/><glyph d="M-407 -462q-84 0 -143 58t-59 143t58.5 143t143.5 58t143.5 -58t58.5 -143t-58.5 -143t-143.5 -58zM-407 -378q48 0 81.5 34t33.5 83t-33.5 83.5t-81.5 34.5t-81.5 -34.5t-33.5 -83.5t33.5 -83t81.5 -34z" glyph-name="uni0325" horiz-adv-x="0" unicode="̥"/><glyph d="M-444 -462h-101l46 277h168z" glyph-name="uni0326" horiz-adv-x="0" unicode="̦"/><glyph d="M424 0h-179v919h-185v152h1257v-152h-193v-602q0 -73 46.5 -119.5t118.5 -46.5h78v-151h-106q-145 2 -230.5 87.5t-85.5 228.5v603h-521v-919z" glyph-name="pi" horiz-adv-x="1401" unicode="π"/><glyph d="M691 0h-514v1406h514q315 0 511 -194.5t196 -506.5q0 -206 -88.5 -366.5t-249.5 -249.5t-369 -89zM366 1237v-1067h318q228 0 373 150t145 385t-144.5 383.5t-373.5 148.5h-318zM740 -360q-50 0 -81.5 30t-31.5 76q0 47 31.5 77t81.5 30t81.5 -30t31.5 -77 q0 -46 -31.5 -76t-81.5 -30z" glyph-name="uni1E0C" horiz-adv-x="1494" unicode="Ḍ"/><glyph d="M632 -32q-153 0 -278 72t-197.5 202t-72.5 293t72.5 293t197.5 202t278 72q128 0 224.5 -47.5t159.5 -120.5v588h179v-1522h-165v147h-5q-61 -77 -162 -128t-231 -51zM642 134q164 0 271.5 113t107.5 288q0 176 -107.5 289t-271.5 113t-271.5 -113t-107.5 -289 q0 -175 107.5 -288t271.5 -113zM638 -360q-50 0 -81.5 30t-31.5 76q0 47 31.5 77t81.5 30t81.5 -30t31.5 -77q0 -46 -31.5 -76t-81.5 -30z" glyph-name="uni1E0D" horiz-adv-x="1372" unicode="ḍ"/><glyph d="M366 0h-189v1406h189v-592h822v592h190v-1406h-190v644h-822v-644zM777 -360q-50 0 -81.5 30t-31.5 76q0 47 31.5 77t81.5 30t81.5 -30t31.5 -77q0 -46 -31.5 -76t-81.5 -30z" glyph-name="uni1E24" horiz-adv-x="1555" unicode="Ḥ"/><glyph d="M356 0h-179v1522h179v-586q49 75 132 120.5t186 45.5q176 0 290 -120t114 -302v-680h-179v684q0 111 -67.5 189.5t-182.5 78.5q-131 0 -212 -92.5t-81 -235.5v-624zM627 -360q-50 0 -81.5 30t-31.5 76q0 47 31.5 77t81.5 30t81.5 -30t31.5 -77q0 -46 -31.5 -76t-81.5 -30 z" glyph-name="uni1E25" horiz-adv-x="1239" unicode="ḥ"/><glyph d="M366 0h-189v1406h189v-605l521 605h237l-570 -655l670 -751h-256l-602 675v-675zM648 -360q-50 0 -81.5 30t-31.5 76q0 47 31.5 77t81.5 30q49 0 80.5 -30t31.5 -77q0 -46 -31.5 -76t-80.5 -30z" glyph-name="uni1E32" horiz-adv-x="1176" unicode="Ḳ"/><glyph d="M356 0h-179v1522h179v-881l402 430h211l-461 -501l519 -570h-222l-449 482v-482zM585 -360q-50 0 -81.5 30t-31.5 76q0 47 31.5 77t81.5 30t81.5 -30t31.5 -77q0 -46 -31.5 -76t-81.5 -30z" glyph-name="uni1E33" horiz-adv-x="1014" unicode="ḳ"/><glyph d="M963 0h-786v1406h189v-1236h597v-170zM570 -360q-50 0 -81.5 30t-31.5 76q0 47 31.5 77t81.5 30t81.5 -30t31.5 -77q0 -46 -31.5 -76t-81.5 -30z" glyph-name="uni1E36" horiz-adv-x="955" unicode="Ḷ"/><glyph d="M356 0h-179v1522h179v-1522zM266 -360q-50 0 -81.5 30t-31.5 76q0 47 31.5 77t81.5 30t81.5 -30t31.5 -77q0 -46 -31.5 -76t-81.5 -30z" glyph-name="uni1E37" horiz-adv-x="532" unicode="ḷ"/><glyph d="M556 1671h-530v113h530v-113zM963 0h-786v1406h189v-1236h597v-170zM570 -360q-50 0 -81.5 30t-31.5 76q0 47 31.5 77t81.5 30t81.5 -30t31.5 -77q0 -46 -31.5 -76t-81.5 -30z" glyph-name="uni1E38" horiz-adv-x="955" unicode="Ḹ"/><glyph d="M521 1779h-508v113h508v-113zM357 0h-179v1522h179v-1522zM267 -360q-50 0 -81.5 30t-31.5 76q0 47 31.5 77t81.5 30t81.5 -30t31.5 -77q0 -46 -31.5 -76t-81.5 -30z" glyph-name="uni1E39" horiz-adv-x="532" unicode="ḹ"/><glyph d="M963 0h-786v1406h189v-1236h597v-170zM916 -333h-692v112h692v-112z" glyph-name="uni1E3A" horiz-adv-x="955" unicode="Ḻ"/><glyph d="M356 0h-179v1522h179v-1522zM508 -333h-484v112h484v-112z" glyph-name="uni1E3B" horiz-adv-x="532" unicode="ḻ"/><glyph d="M948 1616q-51 0 -84 31t-33 80t33 80t84 31q52 0 85 -31t33 -80t-33 -80t-85 -31zM284 0h-190l179 1406h200l475 -1136l476 1136h200l179 -1406h-189l-135 1094l-465 -1094h-130l-466 1094z" glyph-name="uni1E40" horiz-adv-x="1897" unicode="Ṁ"/><glyph d="M976 1269q-52 0 -84.5 31t-32.5 80t32.5 80t84.5 31q51 0 84 -31t33 -80t-33 -80t-84 -31zM356 0h-179v1071h165v-135h4q48 74 135.5 120t191.5 46q108 0 191.5 -48.5t136.5 -135.5q53 84 150.5 134t218.5 50q176 0 290.5 -120t114.5 -302v-680h-180v684q0 105 -62 180 t-175 75q-130 0 -211 -90t-81 -226v-623h-180v684q0 105 -62 180t-176 75q-130 0 -211 -90t-81 -226v-623z" glyph-name="uni1E41" horiz-adv-x="1936" unicode="ṁ"/><glyph d="M284 0h-190l179 1406h200l475 -1136l476 1136h200l179 -1406h-189l-135 1094l-465 -1094h-130l-466 1094zM948 -360q-50 0 -81.5 30t-31.5 76q0 47 31.5 77t81.5 30t81.5 -30t31.5 -77q0 -46 -31.5 -76t-81.5 -30z" glyph-name="uni1E42" horiz-adv-x="1897" unicode="Ṃ"/><glyph d="M356 0h-179v1071h165v-135h4q48 74 135.5 120t191.5 46q108 0 191.5 -48.5t136.5 -135.5q53 84 150.5 134t218.5 50q176 0 290.5 -120t114.5 -302v-680h-180v684q0 105 -62 180t-175 75q-130 0 -211 -90t-81 -226v-623h-180v684q0 105 -62 180t-176 75q-130 0 -211 -90 t-81 -226v-623zM976 -360q-50 0 -81.5 30t-31.5 76q0 47 31.5 77t81.5 30q49 0 80.5 -30t31.5 -77q0 -46 -31.5 -76t-80.5 -30z" glyph-name="uni1E43" horiz-adv-x="1936" unicode="ṃ"/><glyph d="M802 1616q-52 0 -84.5 31t-32.5 80t32.5 80t84.5 31q51 0 84 -31t33 -80t-33 -80t-84 -31zM365 0h-188v1406h188l872 -1103v1103h190v-1406h-190l-872 1104v-1104z" glyph-name="uni1E44" horiz-adv-x="1604" unicode="Ṅ"/><glyph d="M627 1269q-51 0 -84 31t-33 80t33 80t84 31q52 0 84.5 -31t32.5 -80t-32.5 -80t-84.5 -31zM357 0h-180v1071h166v-135h4q49 75 130 120.5t184 45.5q177 0 296.5 -121t119.5 -301v-680h-179v684q0 104 -67.5 179.5t-181.5 75.5q-131 0 -211.5 -90t-80.5 -226v-623z" glyph-name="uni1E45" unicode="ṅ"/><glyph d="M365 0h-188v1406h188l872 -1103v1103h190v-1406h-190l-872 1104v-1104zM802 -360q-50 0 -81.5 30t-31.5 76q0 47 31.5 77t81.5 30q49 0 80.5 -30t31.5 -77q0 -46 -31.5 -76t-80.5 -30z" glyph-name="uni1E46" horiz-adv-x="1604" unicode="Ṇ"/><glyph d="M357 0h-180v1071h166v-135h4q49 75 130 120.5t184 45.5q177 0 296.5 -121t119.5 -301v-680h-179v684q0 104 -67.5 179.5t-181.5 75.5q-131 0 -211.5 -90t-80.5 -226v-623zM627 -360q-50 0 -81.5 30t-31.5 76q0 47 31.5 77t81.5 30t81.5 -30t31.5 -77q0 -46 -31.5 -76 t-81.5 -30z" glyph-name="uni1E47" unicode="ṇ"/><glyph d="M365 0h-188v1406h188l872 -1103v1103h190v-1406h-190l-872 1104v-1104zM1217 -333h-831v112h831v-112z" glyph-name="uni1E48" horiz-adv-x="1604" unicode="Ṉ"/><glyph d="M357 0h-180v1071h166v-135h4q49 75 130 120.5t184 45.5q177 0 296.5 -121t119.5 -301v-680h-179v684q0 104 -67.5 179.5t-181.5 75.5q-131 0 -211.5 -90t-80.5 -226v-623zM973 -333h-692v112h692v-112z" glyph-name="uni1E49" unicode="ṉ"/><glyph d="M622 1616q-51 0 -84 31t-33 80t33 80t84 31q52 0 84.5 -31t32.5 -80t-32.5 -80t-84.5 -31zM366 0h-189v1406h436q217 0 339 -100.5t122 -306.5q0 -146 -75.5 -241.5t-198.5 -138.5l495 -619h-242l-468 588h-219v-588zM366 1236v-479h244q121 0 198 61t77 181 q0 237 -275 237h-244z" glyph-name="uni1E58" horiz-adv-x="1278" unicode="Ṙ"/><glyph d="M468 1269q-51 0 -84 31t-33 80t33 80t84 31q52 0 85 -31t33 -80t-33 -80t-85 -31zM356 0h-179v1074h165l1 -147h4q47 73 127.5 115t185.5 42q51 0 94 -10v-152h-106q-131 0 -211.5 -89.5t-80.5 -228.5v-604z" glyph-name="uni1E59" horiz-adv-x="775" unicode="ṙ"/><glyph d="M366 0h-189v1406h436q217 0 339 -100.5t122 -306.5q0 -146 -75.5 -241.5t-198.5 -138.5l495 -619h-242l-468 588h-219v-588zM366 1236v-479h244q121 0 198 61t77 181q0 237 -275 237h-244zM704 -360q-50 0 -81.5 30t-31.5 76q0 47 31.5 77t81.5 30t81.5 -30t31.5 -77 q0 -46 -31.5 -76t-81.5 -30z" glyph-name="uni1E5A" horiz-adv-x="1278" unicode="Ṛ"/><glyph d="M356 0h-179v1074h165l1 -147h4q47 73 127.5 115t185.5 42q51 0 94 -10v-152h-106q-131 0 -211.5 -89.5t-80.5 -228.5v-604zM266 -360q-50 0 -81.5 30t-31.5 76q0 47 31.5 77t81.5 30t81.5 -30t31.5 -77q0 -46 -31.5 -76t-81.5 -30z" glyph-name="uni1E5B" horiz-adv-x="775" unicode="ṛ"/><glyph d="M924 1671h-605v113h605v-113zM366 0h-189v1406h436q217 0 339 -100.5t122 -306.5q0 -146 -75.5 -241.5t-198.5 -138.5l495 -619h-242l-468 588h-219v-588zM366 1236v-479h244q121 0 198 61t77 181q0 237 -275 237h-244zM704 -360q-50 0 -81.5 30t-31.5 76q0 47 31.5 77 t81.5 30t81.5 -30t31.5 -77q0 -46 -31.5 -76t-81.5 -30z" glyph-name="uni1E5C" horiz-adv-x="1278" unicode="Ṝ"/><glyph d="M748 1324h-559v113h559v-113zM356 0h-179v1074h165l1 -147h4q47 73 127.5 115t185.5 42q51 0 94 -10v-152h-106q-131 0 -211.5 -89.5t-80.5 -228.5v-604zM266 -360q-50 0 -81.5 30t-31.5 76q0 47 31.5 77t81.5 30t81.5 -30t31.5 -77q0 -46 -31.5 -76t-81.5 -30z" glyph-name="uni1E5D" horiz-adv-x="775" unicode="ṝ"/><glyph d="M366 0h-189v1406h436q217 0 339 -100.5t122 -306.5q0 -146 -75.5 -241.5t-198.5 -138.5l495 -619h-242l-468 588h-219v-588zM366 1236v-479h244q121 0 198 61t77 181q0 237 -275 237h-244zM1066 -333h-691v112h691v-112z" glyph-name="uni1E5E" horiz-adv-x="1278" unicode="Ṟ"/><glyph d="M356 0h-179v1074h165l1 -147h4q47 73 127.5 115t185.5 42q51 0 94 -10v-152h-106q-131 0 -211.5 -89.5t-80.5 -228.5v-604zM561 -333h-484v112h484v-112z" glyph-name="uni1E5F" horiz-adv-x="775" unicode="ṟ"/><glyph d="M545 -23q-198 0 -325 102.5t-153 279.5l172 32q18 -118 106 -184.5t199 -66.5q119 0 188.5 62t69.5 154q-1 80 -38 137.5t-126 100.5l-257 132q-123 62 -188 142t-65 204q0 152 112 254.5t307 102.5q173 0 281 -92.5t127 -247.5l-172 -32q-16 97 -78 153t-158 56 q-108 0 -168 -54t-60 -136q0 -66 37 -108t127 -87l252 -130q131 -67 194 -159t63 -232q0 -169 -118.5 -276t-328.5 -107zM526 -360q-50 0 -81.5 30t-31.5 76q0 47 31.5 77t81.5 30t81.5 -30t31.5 -77q0 -46 -31.5 -76t-81.5 -30z" glyph-name="uni1E62" horiz-adv-x="1075" unicode="Ṣ"/><glyph d="M447 -26q-165 0 -261.5 81t-112.5 221l161 17q13 -77 70 -125t141 -48q96 0 146 43t50 110q-1 63 -29 100.5t-101 69.5l-189 87q-114 48 -167.5 113.5t-53.5 160.5q0 128 91 210.5t252 82.5q152 0 246.5 -74.5t109.5 -195.5l-161 -16q-8 63 -61.5 103.5t-128.5 40.5 q-82 0 -127.5 -37.5t-45.5 -95.5q0 -48 24.5 -78t93.5 -61l188 -87q119 -50 176 -123.5t57 -186.5q0 -138 -96.5 -225t-271.5 -87zM455 -360q-50 0 -81.5 30t-31.5 76q0 47 31.5 77t81.5 30t81.5 -30t31.5 -77q0 -46 -31.5 -76t-81.5 -30z" glyph-name="uni1E63" horiz-adv-x="880" unicode="ṣ"/><glyph d="M664 0h-189v1237h-485v169h1159v-169h-485v-1237zM570 -360q-50 0 -81.5 30t-31.5 76q0 47 31.5 77t81.5 30q49 0 80.5 -30t31.5 -77q0 -46 -31.5 -76t-80.5 -30z" glyph-name="uni1E6C" horiz-adv-x="1139" unicode="Ṭ"/><glyph d="M568 -9q-150 0 -237.5 80.5t-87.5 225.5v622h-202v152h206v285l175 50v-335h289v-152h-289v-612q0 -72 46 -115.5t119 -43.5h124v-148q-71 -9 -143 -9zM452 -360q-50 0 -81.5 30t-31.5 76q0 47 31.5 77t81.5 30t81.5 -30t31.5 -77q0 -46 -31.5 -76t-81.5 -30z" glyph-name="uni1E6D" horiz-adv-x="787" unicode="ṭ"/><glyph d="M1149 1575l-94 -49l-304 299l117 90zM736 0h-215l-520 1406h204l436 -1190l290 780l-139 410h199l404 -1179l433 1179h204l-520 -1406h-215l-280 746z" glyph-name="Wgrave" horiz-adv-x="2033" unicode="Ẁ"/><glyph d="M951 1249l-94 -49l-303 299l117 90zM595 0h-171l-399 1071h193l302 -860l220 572l-96 288h173l301 -857l302 857h193l-399 -1071h-171l-224 586z" glyph-name="wgrave" horiz-adv-x="1639" unicode="ẁ"/><glyph d="M1281 1825l-304 -299l-93 49l281 340zM736 0h-215l-520 1406h204l436 -1190l290 780l-139 410h199l404 -1179l433 1179h204l-520 -1406h-215l-280 746z" glyph-name="Wacute" horiz-adv-x="2033" unicode="Ẃ"/><glyph d="M1084 1499l-304 -299l-94 49l281 340zM595 0h-171l-399 1071h193l302 -860l220 572l-96 288h173l301 -857l302 857h193l-399 -1071h-171l-224 586z" glyph-name="wacute" horiz-adv-x="1639" unicode="ẃ"/><glyph d="M825 1616q-49 0 -80.5 31t-31.5 80t31.5 80t80.5 31t80 -31t31 -80t-31 -80t-80 -31zM1208 1616q-49 0 -80 31t-31 80t31 80t80 31t80.5 -31t31.5 -80t-31.5 -80t-80.5 -31zM736 0h-215l-520 1406h204l436 -1190l290 780l-139 410h199l404 -1179l433 1179h204l-520 -1406 h-215l-280 746z" glyph-name="Wdieresis" horiz-adv-x="2033" unicode="Ẅ"/><glyph d="M627 1269q-49 0 -80 31t-31 80t31 80t80 31t80.5 -31t31.5 -80t-31.5 -80t-80.5 -31zM1011 1269q-49 0 -80.5 31t-31.5 80t31.5 80t80.5 31t80 -31t31 -80t-31 -80t-80 -31zM595 0h-171l-399 1071h193l302 -860l220 572l-96 288h173l301 -857l302 857h193l-399 -1071 h-171l-224 586z" glyph-name="wdieresis" horiz-adv-x="1639" unicode="ẅ"/><glyph d="M736 0h-215l-520 1406h204l436 -1190l290 780l-139 410h199l404 -1179l433 1179h204l-520 -1406h-215l-280 746zM1016 -360q-50 0 -81.5 30t-31.5 76q0 47 31.5 77t81.5 30t81.5 -30t31.5 -77q0 -46 -31.5 -76t-81.5 -30z" glyph-name="uni1E88" horiz-adv-x="2033" unicode="Ẉ"/><glyph d="M595 0h-171l-399 1071h193l302 -860l220 572l-96 288h173l301 -857l302 857h193l-399 -1071h-171l-224 586zM819 -360q-50 0 -81.5 30t-31.5 76q0 47 31.5 77t81.5 30t81.5 -30t31.5 -77q0 -46 -31.5 -76t-81.5 -30z" glyph-name="uni1E89" horiz-adv-x="1639" unicode="ẉ"/><glyph d="M1024 0h-942v112l665 1125h-629v169h871v-111l-664 -1125h699v-170zM554 -360q-50 0 -81.5 30t-31.5 76q0 47 31.5 77t81.5 30q49 0 80.5 -30t31.5 -77q0 -46 -31.5 -76t-80.5 -30z" glyph-name="uni1E92" horiz-adv-x="1055" unicode="Ẓ"/><glyph d="M959 0h-895v94l614 826h-584v151h837v-92l-613 -829h641v-150zM512 -360q-50 0 -81.5 30t-31.5 76q0 47 31.5 77t81.5 30q49 0 80.5 -30t31.5 -77q0 -46 -31.5 -76t-80.5 -30z" glyph-name="uni1E93" horiz-adv-x="998" unicode="ẓ"/><glyph d="M735 -15q-116 0 -230 15v151h231q131 0 219 73.5t88 199.5q0 120 -84 192t-227 72h-178v133l329 416h-289q-112 0 -178 -66.5t-68 -177.5v-993h-189v994q0 185 118.5 298.5t316.5 113.5h521v-113l-373 -466h74q82 0 155 -24.5t132.5 -71.5t94 -125t34.5 -177 q0 -203 -138 -323.5t-359 -120.5z" glyph-name="uni1E9E" horiz-adv-x="1311" unicode="ẞ"/><glyph d="M706 1584q-41 0 -80 17t-64.5 37t-58.5 37t-64 17q-36 0 -66.5 -24t-47.5 -61l-85 74q27 66 78.5 106t114.5 40q41 0 80 -17t64.5 -37t59 -37t64.5 -17q35 0 66 24t47 61l86 -74q-28 -67 -79.5 -106.5t-114.5 -39.5zM965 0h-788v1406h788v-169h-598v-424h561v-169h-561 v-475h598v-169z" glyph-name="uni1EBC" horiz-adv-x="1044" unicode="Ẽ"/><glyph d="M776 1237q-41 0 -80 17t-64.5 37t-58.5 37t-64 17q-36 0 -66.5 -24t-46.5 -61l-86 74q28 67 79.5 106.5t114.5 39.5q41 0 80 -17t64.5 -37t58.5 -37t64 -17q36 0 66.5 24t47.5 61l85 -74q-27 -66 -78.5 -106t-115.5 -40zM646 -32q-156 0 -284 70t-203.5 200.5 t-75.5 296.5q0 125 42.5 231.5t117 180t176.5 114.5t218 41q224 0 368.5 -144.5t152.5 -399.5q0 -58 -4 -79h-886q7 -157 115 -257t264 -100q115 0 204 56.5t141 154.5l144 -85q-65 -130 -197.5 -205t-292.5 -75zM270 617h706q-10 150 -102.5 242.5t-236.5 92.5 q-146 0 -249 -93t-118 -242z" glyph-name="uni1EBD" horiz-adv-x="1236" unicode="ẽ"/><glyph d="M693 1575l-94 -49l-304 299l117 90zM655 0h-190v577l-491 829h222l364 -643l364 643h223l-492 -829v-577z" glyph-name="Ygrave" horiz-adv-x="1121" unicode="Ỳ"/><glyph d="M678 1249l-94 -49l-304 299l117 90zM65 -462v155q263 0 360 250l33 84l-433 1044h203l318 -819l308 819h199l-461 -1181q-73 -187 -198.5 -269.5t-328.5 -82.5z" glyph-name="ygrave" horiz-adv-x="1078" unicode="ỳ"/><glyph d="M655 0h-190v577l-491 829h222l364 -643l364 643h223l-492 -829v-577zM560 -360q-50 0 -81.5 30t-31.5 76q0 47 31.5 77t81.5 30t81.5 -30t31.5 -77q0 -46 -31.5 -76t-81.5 -30z" glyph-name="uni1EF4" horiz-adv-x="1121" unicode="Ỵ"/><glyph d="M65 -462v155q263 0 360 250l33 84l-433 1044h203l318 -819l308 819h199l-461 -1181q-73 -187 -198.5 -269.5t-328.5 -82.5zM851 -360q-50 0 -81.5 30t-31.5 76q0 47 31.5 77t81.5 30q49 0 80.5 -30t31.5 -77q0 -46 -31.5 -76t-80.5 -30z" glyph-name="uni1EF5" horiz-adv-x="1078" unicode="ỵ"/><glyph d="M615 444h-508v161h508v-161z" glyph-name="uni2010" horiz-adv-x="721" unicode="‐"/><glyph d="M615 444h-508v161h508v-161z" glyph-name="uni2011" horiz-adv-x="721" unicode="‑"/><glyph d="M1139 633h-1041v161h1041v-161z" glyph-name="figuredash" unicode="‒"/><glyph d="M1139 444h-1041v161h1041v-161z" glyph-name="endash" unicode="–"/><glyph d="M2049 444h-2048v161h2048v-161z" glyph-name="emdash" horiz-adv-x="2048" unicode="—"/><glyph d="M378 1072h-219l151 429h130z" glyph-name="quoteleft" horiz-adv-x="569" unicode="‘"/><glyph d="M259 1072h-130l63 429h218z" glyph-name="quoteright" horiz-adv-x="569" unicode="’"/><glyph d="M259 -240h-130l62 429h219z" glyph-name="quotesinglbase" horiz-adv-x="569" unicode="‚"/><glyph d="M378 1072h-219l151 429h130zM701 1072h-218l151 429h130z" glyph-name="quotedblleft" horiz-adv-x="893" unicode="“"/><glyph d="M259 1072h-130l63 429h218zM583 1072h-131l63 429h219z" glyph-name="quotedblright" horiz-adv-x="893" unicode="”"/><glyph d="M259 -240h-130l62 429h219zM582 -240h-130l63 429h219z" glyph-name="quotedblbase" horiz-adv-x="893" unicode="„"/><glyph d="M677 0h-117v953h-337v117h337v336h117v-336h337v-117h-337v-953z" glyph-name="dagger" unicode="†"/><glyph d="M677 0h-117v336h-337v117h337v500h-337v117h337v336h117v-336h337v-117h-337v-500h337v-117h-337v-336z" glyph-name="daggerdbl" unicode="‡"/><glyph d="M341 481q-89 0 -146.5 56.5t-57.5 144.5t57.5 144t146.5 56q90 0 147 -56t57 -144q0 -89 -57 -145t-147 -56z" glyph-name="bullet" horiz-adv-x="683" unicode="•"/><glyph d="M341 -32q-55 0 -90 34.5t-35 88.5t35 89t90 35t90.5 -35t35.5 -89t-35.5 -88.5t-90.5 -34.5zM1024 -32q-55 0 -90 34.5t-35 88.5t35 89t90 35t90.5 -35t35.5 -89t-35.5 -88.5t-90.5 -34.5zM1707 -32q-55 0 -90 34.5t-35 88.5t35 89t90 35t90.5 -35t35.5 -89t-35.5 -88.5 t-90.5 -34.5z" glyph-name="ellipsis" horiz-adv-x="2048" unicode="…"/><glyph d="M1427 1375l-892 -1423l-91 58l893 1422zM471 634q-173 0 -284.5 111.5t-111.5 285.5t111.5 285t284.5 111q174 0 285 -111t111 -285t-111 -285.5t-285 -111.5zM471 773q110 0 181 72.5t71 185.5t-71 185.5t-181 72.5t-181 -72.5t-71 -185.5t71 -185.5t181 -72.5z M1400 -43q-173 0 -284 111.5t-111 285.5t111 285t284 111q174 0 285 -111t111 -285t-111 -285.5t-285 -111.5zM2304 -43q-173 0 -284 111.5t-111 285.5t111 285t284 111q174 0 285 -111t111 -285t-111 -285.5t-285 -111.5zM1400 96q111 0 181.5 72.5t70.5 185.5t-70.5 185.5 t-181.5 72.5q-110 0 -180.5 -72.5t-70.5 -185.5t70.5 -185.5t180.5 -72.5zM2304 96q111 0 181.5 72.5t70.5 185.5t-70.5 185.5t-181.5 72.5q-110 0 -180.5 -72.5t-70.5 -185.5t70.5 -185.5t180.5 -72.5z" glyph-name="perthousand" horiz-adv-x="2775" unicode="‰"/><glyph d="M567 88h-165l-265 458l265 457h165l-263 -457z" glyph-name="guilsinglleft" horiz-adv-x="752" unicode="‹"/><glyph d="M350 88h-166l263 458l-263 457h166l265 -457z" glyph-name="guilsinglright" horiz-adv-x="752" unicode="›"/><glyph d="M587 1375l-893 -1423l-90 58l892 1422z" glyph-name="fraction" horiz-adv-x="191" unicode="⁄"/><glyph d="M587 1375l-893 -1423l-90 58l892 1422z" glyph-name="fraction" horiz-adv-x="191" unicode="∕"/><glyph d="M336 1039q-128 0 -201.5 90t-73.5 277t73.5 277t201.5 90t201.5 -90t73.5 -277t-73.5 -277t-201.5 -90zM336 1157q67 0 106 60.5t39 188.5q0 249 -145 249t-145 -249q0 -128 39 -188.5t106 -60.5z" glyph-name="uni2070" horiz-adv-x="671" unicode="⁰"/><glyph d="M555 1055h-131v145h-369v87l230 470h148l-220 -445h211v174h131v-174h61v-112h-61v-145z" glyph-name="uni2074" horiz-adv-x="672" unicode="⁴"/><glyph d="M333 1038q-107 0 -181 49t-89 135l133 16q10 -39 47 -65.5t90 -26.5q60 0 100.5 34.5t40.5 88.5q0 53 -32.5 88t-95.5 35h-257v365h480v-112h-349v-148h165q98 0 161 -59t63 -165t-78 -170.5t-198 -64.5z" glyph-name="uni2075" horiz-adv-x="672" unicode="⁵"/><glyph d="M336 1038q-118 0 -197 64.5t-79 179.5q0 82 46 152l205 323h152l-173 -262q36 21 86 21q100 0 168 -62.5t68 -171.5q0 -115 -79 -179.5t-197 -64.5zM336 1157q61 0 101 35.5t40 92.5t-40 93t-101 36t-101 -36t-40 -93t40 -92.5t101 -35.5z" glyph-name="uni2076" horiz-adv-x="672" unicode="⁶"/><glyph d="M281 1054h-151l292 591h-351v111h513v-87z" glyph-name="uni2077" horiz-adv-x="672" unicode="⁷"/><glyph d="M336 1038q-117 0 -196 56t-79 161q0 61 33 107.5t89 67.5q-43 20 -67.5 59t-24.5 86q0 93 67.5 145t177.5 52t177.5 -52t67.5 -145q0 -47 -24.5 -86t-67.5 -59q56 -21 89 -67.5t33 -107.5q0 -105 -79 -161t-196 -56zM336 1471q53 0 84 27t31 70q0 44 -32 70t-83 26 t-83 -26t-32 -70q0 -43 31 -70t84 -27zM336 1146q53 0 94 29.5t41 83.5q0 52 -37.5 82t-97.5 30t-97.5 -29.5t-37.5 -82.5q0 -54 41 -83.5t94 -29.5z" glyph-name="uni2078" horiz-adv-x="672" unicode="⁸"/><glyph d="M361 1054h-152l173 262q-36 -21 -86 -21q-100 0 -168 62.5t-68 171.5q0 115 79 179.5t197 64.5t197 -64.5t79 -179.5q0 -82 -46 -152zM336 1397q61 0 101 36t40 93t-40 92.5t-101 35.5t-101 -35.5t-40 -92.5t40 -93t101 -36z" glyph-name="uni2079" horiz-adv-x="672" unicode="⁹"/><glyph d="M336 -367q-128 0 -201.5 90t-73.5 277t73.5 277t201.5 90t201.5 -90t73.5 -277t-73.5 -277t-201.5 -90zM336 -249q67 0 106 60.5t39 188.5q0 249 -145 249t-145 -249q0 -128 39 -188.5t106 -60.5z" glyph-name="uni2080" horiz-adv-x="671" unicode="₀"/><glyph d="M444 -351h-131v589h-186v101l203 13h114v-703z" glyph-name="uni2081" horiz-adv-x="672" unicode="₁"/><glyph d="M602 -352h-544v69l309 250q32 27 51.5 46.5t37 50.5t17.5 62q0 50 -38.5 86t-101.5 36q-62 0 -101 -36.5t-39 -86.5v-33h-135v33q0 108 78 175t197 67q120 0 197.5 -65.5t77.5 -176.5q0 -70 -34.5 -121t-98.5 -101l-175 -143h302v-112z" glyph-name="uni2082" horiz-adv-x="672" unicode="₂"/><glyph d="M333 -367q-104 0 -179.5 49t-90.5 135l134 16q10 -40 46.5 -66t89.5 -26q60 0 100.5 34t40.5 88t-33 88.5t-95 34.5h-110v69l158 185h-302v111h465v-84l-161 -188h19q81 0 137 -57.5t56 -154.5q0 -105 -78 -169.5t-197 -64.5z" glyph-name="uni2083" horiz-adv-x="672" unicode="₃"/><glyph d="M555 -351h-131v145h-369v87l230 470h148l-220 -445h211v174h131v-174h61v-112h-61v-145z" glyph-name="uni2084" horiz-adv-x="672" unicode="₄"/><glyph d="M333 -367q-107 0 -181 49t-89 135l133 16q10 -39 47 -65.5t90 -26.5q60 0 100.5 34.5t40.5 88.5q0 53 -32.5 88t-95.5 35h-257v365h480v-112h-349v-148h165q98 0 161 -59t63 -165t-78 -170.5t-198 -64.5z" glyph-name="uni2085" horiz-adv-x="672" unicode="₅"/><glyph d="M336 -367q-118 0 -197 64.5t-79 179.5q0 79 46 152l205 323h152l-172 -262q36 21 86 21q100 0 167.5 -63t67.5 -171q0 -115 -79 -179.5t-197 -64.5zM336 -248q61 0 101 35.5t40 92.5t-40 93t-101 36t-101 -36t-40 -93t40 -92.5t101 -35.5z" glyph-name="uni2086" horiz-adv-x="672" unicode="₆"/><glyph d="M290 -351h-151l291 591h-351v111h513v-87z" glyph-name="uni2087" horiz-adv-x="672" unicode="₇"/><glyph d="M336 -367q-117 0 -196 56t-79 161q0 61 33 107.5t89 67.5q-43 20 -67.5 59t-24.5 86q0 93 67.5 145t177.5 52t177.5 -52t67.5 -145q0 -47 -24.5 -86t-67.5 -59q56 -21 89 -67.5t33 -107.5q0 -105 -79 -161t-196 -56zM336 66q53 0 84 27t31 70q0 44 -32 70t-83 26t-83 -26 t-32 -70q0 -43 31 -70t84 -27zM336 -259q53 0 94 29.5t41 83.5q0 52 -37.5 82t-97.5 30t-97.5 -29.5t-37.5 -82.5q0 -54 41 -83.5t94 -29.5z" glyph-name="uni2088" horiz-adv-x="672" unicode="₈"/><glyph d="M361 -351h-152l173 262q-36 -21 -86 -21q-100 0 -168 63t-68 171q0 115 79 179.5t197 64.5t197 -64.5t79 -179.5q0 -81 -45 -152zM336 -8q61 0 101 36t40 93t-40 92.5t-101 35.5t-101 -35.5t-40 -92.5t40 -93t101 -36z" glyph-name="uni2089" horiz-adv-x="672" unicode="₉"/><glyph d="M954 -32q-254 0 -444 135.5t-254 374.5h-189l29 107h140q-9 54 -9 118q0 63 9 117h-169l29 107h160q43 159 145 275.5t244 176t309 59.5q113 0 210 -25l-41 -152q-72 21 -169 21q-183 0 -319.5 -93.5t-188.5 -261.5h587l-29 -106h-598q-10 -53 -10 -118t10 -118h536 l-29 -107h-467q52 -168 188.5 -261t319.5 -93q95 0 169 20l41 -151q-91 -25 -210 -25z" glyph-name="Euro" unicode="€"/><glyph d="M993 0h-197l-380 566h-280v145h316q134 0 220 64.5t97 182.5h-655l28 107h632q-29 233 -318 234h-342l28 107h989l-29 -107h-325q137 -64 149 -234h205l-29 -107h-168q-7 -159 -98 -251.5t-243 -116.5z" glyph-name="uni20B9" unicode="₹"/><glyph d="M560 0h-259v628l-224 -61v111l224 60v242l-224 -59v110l224 60v315h169v-269l506 135v-111l-506 -136v-242l506 136v-111l-506 -135v-518h80q216 0 326.5 121.5t111.5 327.5h169q0 -134 -36 -243.5t-108 -190.5t-187 -125.5t-266 -44.5z" glyph-name="uni20BA" unicode="₺"/><glyph d="M446 -32q-105 0 -146.5 61.5t-41.5 198.5v355l-96 -72l-39 53l135 100v535q1 168 61.5 251t173.5 83q90 0 150 -80t60 -231q0 -87 -20 -162.5t-46.5 -126t-71.5 -100.5t-75.5 -75.5t-78.5 -60.5l-38 -29v-439q0 -91 20.5 -126t78.5 -35q79 0 189 127l43 -49 q-75 -87 -135 -132.5t-123 -45.5zM373 1202v-452l35 25q222 165 222 433q0 98 -35.5 162t-93.5 64t-93 -62t-35 -170z" glyph-name="afii61289" horiz-adv-x="828" unicode="ℓ"/><glyph d="M356 645h-116v656h-257v105h630v-105h-257v-656zM809 645h-118l102 761h120l249 -595l248 595h121l102 -761h-118l-71 566l-242 -566h-80l-242 565z" glyph-name="trademark" horiz-adv-x="1740" unicode="™"/><glyph d="M876 -32q-151 0 -289.5 58t-238.5 156.5t-159 234.5t-59 286t59 286t159 234.5t238.5 156.5t289.5 58t289.5 -58t238.5 -156.5t159 -234.5t59 -286v-39h-1285v-338q90 -133 232 -209t307 -76q177 0 329 88.5t244 242.5l71 -41q-100 -167 -271.5 -265t-372.5 -98z M337 1080v-344h1077v344q-89 133 -231 209t-307 76t-307 -76t-232 -209z" glyph-name="estimated" horiz-adv-x="1752" unicode="℮"/><glyph d="M1260 1375l-893 -1423l-90 58l892 1422zM444 718h-131v589h-186v101l203 13h114v-703zM1197 -15q-104 0 -179.5 49t-90.5 135l134 16q10 -40 46.5 -66t89.5 -26q60 0 100.5 34t40.5 88t-33 88.5t-95 34.5h-110v69l158 185h-302v111h465v-84l-161 -188h19q81 0 137 -57.5 t56 -154.5q0 -105 -78 -169.5t-197 -64.5z" glyph-name="onethird" horiz-adv-x="1536" unicode="⅓"/><glyph d="M602 718h-544v69l309 250q32 27 51.5 46.5t37 50.5t17.5 62q0 50 -38.5 86t-101.5 36q-62 0 -101 -36.5t-39 -86.5v-33h-135v33q0 108 78 175t197 67q120 0 197.5 -65.5t77.5 -176.5q0 -70 -34.5 -121t-98.5 -101l-175 -143h302v-112zM1260 1375l-893 -1423l-90 58 l892 1422zM1197 -15q-104 0 -179.5 49t-90.5 135l134 16q10 -40 46.5 -66t89.5 -26q60 0 100.5 34t40.5 88t-33 88.5t-95 34.5h-110v69l158 185h-302v111h465v-84l-161 -188h19q81 0 137 -57.5t56 -154.5q0 -105 -78 -169.5t-197 -64.5z" glyph-name="twothirds" horiz-adv-x="1536" unicode="⅔"/><glyph d="M443 253l-62 -63l-289 289l289 289l62 -63l-178 -172h1289v-108h-1289z" glyph-name="arrowleft" horiz-adv-x="1674" unicode="←"/><glyph d="M561 0h-108v1261l-172 -178l-63 62l289 289l289 -289l-63 -62l-172 178v-1261z" glyph-name="arrowup" horiz-adv-x="1014" unicode="↑"/><glyph d="M1582 479l-289 -289l-62 63l178 172h-1289v108h1289l-178 172l62 63z" glyph-name="arrowright" horiz-adv-x="1674" unicode="→"/><glyph d="M796 261l-289 -289l-289 289l63 62l172 -178v1261h108v-1261l172 178z" glyph-name="arrowdown" horiz-adv-x="1014" unicode="↓"/><glyph d="M443 253l-62 -63l-289 289l289 289l62 -63l-178 -172h1144l-178 172l62 63l289 -289l-289 -289l-62 63l178 172h-1144z" glyph-name="arrowboth" horiz-adv-x="1674" unicode="↔"/><glyph d="M796 261l-289 -289l-289 289l63 62l172 -178v1116l-172 -178l-63 62l289 289l289 -289l-63 -62l-172 178v-1116l172 178z" glyph-name="arrowupdn" horiz-adv-x="1014" unicode="↕"/><glyph d="M1360 271l-78 -78l-891 893l4 -248l-88 -1v409h409l-1 -88l-248 4z" glyph-name="uni2196" horiz-adv-x="1674" unicode="↖"/><glyph d="M1283 1086l-891 -893l-78 78l893 891l-248 -4l-1 88h409v-409l-88 1z" glyph-name="uni2197" horiz-adv-x="1674" unicode="↗"/><glyph d="M1367 187h-409l1 88l248 -4l-893 891l78 78l891 -893l-4 248l88 1v-409z" glyph-name="uni2198" horiz-adv-x="1674" unicode="↘"/><glyph d="M716 187h-409v409l88 -1l-4 -248l891 893l78 -78l-893 -891l248 4z" glyph-name="uni2199" horiz-adv-x="1674" unicode="↙"/><glyph d="M528 -32q-201 0 -321.5 120t-120.5 306q0 246 155 391.5t406 145.5q97 0 198 -35.5t167 -93.5q3 54 3 76q-1 175 -109 290.5t-305 115.5q-99 0 -185 -44l-50 146q117 52 252 52q115 0 209.5 -30.5t159.5 -84t110 -128.5t65.5 -162.5t20.5 -187.5q0 -86 -10.5 -171.5 t-34.5 -173t-59 -165t-88.5 -145.5t-119 -117t-153.5 -77t-190 -28zM547 115q88 0 160.5 33t120 85.5t83 124.5t54 143t26.5 148q-68 63 -167.5 100.5t-195.5 37.5q-171 0 -269.5 -103t-98.5 -274q0 -127 76 -211t211 -84z" glyph-name="partialdiff" horiz-adv-x="1270" unicode="∂"/><glyph d="M1445 0h-1357l678 1505zM766 1141l-428 -984h856z" glyph-name="uni2206" horiz-adv-x="1533" unicode="∆"/><glyph d="M383 -430h-175v1952h1261v-1952h-175v1794h-911v-1794z" glyph-name="product" horiz-adv-x="1677" unicode="∏"/><glyph d="M1252 -430h-1133v107l645 932l-645 813v100h1133v-158h-889l611 -755l-623 -890h901v-149z" glyph-name="summation" horiz-adv-x="1353" unicode="∑"/><glyph d="M996 627h-754v153h754v-153z" glyph-name="minus" unicode="−"/><glyph d="M820 0h-100l-313 958l-335 -89l-41 152l479 129l249 -784l424 1588h161z" glyph-name="radical" horiz-adv-x="1335" unicode="√"/><glyph d="M1195 327q-47 0 -92.5 13.5t-78 31t-73.5 51.5t-64 58t-65 68.5t-62 64.5q-20 -21 -58.5 -61.5t-56.5 -58.5t-52 -45.5t-60.5 -39.5t-65.5 -22t-83 -10q-135 0 -228 95.5t-94 232.5q0 133 94 228.5t228 95.5q45 0 84 -9.5t66 -22t60 -39t52 -45.5t56 -58t58 -60 q21 21 62 64t65 67t64 57.5t73.5 51t78.5 31t92 13.5q157 0 266.5 -109.5t109.5 -264.5q0 -158 -109.5 -268t-266.5 -110zM1197 460q102 0 173 71.5t71 173.5q0 101 -71 172.5t-173 71.5q-41 0 -80 -14.5t-77.5 -45.5t-64 -55t-66 -68.5t-56.5 -60.5q15 -16 56.5 -61 t66.5 -69t63.5 -55t77.5 -45.5t80 -14.5zM382 510q38 0 69.5 9.5t61.5 32.5t49 41t53.5 56t52.5 56q-18 18 -52.5 55.5t-53.5 55.5t-49 41t-61.5 32.5t-69.5 9.5q-79 0 -134.5 -57t-55.5 -137q0 -81 55.5 -138t134.5 -57z" glyph-name="infinity" horiz-adv-x="1633" unicode="∞"/><glyph d="M221 -273h-75v135h37q89 0 89 93v1505q0 104 60.5 161.5t164.5 57.5h75v-135h-37q-89 0 -89 -93v-1506q0 -104 -60 -161t-165 -57z" glyph-name="integral" horiz-adv-x="718" unicode="∫"/><glyph d="M872 789q-72 0 -251 44.5t-250 44.5q-70 0 -125.5 -13.5t-77 -25t-59.5 -36.5v152q84 74 257 74q71 0 249.5 -46.5t250.5 -46.5q70 0 127 15t76 26t60 38v-154q-88 -72 -257 -72zM872 378q-72 0 -251 44.5t-250 44.5q-70 0 -125.5 -13.5t-77 -25t-59.5 -36.5v152 q85 73 257 73q71 0 249.5 -44.5t250.5 -44.5q70 0 126 13.5t78 25.5t59 36v-153q-86 -72 -257 -72z" glyph-name="approxequal" unicode="≈"/><glyph d="M473 -32h-109l115 430h-360v153h401l86 323h-487v152h528l111 412h109l-110 -412h360v-152h-401l-86 -323h487v-153h-529z" glyph-name="notequal" horiz-adv-x="1237" unicode="≠"/><glyph d="M1157 486v-161l-1076 418v144l1076 418v-161l-859 -329zM1157 101h-1061v116h1061v-116z" glyph-name="lessequal" unicode="≤"/><glyph d="M1157 743l-1076 -418v161l858 329l-858 329v161l1076 -418v-144zM1142 101h-1061v116h1061v-116z" glyph-name="greaterequal" unicode="≥"/><glyph d="M616 -31h-168l-369 734l369 735h168l369 -735zM243 703l289 -602l290 602l-290 602z" glyph-name="lozenge" horiz-adv-x="1064" unicode="◊"/><glyph d="M523 -32q-198 0 -317 111t-137 299l185 15q13 -121 83 -188t184 -67q128 0 199 81t71 229v958h190v-952q0 -238 -121.5 -362t-336.5 -124z" glyph-name="J.ss01" horiz-adv-x="1150"/><glyph d="M879 1755l-222 -229l-94 49l238 296h156l238 -296l-93 -49zM523 -32q-198 0 -317 111t-137 299l185 15q13 -121 83 -188t184 -67q128 0 199 81t71 229v958h190v-952q0 -238 -121.5 -362t-336.5 -124z" glyph-name="Jcircumflex.ss01" horiz-adv-x="1150"/><glyph d="M639 0h-201l-437 1406h204l346 -1150l364 1150h153l365 -1150l345 1150h204l-436 -1406h-201l-353 1082z" glyph-name="W.ss02" horiz-adv-x="1983"/><glyph d="M1255 1825l-303 -299l-94 49l281 340zM639 0h-201l-437 1406h204l346 -1150l364 1150h153l365 -1150l345 1150h204l-436 -1406h-201l-353 1082z" glyph-name="Wacute.ss02" horiz-adv-x="1983"/><glyph d="M992 1755l-223 -229l-93 49l238 296h156l238 -296l-94 -49zM639 0h-201l-437 1406h204l346 -1150l364 1150h153l365 -1150l345 1150h204l-436 -1406h-201l-353 1082z" glyph-name="Wcircumflex.ss02" horiz-adv-x="1983"/><glyph d="M800 1616q-49 0 -80 31t-31 80t31 80t80 31t80.5 -31t31.5 -80t-31.5 -80t-80.5 -31zM1183 1616q-49 0 -80 31t-31 80t31 80t80 31t80.5 -31t31.5 -80t-31.5 -80t-80.5 -31zM639 0h-201l-437 1406h204l346 -1150l364 1150h153l365 -1150l345 1150h204l-436 -1406h-201 l-353 1082z" glyph-name="Wdieresis.ss02" horiz-adv-x="1983"/><glyph d="M639 0h-201l-437 1406h204l346 -1150l364 1150h153l365 -1150l345 1150h204l-436 -1406h-201l-353 1082zM992 -360q-50 0 -81.5 30t-31.5 76q0 47 31.5 77t81.5 30q49 0 80.5 -30t31.5 -77q0 -46 -31.5 -76t-80.5 -30z" glyph-name="uni1E88.ss02" horiz-adv-x="1983"/><glyph d="M1125 1575l-94 -49l-304 299l117 90zM639 0h-201l-437 1406h204l346 -1150l364 1150h153l365 -1150l345 1150h204l-436 -1406h-201l-353 1082z" glyph-name="Wgrave.ss02" horiz-adv-x="1983"/><glyph d="M632 -32q-153 0 -278 72t-197.5 202t-72.5 293t72.5 293t197.5 202t278 72q128 0 224.5 -47.5t159.5 -120.5v137h179v-1071h-165v147h-5q-61 -77 -162 -128t-231 -51zM642 133q164 0 271.5 113t107.5 289t-107.5 289t-271.5 113t-271.5 -113t-107.5 -289t107.5 -289 t271.5 -113z" glyph-name="a.ss04" horiz-adv-x="1372"/><glyph d="M887 1499l-304 -299l-94 49l282 340zM632 -32q-153 0 -278 72t-197.5 202t-72.5 293t72.5 293t197.5 202t278 72q128 0 224.5 -47.5t159.5 -120.5v137h179v-1071h-165v147h-5q-61 -77 -162 -128t-231 -51zM642 133q164 0 271.5 113t107.5 289t-107.5 289t-271.5 113 t-271.5 -113t-107.5 -289t107.5 -289t271.5 -113z" glyph-name="aacute.ss04" horiz-adv-x="1372"/><glyph d="M637 1192q-130 0 -221 92.5t-91 226.5h111q0 -81 59.5 -137t141.5 -56t141.5 56t59.5 137h113q0 -134 -91.5 -226.5t-222.5 -92.5zM632 -32q-153 0 -278 72t-197.5 202t-72.5 293t72.5 293t197.5 202t278 72q128 0 224.5 -47.5t159.5 -120.5v137h179v-1071h-165v147h-5 q-61 -77 -162 -128t-231 -51zM642 133q164 0 271.5 113t107.5 289t-107.5 289t-271.5 113t-271.5 -113t-107.5 -289t107.5 -289t271.5 -113z" glyph-name="abreve.ss04" horiz-adv-x="1372"/><glyph d="M638 1408l-222 -229l-94 49l238 296h156l238 -296l-93 -49zM632 -32q-153 0 -278 72t-197.5 202t-72.5 293t72.5 293t197.5 202t278 72q128 0 224.5 -47.5t159.5 -120.5v137h179v-1071h-165v147h-5q-61 -77 -162 -128t-231 -51zM642 133q164 0 271.5 113t107.5 289 t-107.5 289t-271.5 113t-271.5 -113t-107.5 -289t107.5 -289t271.5 -113z" glyph-name="acircumflex.ss04" horiz-adv-x="1372"/><glyph d="M446 1269q-49 0 -80 31t-31 80t31 80t80 31t80 -31t31 -80t-31 -80t-80 -31zM830 1269q-49 0 -80 31t-31 80t31 80t80 31t80 -31t31 -80t-31 -80t-80 -31zM632 -32q-153 0 -278 72t-197.5 202t-72.5 293t72.5 293t197.5 202t278 72q128 0 224.5 -47.5t159.5 -120.5v137 h179v-1071h-165v147h-5q-61 -77 -162 -128t-231 -51zM642 133q164 0 271.5 113t107.5 289t-107.5 289t-271.5 113t-271.5 -113t-107.5 -289t107.5 -289t271.5 -113z" glyph-name="adieresis.ss04" horiz-adv-x="1372"/><glyph d="M788 1249l-95 -49l-303 299l117 90zM632 -32q-153 0 -278 72t-197.5 202t-72.5 293t72.5 293t197.5 202t278 72q128 0 224.5 -47.5t159.5 -120.5v137h179v-1071h-165v147h-5q-61 -77 -162 -128t-231 -51zM642 133q164 0 271.5 113t107.5 289t-107.5 289t-271.5 113 t-271.5 -113t-107.5 -289t107.5 -289t271.5 -113z" glyph-name="agrave.ss04" horiz-adv-x="1372"/><glyph d="M941 1324h-606v113h606v-113zM632 -32q-153 0 -278 72t-197.5 202t-72.5 293t72.5 293t197.5 202t278 72q128 0 224.5 -47.5t159.5 -120.5v137h179v-1071h-165v147h-5q-61 -77 -162 -128t-231 -51zM642 133q164 0 271.5 113t107.5 289t-107.5 289t-271.5 113t-271.5 -113 t-107.5 -289t107.5 -289t271.5 -113z" glyph-name="amacron.ss04" horiz-adv-x="1372"/><glyph d="M1050 -462q-90 0 -134.5 41.5t-44.5 103.5q0 72 63 148l140 169h-44v147h-5q-57 -75 -158.5 -127t-234.5 -52q-238 0 -393 160.5t-155 406.5q0 124 42.5 230.5t116 180t174.5 115t215 41.5q127 0 224 -47.5t160 -120.5v137h179v-1071h-15l-143 -206q-27 -39 -27 -75 q0 -31 20 -51.5t58 -20.5q57 0 91 31l31 -100q-73 -40 -160 -40zM642 133q164 0 271.5 112t107.5 290t-107.5 290t-271.5 112q-163 0 -271 -112.5t-108 -289.5t108 -289.5t271 -112.5z" glyph-name="aogonek.ss04" horiz-adv-x="1372"/><glyph d="M638 1158q-84 0 -143 58t-59 143t58.5 143t143.5 58t144 -58t59 -143t-59 -143t-144 -58zM638 1242q48 0 82 34t34 83t-34 83t-82 34q-47 0 -81 -34t-34 -83t34 -83t81 -34zM632 -32q-153 0 -278 72t-197.5 202t-72.5 293t72.5 293t197.5 202t278 72q128 0 224.5 -47.5 t159.5 -120.5v137h179v-1071h-165v147h-5q-61 -77 -162 -128t-231 -51zM642 133q164 0 271.5 113t107.5 289t-107.5 289t-271.5 113t-271.5 -113t-107.5 -289t107.5 -289t271.5 -113z" glyph-name="aring.ss04" horiz-adv-x="1372"/><glyph d="M775 1237q-52 0 -99 27t-89 54t-80 27q-36 0 -66.5 -24t-46.5 -61l-86 74q28 67 79.5 106.5t114.5 39.5q41 0 80 -17t64.5 -37t58.5 -37t64 -17q36 0 67 24t47 61l85 -74q-27 -66 -78.5 -106t-114.5 -40zM632 -32q-153 0 -278 72t-197.5 202t-72.5 293t72.5 293 t197.5 202t278 72q128 0 224.5 -47.5t159.5 -120.5v137h179v-1071h-165v147h-5q-61 -77 -162 -128t-231 -51zM642 133q164 0 271.5 113t107.5 289t-107.5 289t-271.5 113t-271.5 -113t-107.5 -289t107.5 -289t271.5 -113z" glyph-name="atilde.ss04" horiz-adv-x="1372"/><glyph d="M628 -32q-233 0 -388.5 160t-155.5 407t155.5 407t388.5 160q128 0 226.5 -48t161.5 -120v136h179v-131q56 75 150 119t197 44q146 0 265 -62t193.5 -187.5t79.5 -294.5q0 -58 -4 -79h-881v-119q38 -109 131.5 -173.5t216.5 -64.5q127 0 218.5 56t143.5 155l144 -85 q-65 -130 -195.5 -205t-289.5 -75q-101 0 -196 42t-168 115h-5v-125h-165v147h-4q-60 -77 -164 -128t-234 -51zM1195 711v-94h703q-10 148 -110.5 241.5t-246.5 93.5q-120 0 -213.5 -65t-132.5 -176zM642 128q164 0 271.5 114.5t107.5 292.5t-107.5 292.5t-271.5 114.5 t-271.5 -114.5t-107.5 -292.5t107.5 -292.5t271.5 -114.5z" glyph-name="ae.ss04" horiz-adv-x="2158"/><glyph d="M417 -9q-114 0 -177 64t-63 177v1290h179v-1257q0 -54 29 -85t80 -31h93v-149q-59 -9 -141 -9z" glyph-name="l.ss05" horiz-adv-x="595"/><glyph d="M520 1878l-304 -281l-93 42l280 314zM417 -9q-114 0 -177 64t-63 177v1290h179v-1257q0 -54 29 -85t80 -31h93v-149q-59 -9 -141 -9z" glyph-name="lacute.ss05" horiz-adv-x="595"/><glyph d="M417 -9q-114 0 -177 64t-63 177v1290h179v-1257q0 -54 29 -85t80 -31h93v-149q-59 -9 -141 -9zM557 1245h-102l47 277h168z" glyph-name="lcaron.ss05" horiz-adv-x="595"/><glyph d="M417 -9q-114 0 -177 64t-63 177v1290h179v-1257q0 -54 29 -85t80 -31h93v-149q-59 -9 -141 -9zM348 -462h-102l47 277h168z" glyph-name="lcommaaccent.ss05" horiz-adv-x="595"/><glyph d="M417 -9q-114 0 -177 64t-63 177v1290h179v-1257q0 -54 29 -85t80 -31h93v-149q-59 -9 -141 -9zM346 -360q-50 0 -81.5 30t-31.5 76q0 47 31.5 77t81.5 30t81.5 -30t31.5 -77q0 -46 -31.5 -76t-81.5 -30z" glyph-name="uni1E37.ss05" horiz-adv-x="595"/><glyph d="M540 1800h-507v113h507v-113zM417 -9q-114 0 -177 64t-63 177v1290h179v-1257q0 -54 29 -85t80 -31h93v-149q-59 -9 -141 -9zM346 -360q-50 0 -81.5 30t-31.5 76q0 47 31.5 77t81.5 30t81.5 -30t31.5 -77q0 -46 -31.5 -76t-81.5 -30z" glyph-name="uni1E39.ss05" horiz-adv-x="595"/><glyph d="M417 -9q-114 0 -177 64t-63 177v1290h179v-1257q0 -54 29 -85t80 -31h93v-149q-59 -9 -141 -9zM559 -333h-483v112h483v-112z" glyph-name="uni1E3B.ss05" horiz-adv-x="595"/><glyph d="M495 -9q-117 0 -178.5 65t-61.5 176v417l-237 -137l-52 89l289 167v754h179v-650l238 138l52 -90l-290 -168v-487q0 -52 28 -84t81 -32h93v-149q-60 -9 -141 -9z" glyph-name="lslash.ss05" horiz-adv-x="690"/><glyph d="M465 0h-179v919h-246v152h246v335h179v-335h246v-152h-246v-919z" glyph-name="t.ss06" horiz-adv-x="752"/><glyph d="M465 0h-179v472h-195v103h195v344h-246v152h246v335h179v-335h246v-152h-246v-344h196v-103h-196v-472z" glyph-name="tbar.ss06" horiz-adv-x="752"/><glyph d="M687 1261h-102l47 278h167zM465 0h-179v919h-246v152h246v335h179v-335h246v-152h-246v-919z" glyph-name="tcaron.ss06" horiz-adv-x="752"/><glyph d="M336 -462q-121 0 -178 39l40 94q49 -32 114 -32q57 0 91 29t34 75q0 112 -163 112l61 145h-49v919h-246v152h246v335h179v-335h246v-152h-246v-919h-28l-35 -84q176 -20 176 -180q0 -93 -71 -145.5t-171 -52.5z" glyph-name="tcommaaccent.ss06" horiz-adv-x="752"/><glyph d="M465 0h-179v919h-246v152h246v335h179v-335h246v-152h-246v-919zM361 -462h-102l47 277h168z" glyph-name="uni021B.ss06" horiz-adv-x="752"/><glyph d="M465 0h-179v919h-246v152h246v335h179v-335h246v-152h-246v-919zM376 -360q-50 0 -81.5 30t-31.5 76q0 47 31.5 77t81.5 30t81.5 -30t31.5 -77q0 -46 -31.5 -76t-81.5 -30z" glyph-name="uni1E6D.ss06" horiz-adv-x="752"/><glyph d="M605 -32q-194 0 -318.5 114t-124.5 308v681h179v-672q0 -118 76 -192.5t188 -74.5q114 0 189 76t75 191v672h180v-681q0 -194 -125 -308t-319 -114z" glyph-name="u.ss07" horiz-adv-x="1210"/><glyph d="M854 1499l-304 -299l-93 49l280 340zM605 -32q-194 0 -318.5 114t-124.5 308v681h179v-672q0 -118 76 -192.5t188 -74.5q114 0 189 76t75 191v672h180v-681q0 -194 -125 -308t-319 -114z" glyph-name="uacute.ss07" horiz-adv-x="1210"/><glyph d="M604 1192q-130 0 -221 92.5t-91 226.5h111q0 -81 59 -137t142 -56q82 0 141.5 56t59.5 137h113q0 -134 -91.5 -226.5t-222.5 -92.5zM605 -32q-194 0 -318.5 114t-124.5 308v681h179v-672q0 -118 76 -192.5t188 -74.5q114 0 189 76t75 191v672h180v-681q0 -194 -125 -308 t-319 -114z" glyph-name="ubreve.ss07" horiz-adv-x="1210"/><glyph d="M605 1408l-222 -229l-94 49l238 296h156l238 -296l-93 -49zM605 -32q-194 0 -318.5 114t-124.5 308v681h179v-672q0 -118 76 -192.5t188 -74.5q114 0 189 76t75 191v672h180v-681q0 -194 -125 -308t-319 -114z" glyph-name="ucircumflex.ss07" horiz-adv-x="1210"/><glyph d="M413 1269q-49 0 -80 31t-31 80t31 80t80 31t80.5 -31t31.5 -80t-31.5 -80t-80.5 -31zM797 1269q-49 0 -80.5 31t-31.5 80t31.5 80t80.5 31t80 -31t31 -80t-31 -80t-80 -31zM605 -32q-194 0 -318.5 114t-124.5 308v681h179v-672q0 -118 76 -192.5t188 -74.5q114 0 189 76 t75 191v672h180v-681q0 -194 -125 -308t-319 -114z" glyph-name="udieresis.ss07" horiz-adv-x="1210"/><glyph d="M754 1249l-94 -49l-303 299l116 90zM605 -32q-194 0 -318.5 114t-124.5 308v681h179v-672q0 -118 76 -192.5t188 -74.5q114 0 189 76t75 191v672h180v-681q0 -194 -125 -308t-319 -114z" glyph-name="ugrave.ss07" horiz-adv-x="1210"/><glyph d="M908 1324h-605v113h605v-113zM605 -32q-194 0 -318.5 114t-124.5 308v681h179v-672q0 -118 76 -192.5t188 -74.5q114 0 189 76t75 191v672h180v-681q0 -194 -125 -308t-319 -114z" glyph-name="umacron.ss07" horiz-adv-x="1210"/><glyph d="M712 -462q-87 0 -132.5 40.5t-45.5 104.5q0 79 63 148l122 153q-58 -16 -114 -16q-124 0 -223 48.5t-159 145.5t-61 228v681h179v-672q0 -118 75 -192.5t189 -74.5t189 74.5t75 192.5v672h180v-681q0 -118 -48 -205.5t-131 -141.5l-171 -249q-27 -37 -27 -75 q0 -31 21 -51.5t58 -20.5q50 0 90 31l31 -100q-64 -40 -160 -40z" glyph-name="uogonek.ss07" horiz-adv-x="1210"/><glyph d="M605 1158q-84 0 -143 58t-59 143t58.5 143t143.5 58t143.5 -58t58.5 -143t-58.5 -143t-143.5 -58zM605 1242q48 0 81.5 34t33.5 83t-33.5 83t-81.5 34t-81.5 -34t-33.5 -83t33.5 -83t81.5 -34zM605 -32q-194 0 -318.5 114t-124.5 308v681h179v-672q0 -118 76 -192.5 t188 -74.5q114 0 189 76t75 191v672h180v-681q0 -194 -125 -308t-319 -114z" glyph-name="uring.ss07" horiz-adv-x="1210"/><glyph d="M742 1237q-52 0 -99 27t-89 54t-80 27q-36 0 -66.5 -24t-46.5 -61l-86 74q28 67 79.5 106.5t114.5 39.5q41 0 80 -17t64.5 -37t58.5 -37t64 -17q36 0 66.5 24t47.5 61l85 -74q-27 -66 -78.5 -106t-114.5 -40zM605 -32q-194 0 -318.5 114t-124.5 308v681h179v-672 q0 -118 76 -192.5t188 -74.5q114 0 189 76t75 191v672h180v-681q0 -194 -125 -308t-319 -114z" glyph-name="utilde.ss07" horiz-adv-x="1210"/><glyph d="M523 0h-176l-312 1071h190l225 -844l274 844h139l273 -844l225 844h190l-312 -1071h-176l-270 804z" glyph-name="w.ss08" horiz-adv-x="1586"/><glyph d="M1042 1499l-304 -299l-94 49l281 340zM523 0h-176l-312 1071h190l225 -844l274 844h139l273 -844l225 844h190l-312 -1071h-176l-270 804z" glyph-name="wacute.ss08" horiz-adv-x="1586"/><glyph d="M793 1408l-222 -229l-94 49l238 296h156l238 -296l-94 -49zM523 0h-176l-312 1071h190l225 -844l274 844h139l273 -844l225 844h190l-312 -1071h-176l-270 804z" glyph-name="wcircumflex.ss08" horiz-adv-x="1586"/><glyph d="M601 1269q-49 0 -80.5 31t-31.5 80t31.5 80t80.5 31t80 -31t31 -80t-31 -80t-80 -31zM985 1269q-49 0 -80.5 31t-31.5 80t31.5 80t80.5 31t80 -31t31 -80t-31 -80t-80 -31zM523 0h-176l-312 1071h190l225 -844l274 844h139l273 -844l225 844h190l-312 -1071h-176 l-270 804z" glyph-name="wdieresis.ss08" horiz-adv-x="1586"/><glyph d="M523 0h-176l-312 1071h190l225 -844l274 844h139l273 -844l225 844h190l-312 -1071h-176l-270 804zM793 -360q-50 0 -81.5 30t-31.5 76q0 47 31.5 77t81.5 30t81.5 -30t31.5 -77q0 -46 -31.5 -76t-81.5 -30z" glyph-name="uni1E89.ss08" horiz-adv-x="1586"/><glyph d="M942 1249l-94 -49l-304 299l117 90zM523 0h-176l-312 1071h190l225 -844l274 844h139l273 -844l225 844h190l-312 -1071h-176l-270 804z" glyph-name="wgrave.ss08" horiz-adv-x="1586"/><glyph d="M467 -430h-186l177 457l-433 1044h203l318 -819l308 819h199z" glyph-name="y.ss09" horiz-adv-x="1078"/><glyph d="M797 1499l-305 -299l-93 49l281 340zM467 -430h-186l177 457l-433 1044h203l318 -819l308 819h199z" glyph-name="yacute.ss09" horiz-adv-x="1078"/><glyph d="M547 1408l-222 -229l-94 49l238 296h156l238 -296l-93 -49zM467 -430h-186l177 457l-433 1044h203l318 -819l308 819h199z" glyph-name="ycircumflex.ss09" horiz-adv-x="1078"/><glyph d="M356 1269q-49 0 -80.5 31t-31.5 80t31.5 80t80.5 31t80 -31t31 -80t-31 -80t-80 -31zM740 1269q-49 0 -80.5 31t-31.5 80t31.5 80t80.5 31t80 -31t31 -80t-31 -80t-80 -31zM467 -430h-186l177 457l-433 1044h203l318 -819l308 819h199z" glyph-name="ydieresis.ss09" horiz-adv-x="1078"/><glyph d="M467 -430h-186l177 457l-433 1044h203l318 -819l308 819h199zM819 -360q-50 0 -81.5 29.5t-31.5 76.5t31.5 77t81.5 30q49 0 80.5 -30t31.5 -77q0 -46 -31.5 -76t-80.5 -30z" glyph-name="uni1EF5.ss09" horiz-adv-x="1078"/><glyph d="M697 1249l-95 -49l-303 299l116 90zM467 -430h-186l177 457l-433 1044h203l318 -819l308 819h199z" glyph-name="ygrave.ss09" horiz-adv-x="1078"/><glyph d="M850 1324h-605v113h605v-113zM467 -430h-186l177 457l-433 1044h203l318 -819l308 819h199z" glyph-name="uni0233.ss09" horiz-adv-x="1078"/><glyph d="M439 0h-179v919h-202v152h202v153q0 143 86 224.5t239 81.5q65 0 143 -9v-148h-124q-73 0 -119 -43.5t-46 -115.5v-143h289v-152h-289v-919zM1151 -9q-114 0 -177 64t-63 177v1290h179v-1257q0 -54 29 -85t80 -31h93v-149q-59 -9 -141 -9z" glyph-name="uniF002.ss05" horiz-adv-x="1329"/><glyph d="M393 703q-150 0 -247 103.5t-97 264.5t97 264t247 103q132 0 227 -85v64h143v-693h-135v71q-103 -92 -235 -92zM408 838q95 0 155.5 65t60.5 168q0 102 -60.5 167t-155.5 65t-155.5 -65t-60.5 -167q0 -103 60.5 -168t155.5 -65z" glyph-name="ordfeminine.ss04" horiz-adv-x="912"/><glyph d="M619 -32q-115 0 -206.5 42.5t-160 130t-105.5 230t-37 332.5t37 332.5t105.5 230t160 130t206.5 42.5t206.5 -42.5t160 -130t105.5 -230t37 -332.5t-37 -332.5t-105.5 -230t-160 -130t-206.5 -42.5zM619 140q152 0 240 137t88 426q0 290 -86.5 426.5t-241.5 136.5 q-154 0 -241 -136.5t-87 -426.5q0 -289 88.5 -426t239.5 -137z" glyph-name="zero.tnum"/><glyph d="M1085 0h-932v151h375v1085h-375v150l396 20h160v-1255h376v-151z" glyph-name="one.tnum"/><glyph d="M1118 0h-1008v108l599 510q104 88 160 169.5t56 186.5q0 120 -79 205t-221 85q-143 0 -232 -87t-89 -204v-66h-182v66q0 204 140 334.5t362 130.5t355 -128t133 -337q0 -79 -20 -146t-61.5 -123.5t-81.5 -96.5t-104 -94l-408 -349h681v-164z" glyph-name="two.tnum"/><glyph d="M614 -32q-194 0 -331 96t-168 257l186 27q24 -95 107.5 -158t205.5 -63q135 0 228 83.5t93 213.5q0 128 -76 212t-218 84h-183v107l339 415h-634v164h862v-122l-345 -425h49q170 0 282 -116t112 -314q0 -201 -143 -331t-366 -130z" glyph-name="three.tnum"/><glyph d="M1036 0h-182v327h-726v130l453 949h207l-440 -915h506v297h182v-297h128v-164h-128v-327z" glyph-name="four.tnum"/><glyph d="M613 -32q-195 0 -331 95.5t-167 257.5l185 27q25 -95 108 -158t205 -63q136 0 229 83.5t93 213.5q0 128 -75 212t-218 84h-461v686h867v-164h-686v-365h330q190 0 310 -118.5t120 -329.5q0 -201 -142.5 -331t-366.5 -130z" glyph-name="five.tnum"/><glyph d="M619 -32q-142 0 -256.5 54t-183.5 163t-69 257q0 152 79 282l415 682h212l-349 -558q88 54 203 54q196 0 327 -124t131 -336q0 -148 -69.5 -257t-183.5 -163t-256 -54zM619 142q139 0 230.5 84.5t91.5 219.5q0 136 -91 220.5t-231 84.5q-139 0 -230 -84.5t-92 -220.5 q0 -135 92 -219.5t230 -84.5z" glyph-name="six.tnum"/><glyph d="M517 0h-211l596 1241l-785 1v164h1010v-131z" glyph-name="seven.tnum"/><glyph d="M619 -32q-103 0 -193.5 27t-161.5 79t-112.5 134.5t-41.5 186.5q0 128 69.5 225t186.5 136q-93 37 -144 120t-51 182q0 175 121.5 277.5t326.5 102.5t326.5 -102.5t121.5 -277.5q0 -99 -51 -182t-144 -120q117 -39 186.5 -136t69.5 -225q0 -104 -41.5 -186.5 t-112.5 -134.5t-161.5 -79t-193.5 -27zM619 818q124 0 196 64t72 167q0 106 -74.5 168t-193.5 62t-193.5 -62t-74.5 -169q1 -103 73.5 -166.5t194.5 -63.5zM619 127q56 0 110 16.5t101 48.5t76 86t29 121q-1 126 -89 198t-227 72q-140 0 -227.5 -71t-87.5 -199 q0 -68 29 -122t75.5 -85.5t101 -48t109.5 -16.5z" glyph-name="eight.tnum"/><glyph d="M634 0h-211l349 558q-88 -54 -205 -54q-196 0 -326.5 124t-130.5 337q0 112 40 202.5t109.5 149t161.5 90t198 31.5q142 0 256 -53.5t183.5 -162.5t69.5 -257q0 -153 -79 -283zM619 655q139 0 230.5 85t91.5 220t-91.5 219.5t-230.5 84.5t-231 -84.5t-92 -219.5 q1 -136 92.5 -220.5t230.5 -84.5z" glyph-name="nine.tnum"/><glyph d="M336 -15q-128 0 -201.5 90t-73.5 277t73.5 277t201.5 90t201.5 -90t73.5 -277t-73.5 -277t-201.5 -90zM336 103q67 0 106 60.5t39 188.5q0 249 -145 249t-145 -249q0 -128 39 -188.5t106 -60.5z" glyph-name="zero.dnom" horiz-adv-x="671"/><glyph d="M444 0h-131v589h-186v101l203 13h114v-703z" glyph-name="one.dnom" horiz-adv-x="672"/><glyph d="M602 0h-544v69l309 250q32 27 51.5 46.5t37 50.5t17.5 62q0 50 -38.5 86t-101.5 36q-62 0 -101 -36.5t-39 -86.5v-33h-135v33q0 108 78 175t197 67q120 0 197.5 -65.5t77.5 -176.5q0 -70 -34.5 -121t-98.5 -101l-175 -143h302v-112z" glyph-name="two.dnom" horiz-adv-x="672"/><glyph d="M333 -15q-104 0 -179.5 49t-90.5 135l134 16q10 -40 46.5 -66t89.5 -26q60 0 100.5 34t40.5 88t-33 88.5t-95 34.5h-110v69l158 185h-302v111h465v-84l-161 -188h19q81 0 137 -57.5t56 -154.5q0 -105 -78 -169.5t-197 -64.5z" glyph-name="three.dnom" horiz-adv-x="672"/><glyph d="M555 1h-131v145h-369v87l230 470h148l-220 -445h211v174h131v-174h61v-112h-61v-145z" glyph-name="four.dnom" horiz-adv-x="672"/><glyph d="M333 -15q-107 0 -181 49t-89 135l133 16q10 -39 47 -65.5t90 -26.5q60 0 100.5 34.5t40.5 88.5q0 53 -32.5 88t-95.5 35h-257v365h480v-112h-349v-148h165q98 0 161 -59t63 -165t-78 -170.5t-198 -64.5z" glyph-name="five.dnom" horiz-adv-x="672"/><glyph d="M336 -15q-118 0 -197 64.5t-79 179.5q0 82 46 152l205 323h152l-173 -262q36 21 86 21q100 0 168 -62.5t68 -171.5q0 -115 -79 -179.5t-197 -64.5zM336 104q61 0 101 35.5t40 92.5t-40 93t-101 36t-101 -36t-40 -93t40 -92.5t101 -35.5z" glyph-name="six.dnom" horiz-adv-x="672"/><glyph d="M281 0h-151l292 591h-351v111h513v-87z" glyph-name="seven.dnom" horiz-adv-x="672"/><glyph d="M336 -15q-117 0 -196 56t-79 161q0 61 33 107.5t89 67.5q-43 20 -67.5 59t-24.5 86q0 93 67.5 145t177.5 52t177.5 -52t67.5 -145q0 -47 -24.5 -86t-67.5 -59q56 -21 89 -67.5t33 -107.5q0 -105 -79 -161t-196 -56zM336 418q53 0 84 27t31 70q0 44 -32 70t-83 26t-83 -26 t-32 -70q0 -43 31 -70t84 -27zM336 93q53 0 94 29.5t41 83.5q0 52 -37.5 82t-97.5 30t-97.5 -29.5t-37.5 -82.5q0 -54 41 -83.5t94 -29.5z" glyph-name="eight.dnom" horiz-adv-x="672"/><glyph d="M361 0h-152l173 262q-36 -21 -86 -21q-100 0 -168 62.5t-68 171.5q0 115 79 179.5t197 64.5t197 -64.5t79 -179.5q0 -82 -46 -152zM336 343q61 0 101 36t40 93t-40 92.5t-101 35.5t-101 -35.5t-40 -92.5t40 -93t101 -36z" glyph-name="nine.dnom" horiz-adv-x="672"/><glyph d="M336 704q-128 0 -201.5 90t-73.5 277t73.5 277t201.5 90t201.5 -90t73.5 -277t-73.5 -277t-201.5 -90zM336 822q67 0 106 60.5t39 188.5q0 249 -145 249t-145 -249q0 -128 39 -188.5t106 -60.5z" glyph-name="zero.frac" horiz-adv-x="671"/><glyph d="M444 718h-131v589h-186v101l203 13h114v-703z" glyph-name="one.frac" horiz-adv-x="672"/><glyph d="M602 718h-544v69l309 250q32 27 51.5 46.5t37 50.5t17.5 62q0 50 -38.5 86t-101.5 36q-62 0 -101 -36.5t-39 -86.5v-33h-135v33q0 108 78 175t197 67q120 0 197.5 -65.5t77.5 -176.5q0 -70 -34.5 -121t-98.5 -101l-175 -143h302v-112z" glyph-name="two.frac" horiz-adv-x="672"/><glyph d="M333 704q-104 0 -179.5 49t-90.5 135l134 16q10 -40 46.5 -66t89.5 -26q60 0 100.5 34t40.5 88t-33 88.5t-95 34.5h-110v69l158 185h-302v111h465v-84l-161 -188h19q81 0 137 -57.5t56 -154.5q0 -105 -78 -169.5t-197 -64.5z" glyph-name="three.frac" horiz-adv-x="672"/><glyph d="M555 719h-131v145h-369v87l230 470h148l-220 -445h211v174h131v-174h61v-112h-61v-145z" glyph-name="four.frac" horiz-adv-x="672"/><glyph d="M333 702q-107 0 -181 49t-89 135l133 16q10 -39 47 -65.5t90 -26.5q60 0 100.5 34.5t40.5 88.5q0 53 -32.5 88t-95.5 35h-257v365h480v-112h-349v-148h165q98 0 161 -59t63 -165t-78 -170.5t-198 -64.5z" glyph-name="five.frac" horiz-adv-x="672"/><glyph d="M336 703q-118 0 -197 64.5t-79 179.5q0 82 46 152l205 323h152l-173 -262q36 21 86 21q100 0 168 -62.5t68 -171.5q0 -115 -79 -179.5t-197 -64.5zM336 822q61 0 101 35.5t40 92.5t-40 93t-101 36t-101 -36t-40 -93t40 -92.5t101 -35.5z" glyph-name="six.frac" horiz-adv-x="672"/><glyph d="M281 719h-151l292 591h-351v111h513v-87z" glyph-name="seven.frac" horiz-adv-x="672"/><glyph d="M336 703q-117 0 -196 56t-79 161q0 61 33 107.5t89 67.5q-43 20 -67.5 59t-24.5 86q0 93 67.5 145t177.5 52t177.5 -52t67.5 -145q0 -47 -24.5 -86t-67.5 -59q56 -21 89 -67.5t33 -107.5q0 -105 -79 -161t-196 -56zM336 1136q53 0 84 27t31 70q0 44 -32 70t-83 26 t-83 -26t-32 -70q0 -43 31 -70t84 -27zM336 811q53 0 94 29.5t41 83.5q0 52 -37.5 82t-97.5 30t-97.5 -29.5t-37.5 -82.5q0 -54 41 -83.5t94 -29.5z" glyph-name="eight.frac" horiz-adv-x="672"/><glyph d="M361 719h-152l173 262q-36 -21 -86 -21q-100 0 -168 62.5t-68 171.5q0 115 79 179.5t197 64.5t197 -64.5t79 -179.5q0 -82 -46 -152zM336 1062q61 0 101 36t40 93t-40 92.5t-101 35.5t-101 -35.5t-40 -92.5t40 -93t101 -36z" glyph-name="nine.frac" horiz-adv-x="672"/><glyph d="M562 -32q-203 0 -338.5 126.5t-135.5 324.5q0 104 34.5 187.5t95 136.5t138.5 82.5t170 33.5l-309 430v117h871v-158h-651l561 -786q48 144 48 398h247v-140h-118q-9 -259 -72 -408l221 -312h-191l-135 188q-147 -220 -436 -220zM572 121q239 0 337 194l-294 413 q-169 -2 -259 -80.5t-90 -224.5q0 -129 93.5 -215.5t212.5 -86.5z" glyph-name="ampersand.ss03" horiz-adv-x="1374"/><glyph d="M417 -9q-114 0 -177 64t-63 177v1290h179v-1257q0 -54 29 -85t80 -31h93v-149q-59 -9 -141 -9zM592 667q-46 0 -75 28.5t-29 73.5t29 74t75 29t75 -29t29 -74t-29 -73.5t-75 -28.5z" glyph-name="ldot.ss05" horiz-adv-x="692"/><glyph d="M704 1481l-304 -299l-80 62l268 326zM1045 1478l-304 -299l-80 62l267 326zM605 -32q-194 0 -318.5 114t-124.5 308v681h179v-672q0 -118 76 -192.5t188 -74.5q114 0 189 76t75 191v672h180v-681q0 -194 -125 -308t-319 -114z" glyph-name="uhungarumlaut.ss07" horiz-adv-x="1210"/><glyph d="M439 0h-179v919h-202v152h202v153q0 142 85 224t240 82q67 0 143 -9v-148h-124q-73 0 -119 -42t-46 -117v-143h489v153q0 142 85 224t240 82q67 0 143 -9v-148h-124q-73 0 -119 -42t-46 -117v-143h289v-152h-289v-919h-179v919h-489v-919zM1818 -9q-114 0 -177 64 t-63 177v1290h179v-1257q0 -54 29 -85t80 -31h93v-149q-59 -9 -141 -9z" glyph-name="uniFB04.ss05" horiz-adv-x="1996"/></font>
</defs>
</svg>
